LuxiSans-Bold.sfdir
StartChar: exclam
Encoding: 33 33 232
Width: 333
Flags: MW
HStem: 0 121<94 239 94 239> 703 20<94 239 239 239>
VStem: 94 145<0 121 0 121 578 723>
LayerCount: 2
Fore
SplineSet
94 0 m 1
 94 121 l 1
 239 121 l 1
 239 0 l 1
 94 0 l 1
118 205 m 1
 94 578 l 1
 94 723 l 1
 239 723 l 1
 239 578 l 1
 215 205 l 1
 118 205 l 1
EndSplineSet
EndChar
StartChar: quotedbl
Encoding: 34 34 255
Width: 474
Flags: W
LayerCount: 2
Fore
SplineSet
80 482 m 1
 56 771 l 1
 201 771 l 1
 170 482 l 1
 80 482 l 1
297 482 m 1
 273 771 l 1
 417 771 l 1
 388 482 l 1
 297 482 l 1
EndSplineSet
EndChar
StartChar: numbersign
Encoding: 35 35 257
Width: 556
Flags: MW
HStem: 0 20 208 72<26 113 12 131 26 187 205 291 384 483> 443 72<73 172 58 190 73 246 264 350 443 529> 703 20<241 316 316 316 420 494 494 494>
LayerCount: 2
Fore
SplineSet
61 0 m 1
 113 208 l 1
 12 208 l 1
 26 280 l 1
 131 280 l 1
 172 443 l 1
 58 443 l 1
 73 515 l 1
 190 515 l 1
 241 723 l 1
 316 723 l 1
 264 515 l 1
 368 515 l 1
 420 723 l 1
 494 723 l 1
 443 515 l 1
 544 515 l 1
 529 443 l 1
 425 443 l 1
 384 280 l 1
 497 280 l 1
 483 208 l 1
 366 208 l 1
 314 0 l 1
 240 0 l 1
 291 208 l 1
 187 208 l 1
 136 0 l 1
 61 0 l 1
205 280 m 1
 309 280 l 1
 350 443 l 1
 246 443 l 1
 205 280 l 1
EndSplineSet
EndChar
StartChar: dollar
Encoding: 36 36 214
Width: 556
Flags: W
VStem: 68 125<533 576 533 593> 234 63<96 281 96 322 96 322> 249 63<460 634 634 634> 355 125<159.5 202>
LayerCount: 2
Fore
SplineSet
234 -78 m 1x40
 234 2 l 1
 188 2 137 11 71 31 c 2
 48 38 l 1
 48 145 l 1
 109 112 169 94 234 90 c 1
 234 322 l 1
 209 339 l 2
 97 414 68 456 68 542 c 0
 68 644 127 708 234 722 c 1
 234 801 l 1xd0
 312 801 l 1
 312 722 l 1
 363 719 410 709 456 691 c 1
 456 593 l 1
 391 623 346 637 312 637 c 1
 312 419 l 1
 334 404 l 2
 436 336 480 274 480 197 c 0
 480 100 410 18 312 2 c 1
 312 -78 l 1x30
 234 -78 l 1x40
297 281 m 1
 297 96 l 1
 337 110 355 137 355 182 c 0
 355 222 338 251 297 281 c 1
249 460 m 1xa0
 249 634 l 1
 211 623 193 598 193 554 c 0
 193 512 210 483 249 460 c 1xa0
EndSplineSet
EndChar
StartChar: percent
Encoding: 37 37 278
Width: 889
Flags: W
HStem: -18 20 0 72<655 697 655 729> 289 72<655 697> 362 72<191 233 191 264.5> 651 72<191 233> 721 20<680 777 777 777>
VStem: 41 108<506 578.5 506 599> 276 108<507 578.5> 505 108<144 216.5 144 238> 740 108<145 216.5>
LayerCount: 2
Fore
SplineSet
111 -18 m 1x87c0
 680 741 l 1
 777 741 l 1
 209 -18 l 1
 111 -18 l 1x87c0
212 723 m 0x7bc0
 319 723 384 655 384 543 c 0
 384 429 319 362 210 362 c 0
 106 362 41 431 41 543 c 0
 41 655 106 723 212 723 c 0x7bc0
212 651 m 0
 170 651 149 615 149 542 c 0
 149 470 170 434 212 434 c 0
 254 434 276 471 276 543 c 0
 276 614 254 651 212 651 c 0
677 361 m 0
 783 361 848 293 848 181 c 0
 848 67 783 0 675 0 c 0
 569 0 505 69 505 183 c 0
 505 293 570 361 677 361 c 0
676 289 m 0
 634 289 613 253 613 180 c 0
 613 108 634 72 676 72 c 0
 718 72 740 109 740 181 c 0
 740 252 718 289 676 289 c 0
EndSplineSet
EndChar
StartChar: ampersand
Encoding: 38 38 249
Width: 722
Flags: W
HStem: -18 93<273.5 325> 0 20 651 91<330 372.5>
VStem: 22 140<192.5 263.5> 150 137<575 609.5 575 630.5> 416 121<565 608>
LayerCount: 2
Fore
SplineSet
681 0 m 1x6c
 511 0 l 1x50
 479 39 l 1
 416 -1 360 -18 290 -18 c 0
 134 -18 22 79 22 213 c 0x90
 22 314 77 382 203 437 c 1
 165 503 150 547 150 587 c 0
 150 674 237 742 349 742 c 0
 458 742 537 678 537 590 c 0
 537 518 490 465 377 410 c 1
 420 331 467 262 524 193 c 1
 559 247 573 305 573 391 c 2
 573 403 l 1
 695 403 l 1
 695 296 657 203 580 120 c 1
 614 75 645 39 681 0 c 1x6c
269 333 m 2xb0
 251 363 l 1
 188 332 162 295 162 238 c 0
 162 147 230 75 317 75 c 0
 354 75 386 86 421 109 c 1
 368 177 316 253 269 333 c 2xb0
332 477 m 0xac
 392 511 416 543 416 587 c 0
 416 629 394 651 351 651 c 0
 309 651 287 630 287 589 c 0
 287 561 300 527 328 484 c 0
 329 483 330 480 332 477 c 0xac
EndSplineSet
EndChar
StartChar: quotesingle
Encoding: 39 39 254
Width: 238
Flags: W
LayerCount: 2
Fore
SplineSet
70 470 m 1
 40 771 l 1
 197 771 l 1
 161 470 l 1
 70 470 l 1
EndSplineSet
EndChar
StartChar: parenleft
Encoding: 40 40 245
Width: 333
Flags: MW
VStem: 41 132<232.5 394 232.5 412.5>
LayerCount: 2
Fore
SplineSet
303 777 m 1
 303 684 l 1
 212 586 173 475 173 313 c 0
 173 152 212 41 303 -57 c 1
 303 -150 l 1
 140 -58 41 117 41 314 c 0
 41 511 137 680 303 777 c 1
EndSplineSet
EndChar
StartChar: parenright
Encoding: 41 41 246
Width: 333
Flags: MW
VStem: 159 133<232 366.5 215 393>
LayerCount: 2
Fore
SplineSet
30 -150 m 1
 30 -57 l 1
 121 41 159 152 159 312 c 0
 159 474 120 585 30 684 c 1
 30 777 l 1
 107 733 158 685 205 612 c 0
 262 521 292 420 292 313 c 0
 292 117 196 -53 30 -150 c 1
EndSplineSet
EndChar
StartChar: asterisk
Encoding: 42 42 253
Width: 389
Flags: MW
HStem: 703 20<142 247 247 247>
LayerCount: 2
Fore
SplineSet
228 577 m 1
 341 646 l 1
 374 546 l 1
 244 528 l 1
 244 530 l 1
 244 532 l 1
 245 539 l 2
 245 552 239 564 228 577 c 1
241 519 m 1
 346 421 l 1
 260 359 l 1
 200 489 l 1
 218 493 231 502 241 519 c 1
190 489 m 1
 129 359 l 1
 44 421 l 1
 149 519 l 1
 158 503 171 493 190 489 c 1
146 528 m 1
 16 546 l 1
 48 646 l 1
 162 577 l 1
 150 564 145 552 145 538 c 2
 145 536 l 2
 146 531 146 530 146 528 c 1
142 723 m 1
 247 723 l 1
 221 582 l 1
 210 587 203 589 195 589 c 0
 187 589 180 587 169 582 c 1
 142 723 l 1
EndSplineSet
EndChar
StartChar: plus
Encoding: 43 43 259
Width: 584
Flags: MW
HStem: 248 84<51 250 51 250 334 533>
VStem: 250 84<48 248 48 248 332 530>
LayerCount: 2
Fore
SplineSet
250 48 m 1
 250 248 l 1
 51 248 l 1
 51 332 l 1
 250 332 l 1
 250 530 l 1
 334 530 l 1
 334 332 l 1
 533 332 l 1
 533 248 l 1
 334 248 l 1
 334 48 l 1
 250 48 l 1
EndSplineSet
EndChar
StartChar: hyphen
Encoding: 45 45 241
Width: 333
Flags: MW
HStem: 265 90<36 297 36 297>
LayerCount: 2
Fore
SplineSet
36 265 m 1
 36 355 l 1
 297 355 l 1
 297 265 l 1
 36 265 l 1
EndSplineSet
EndChar
StartChar: period
Encoding: 46 46 222
Width: 278
Flags: MW
HStem: 0 157<61 218 61 218>
VStem: 61 157<0 157 0 157>
LayerCount: 2
Fore
SplineSet
61 0 m 1
 61 157 l 1
 218 157 l 1
 218 0 l 1
 61 0 l 1
EndSplineSet
EndChar
StartChar: slash
Encoding: 47 47 240
Width: 278
Flags: MW
HStem: 703 20<225 313 313 313>
LayerCount: 2
Fore
SplineSet
-35 -145 m 1
 225 723 l 1
 313 723 l 1
 53 -145 l 1
 -35 -145 l 1
EndSplineSet
EndChar
StartChar: zero
Encoding: 48 48 212
Width: 556
Flags: MW
HStem: -18 90<250 306 250 350> 651 90<249.5 306>
VStem: 39 154<265 457.5 265 477> 363 154<270.5 462>
LayerCount: 2
Fore
SplineSet
278 741 m 0
 423 741 517 592 517 363 c 0
 517 130 424 -18 276 -18 c 0
 133 -18 39 133 39 362 c 0
 39 592 133 741 278 741 c 0
278 651 m 0
 221 651 193 554 193 361 c 0
 193 169 222 72 278 72 c 0
 334 72 363 172 363 369 c 0
 363 555 334 651 278 651 c 0
EndSplineSet
EndChar
StartChar: one
Encoding: 49 49 203
Width: 556
Flags: MW
HStem: 0 84<89 234 89 234 379 523> 721 20<379 379>
VStem: 234 145<84 618 618 618>
LayerCount: 2
Fore
SplineSet
89 0 m 1
 89 84 l 1
 234 84 l 1
 234 618 l 1
 89 582 l 1
 89 669 l 1
 379 741 l 1
 379 84 l 1
 523 84 l 1
 523 0 l 1
 89 0 l 1
EndSplineSet
EndChar
StartChar: two
Encoding: 50 50 204
Width: 556
Flags: MW
HStem: 0 114<38 38 202 491> 648 93<226.5 268>
VStem: 339 154<501.5 572>
LayerCount: 2
Fore
SplineSet
38 0 m 1
 38 114 l 1
 68 164 97 203 136 243 c 2
 185 294 l 1
 243 353 l 2
 320 431 339 468 339 535 c 0
 339 609 303 648 233 648 c 0
 186 648 132 631 57 594 c 1
 57 700 l 1
 137 729 196 741 257 741 c 0
 404 741 493 664 493 537 c 0
 493 454 455 391 353 306 c 2
 305 265 l 2
 243 213 208 162 202 114 c 1
 491 114 l 1
 491 0 l 1
 38 0 l 1
EndSplineSet
EndChar
StartChar: three
Encoding: 51 51 205
Width: 556
Flags: W
HStem: -18 90<211.5 269.5 211.5 316> 651 90<220.5 258>
VStem: 329 147<525 582.5> 349 150<152.5 214.5 129 245>
LayerCount: 2
Fore
SplineSet
67 5 m 1xd0
 67 114 l 1
 149 83 193 72 230 72 c 0
 309 72 349 113 349 192 c 0xd0
 349 298 298 337 159 337 c 2
 134 337 l 1
 134 424 l 1
 281 425 329 455 329 548 c 0
 329 617 294 651 222 651 c 0
 171 651 127 638 77 610 c 1
 77 709 l 1
 135 731 189 741 252 741 c 0
 394 741 476 678 476 568 c 0xe0
 476 482 428 428 316 388 c 1
 395 367 435 345 466 303 c 0
 488 273 499 236 499 193 c 0
 499 65 395 -18 237 -18 c 0
 184 -18 131 -11 67 5 c 1xd0
EndSplineSet
EndChar
StartChar: four
Encoding: 52 52 206
Width: 556
Flags: W
HStem: 0 20 193 108<15 15 131 329 455 521> 703 20<323 455 455 455>
VStem: 329 126<0 193 0 193> 331 124<301 585 585 585>
LayerCount: 2
Fore
SplineSet
15 193 m 1xf0
 15 301 l 1
 323 723 l 1
 455 723 l 1
 455 301 l 1xf0
 521 301 l 1
 521 193 l 1
 455 193 l 1
 455 0 l 1xe8
 329 0 l 1
 329 193 l 1
 15 193 l 1xf0
131 301 m 1xe8
 331 301 l 1
 331 585 l 1
 131 301 l 1xe8
EndSplineSet
EndChar
StartChar: five
Encoding: 53 53 207
Width: 556
Flags: MW
HStem: -18 90<221.5 257.5 201.5 314.5> 609 114<208 482 208 208>
VStem: 343 154<166 256 147 258.5>
LayerCount: 2
Fore
SplineSet
90 3 m 1
 90 108 l 1
 144 83 183 72 220 72 c 0
 295 72 343 125 343 207 c 0
 343 310 279 365 159 365 c 0
 140 365 121 363 103 360 c 1
 103 723 l 1
 482 723 l 1
 482 609 l 1
 208 609 l 1
 201 454 l 1
 291 452 349 437 402 401 c 0
 465 359 497 296 497 216 c 0
 497 78 391 -18 238 -18 c 0
 205 -18 164 -12 90 3 c 1
EndSplineSet
EndChar
StartChar: six
Encoding: 54 54 208
Width: 556
Flags: MW
HStem: -18 90<257 321 257 358> 377 89<292.5 321.5> 651 90<316 356 240 357.5>
VStem: 385 133<174.5 276>
LayerCount: 2
Fore
SplineSet
483 719 m 1
 483 613 l 1
 417 640 374 651 341 651 c 0
 291 651 249 629 220 586 c 0
 205 565 194 537 187 509 c 0
 180 478 175 434 176 417 c 2
 177 406 l 1
 177 395 l 1
 222 445 264 466 321 466 c 0
 442 466 518 379 518 240 c 0
 518 81 429 -18 287 -18 c 0
 122 -18 25 115 25 340 c 0
 25 586 145 741 335 741 c 0
 377 741 422 734 483 719 c 1
290 377 m 0
 226 377 184 317 184 226 c 0
 184 132 225 72 289 72 c 0
 353 72 385 123 385 226 c 0
 385 326 353 377 290 377 c 0
EndSplineSet
EndChar
StartChar: seven
Encoding: 55 55 209
Width: 556
Flags: MW
HStem: 0 20 606 117<55 395 55 513 55 513>
LayerCount: 2
Fore
SplineSet
246 0 m 1
 86 0 l 1
 100 108 138 189 281 421 c 2
 395 606 l 1
 55 606 l 1
 55 723 l 1
 513 723 l 1
 513 606 l 1
 342 365 254 165 246 0 c 1
EndSplineSet
EndChar
StartChar: eight
Encoding: 56 56 210
Width: 556
Flags: W
HStem: -18 89<253 321 253 350> 651 90<262.5 315.5>
VStem: 42 137<151 219.5 151 221> 82 125<552.5 599 552.5 613.5> 369 125<542 590> 395 131<141 195.5>
LayerCount: 2
Fore
SplineSet
176 389 m 1xe4
 101 452 82 486 82 556 c 0
 82 671 162 741 294 741 c 0
 416 741 494 677 494 577 c 0xd8
 494 507 461 453 384 397 c 1
 494 324 526 279 526 198 c 0
 526 70 424 -18 276 -18 c 0
 131 -18 42 57 42 179 c 0
 42 263 76 316 176 389 c 1xe4
309 438 m 0
 351 472 369 509 369 560 c 0
 369 620 342 651 289 651 c 0
 236 651 207 624 207 574 c 0
 207 531 226 504 294 451 c 0
 295 450 295 449 302 443 c 0
 304 442 306 440 309 438 c 0
301 301 m 2xe4
 249 341 l 1
 199 293 179 249 179 190 c 0
 179 112 217 71 289 71 c 0
 353 71 395 111 395 171 c 0
 395 220 381 239 301 301 c 2xe4
EndSplineSet
EndChar
StartChar: nine
Encoding: 57 57 211
Width: 556
Flags: MW
HStem: -18 90<202 267.5 199.5 317.5> 257 89<235.5 264.5> 651 90<236 300>
VStem: 39 133<447.5 549 447.5 562> 374 158<451.5 496.5 260.5 544>
LayerCount: 2
Fore
SplineSet
74 4 m 1
 74 110 l 1
 142 83 183 72 216 72 c 0
 319 72 380 163 380 317 c 2
 380 328 l 1
 335 278 293 257 236 257 c 0
 115 257 39 344 39 483 c 0
 39 641 128 741 271 741 c 0
 435 741 532 609 532 384 c 0
 532 137 412 -18 223 -18 c 0
 181 -18 135 -11 74 4 c 1
268 651 m 0
 204 651 172 600 172 498 c 0
 172 397 204 346 267 346 c 0
 331 346 374 406 374 497 c 0
 374 591 332 651 268 651 c 0
EndSplineSet
EndChar
StartChar: colon
Encoding: 58 58 223
Width: 333
Flags: MW
HStem: 0 145<94 239 94 239> 391 145<94 239 94 239>
VStem: 94 145<0 145 0 145 391 536>
LayerCount: 2
Fore
SplineSet
94 0 m 1
 94 145 l 1
 239 145 l 1
 239 0 l 1
 94 0 l 1
94 391 m 1
 94 536 l 1
 239 536 l 1
 239 391 l 1
 94 391 l 1
EndSplineSet
EndChar
StartChar: semicolon
Encoding: 59 59 227
Width: 333
Flags: MW
HStem: 0 20 391 145<94 239 94 239>
VStem: 94 145<-156 36 -102 36 1.5 36 36 145 1.5 145 391 536>
LayerCount: 2
Fore
SplineSet
148 0 m 1
 94 0 l 1
 94 145 l 1
 239 145 l 1
 239 36 l 2
 239 -33 223 -83 191 -115 c 0
 166 -140 143 -150 94 -156 c 1
 94 -102 l 1
 132 -90 148 -63 148 -15 c 2
 148 0 l 1
94 391 m 1
 94 536 l 1
 239 536 l 1
 239 391 l 1
 94 391 l 1
EndSplineSet
EndChar
StartChar: less
Encoding: 60 60 300
Width: 584
Flags: W
LayerCount: 2
Fore
SplineSet
533 48 m 1
 51 289 l 1
 533 530 l 1
 533 436 l 1
 241 289 l 1
 241 288 l 1
 533 142 l 1
 533 48 l 1
EndSplineSet
EndChar
StartChar: equal
Encoding: 61 61 263
Width: 584
Flags: MW
HStem: 151 84<51 533 51 533> 344 84<51 533 51 533>
LayerCount: 2
Fore
SplineSet
51 151 m 1
 51 235 l 1
 533 235 l 1
 533 151 l 1
 51 151 l 1
51 344 m 1
 51 428 l 1
 533 428 l 1
 533 344 l 1
 51 344 l 1
EndSplineSet
EndChar
StartChar: greater
Encoding: 62 62 301
Width: 584
Flags: W
LayerCount: 2
Fore
SplineSet
51 530 m 1
 533 289 l 1
 51 48 l 1
 51 142 l 1
 343 288 l 1
 343 289 l 1
 51 436 l 1
 51 530 l 1
EndSplineSet
EndChar
StartChar: question
Encoding: 63 63 234
Width: 611
Flags: MW
HStem: 0 121<189 334 189 334> 645 96<243.5 311>
VStem: 189 145<0 121 0 121 0 219 0 259> 401 157<537 583.5>
LayerCount: 2
Fore
SplineSet
189 0 m 1
 189 121 l 1
 334 121 l 1
 334 0 l 1
 189 0 l 1
333 205 m 1
 189 205 l 1
 189 219 l 2
 189 299 213 344 286 398 c 2
 335 434 l 2
 378 466 401 507 401 552 c 0
 401 615 357 645 265 645 c 0
 189 645 122 632 46 601 c 1
 46 712 l 1
 130 732 203 741 284 741 c 0
 467 741 558 684 558 570 c 0
 558 504 533 472 439 415 c 2
 398 391 l 2
 346 359 333 331 333 246 c 2
 333 205 l 1
EndSplineSet
EndChar
StartChar: at
Encoding: 64 64 256
Width: 975
Flags: W
HStem: -18 63<334.5 435 334.5 439> 144 68<642 685> 145 75<374.5 384.5> 512 61<483 516.5> 678 63<496.5 621.5>
VStem: 93 63<215 336.5 215 344> 265 87<262 296.5> 807 63<375 501.5>
LayerCount: 2
Fore
SplineSet
561 80 m 1xdf
 582 22 l 1
 519 -6 469 -18 409 -18 c 0
 224 -18 93 107 93 285 c 0
 93 403 140 511 231 602 c 0
 322 694 429 741 548 741 c 0
 734 741 870 612 870 435 c 0
 870 270 758 144 612 144 c 0xcf
 559 144 531 162 531 196 c 0
 531 213 537 239 559 310 c 1
 549 310 l 1
 493 208 418 145 351 145 c 0x27
 294 145 265 183 265 259 c 0
 265 334 292 407 344 473 c 0
 396 539 454 573 512 573 c 0
 522 573 532 572 547 570 c 0
 563 567 589 566 611 566 c 2
 676 566 l 1
 622 293 l 2
 619 280 617 258 617 246 c 0
 617 223 629 212 655 212 c 0
 733 212 807 319 807 431 c 0
 807 572 696 678 547 678 c 0
 446 678 354 638 275 559 c 0
 197 480 156 387 156 286 c 0
 156 144 260 45 409 45 c 0
 461 45 506 56 561 80 c 1xdf
557 403 m 1x37
 576 493 l 1
 548 506 527 512 506 512 c 0
 422 512 352 407 352 283 c 0
 352 241 363 220 386 220 c 0
 423 220 497 300 557 403 c 1x37
EndSplineSet
EndChar
StartChar: B
Encoding: 66 66 134
Width: 722
Flags: W
HStem: 0 103<226 362 362 424.5 226 456> 325 97<226 359 226 366> 624 99<226 360 226 226>
VStem: 84 142<103 103 103 325 422 624> 504 153<519 571.5> 529 158<160.5 229 121 233>
LayerCount: 2
Fore
SplineSet
84 0 m 1xf4
 84 723 l 1
 434 723 l 2
 582 723 657 669 657 564 c 0xf8
 657 474 605 419 483 377 c 1
 626 339 687 280 687 178 c 0
 687 64 604 0 456 0 c 2
 84 0 l 1xf4
226 422 m 1
 366 422 l 2
 451 422 504 467 504 539 c 0
 504 604 470 624 360 624 c 2
 226 624 l 1
 226 422 l 1
226 103 m 1
 362 103 l 2
 487 103 529 126 529 195 c 0xf4
 529 271 458 325 359 325 c 2
 226 325 l 1
 226 103 l 1
EndSplineSet
EndChar
StartChar: C
Encoding: 67 67 135
Width: 722
Flags: MW
HStem: -18 104<375 479.5> 642 99<366 480.5 308 482>
VStem: 39 160<272 457 272 487>
LayerCount: 2
Fore
SplineSet
686 140 m 1
 686 29 l 1
 611 -3 530 -18 429 -18 c 0
 177 -18 39 116 39 362 c 0
 39 612 176 741 440 741 c 0
 521 741 596 732 680 713 c 1
 680 595 l 1
 583 628 515 642 449 642 c 0
 283 642 199 549 199 365 c 0
 199 179 287 86 463 86 c 0
 540 86 610 103 686 140 c 1
EndSplineSet
EndChar
StartChar: D
Encoding: 68 68 136
Width: 722
Flags: MW
HStem: 0 20 624 99<234 302 234 234>
VStem: 84 150<103 103 103 624> 522 160<278 447>
LayerCount: 2
Fore
SplineSet
84 0 m 1
 84 723 l 1
 335 723 l 2
 560 723 682 601 682 376 c 0
 682 138 550 0 322 0 c 2
 84 0 l 1
234 103 m 1
 287 103 l 2
 444 103 522 190 522 366 c 0
 522 528 440 624 302 624 c 2
 234 624 l 1
 234 103 l 1
EndSplineSet
EndChar
StartChar: F
Encoding: 70 70 138
Width: 611
Flags: MW
HStem: 0 20 304 100<234 534 234 534> 624 99<234 588 234 234>
VStem: 84 150<0 304 404 624>
LayerCount: 2
Fore
SplineSet
84 0 m 1
 84 723 l 1
 588 723 l 1
 588 624 l 1
 234 624 l 1
 234 404 l 1
 534 404 l 1
 534 304 l 1
 234 304 l 1
 234 0 l 1
 84 0 l 1
EndSplineSet
EndChar
StartChar: G
Encoding: 71 71 139
Width: 778
Flags: MW
HStem: -18 102<391.5 472 376 491> 252 99<433 556 433 706> 642 99<387 486>
VStem: 39 160<288.5 433.5> 556 150<90 252 252 252>
LayerCount: 2
Fore
SplineSet
706 351 m 1
 706 17 l 1
 603 -8 532 -18 450 -18 c 0
 333 -18 253 -1 194 36 c 0
 94 99 39 215 39 362 c 0
 39 505 91 618 188 683 c 0
 248 724 326 741 448 741 c 0
 542 741 617 733 705 713 c 1
 705 595 l 1
 599 628 522 642 450 642 c 0
 286 642 199 545 199 362 c 0
 199 184 292 84 460 84 c 0
 484 84 511 86 556 90 c 1
 556 252 l 1
 433 252 l 1
 433 351 l 1
 706 351 l 1
EndSplineSet
EndChar
StartChar: H
Encoding: 72 72 140
Width: 722
Flags: MW
HStem: 0 20 329 100<234 487 234 487> 703 20<84 234 234 234 487 637 637 637>
VStem: 84 150<0 329 429 723> 487 150<0 329 329 329 429 723 0 723>
LayerCount: 2
Fore
SplineSet
84 0 m 1
 84 723 l 1
 234 723 l 1
 234 429 l 1
 487 429 l 1
 487 723 l 1
 637 723 l 1
 637 0 l 1
 487 0 l 1
 487 329 l 1
 234 329 l 1
 234 0 l 1
 84 0 l 1
EndSplineSet
EndChar
StartChar: I
Encoding: 73 73 141
Width: 278
Flags: MW
HStem: 0 20 703 20<63 213 213 213>
VStem: 63 150<0 723 0 723>
LayerCount: 2
Fore
SplineSet
63 0 m 1
 63 723 l 1
 213 723 l 1
 213 0 l 1
 63 0 l 1
EndSplineSet
EndChar
StartChar: J
Encoding: 74 74 142
Width: 556
Flags: MW
HStem: -144 102<151.5 222 146 276> 703 20<304 454 454 454>
VStem: 304 150<90 106 106 723>
LayerCount: 2
Fore
SplineSet
-12 -119 m 1
 -12 -11 l 1
 62 -32 119 -42 173 -42 c 0
 271 -42 304 -9 304 90 c 2
 304 723 l 1
 454 723 l 1
 454 106 l 2
 454 -67 371 -144 181 -144 c 0
 122 -144 66 -137 -12 -119 c 1
EndSplineSet
EndChar
StartChar: K
Encoding: 75 75 143
Width: 722
Flags: MW
HStem: 0 20 703 20<84 229 229 229 530 654 654 654>
VStem: 84 145<0 356 372 723>
LayerCount: 2
Fore
SplineSet
84 0 m 1
 84 723 l 1
 229 723 l 1
 229 372 l 1
 530 723 l 1
 654 723 l 1
 380 399 l 1
 715 0 l 1
 527 0 l 1
 229 356 l 1
 229 0 l 1
 84 0 l 1
EndSplineSet
EndChar
StartChar: L
Encoding: 76 76 144
Width: 611
Flags: MW
HStem: 0 103<234 602 234 602> 703 20<84 234 234 234>
VStem: 84 150<103 723 103 723 103 723>
LayerCount: 2
Fore
SplineSet
84 0 m 1
 84 723 l 1
 234 723 l 1
 234 103 l 1
 602 103 l 1
 602 0 l 1
 84 0 l 1
EndSplineSet
EndChar
StartChar: M
Encoding: 77 77 145
Width: 833
Flags: MW
HStem: 0 20 703 20<84 283 283 283 574 749 749 749>
VStem: 84 118<0 553 0 723> 610 139<0 546 546 546>
LayerCount: 2
Fore
SplineSet
84 0 m 1
 84 723 l 1
 283 723 l 1
 426 214 l 1
 574 723 l 1
 749 723 l 1
 749 0 l 1
 610 0 l 1
 610 546 l 1
 465 48 l 1
 344 48 l 1
 202 553 l 1
 202 0 l 1
 84 0 l 1
EndSplineSet
EndChar
StartChar: N
Encoding: 78 78 146
Width: 722
Flags: MW
HStem: 0 20 703 20<84 217 217 217 516 637 637 637>
VStem: 84 121<0 494 0 723> 516 121<229 723 0 723>
LayerCount: 2
Fore
SplineSet
84 0 m 1
 84 723 l 1
 217 723 l 1
 516 229 l 1
 516 723 l 1
 637 723 l 1
 637 0 l 1
 502 0 l 1
 205 494 l 1
 205 0 l 1
 84 0 l 1
EndSplineSet
EndChar
StartChar: O
Encoding: 79 79 147
Width: 778
Flags: MW
HStem: -18 100<328 448.5 328 496.5> 642 99<329 449>
VStem: 39 160<274 450.5 274 480.5> 579 160<273.5 451>
LayerCount: 2
Fore
SplineSet
389 741 m 0
 608 741 739 599 739 363 c 0
 739 122 609 -18 384 -18 c 0
 170 -18 39 126 39 362 c 0
 39 599 170 741 389 741 c 0
389 642 m 0
 269 642 199 539 199 362 c 0
 199 186 269 82 387 82 c 0
 510 82 579 184 579 363 c 0
 579 539 509 642 389 642 c 0
EndSplineSet
EndChar
StartChar: P
Encoding: 80 80 148
Width: 667
Flags: MW
HStem: 0 20 283 99<231 302 302 335 231 302> 624 99<231 331 231 231>
VStem: 84 147<0 283 382 624> 492 154<472.5 556.5>
LayerCount: 2
Fore
SplineSet
84 0 m 1
 84 723 l 1
 377 723 l 2
 481 723 531 716 566 694 c 0
 619 663 646 608 646 530 c 0
 646 366 542 283 335 283 c 2
 231 283 l 1
 231 0 l 1
 84 0 l 1
231 382 m 1
 302 382 l 2
 430 382 492 427 492 518 c 0
 492 595 448 624 331 624 c 2
 231 624 l 1
 231 382 l 1
EndSplineSet
EndChar
StartChar: Q
Encoding: 81 81 149
Width: 778
Flags: MW
HStem: -18 100<328.5 383.5> 642 99<329.5 449>
VStem: 39 160<275.5 452.5 275.5 480.5> 579 160<314.5 450>
LayerCount: 2
Fore
SplineSet
851 -48 m 1
 753 -145 l 1
 623 -110 518 -68 436 -16 c 1
 405 -17 390 -18 377 -18 c 0
 170 -18 39 129 39 362 c 0
 39 599 170 741 389 741 c 0
 608 741 739 599 739 363 c 0
 739 266 717 185 672 120 c 0
 644 78 618 54 562 17 c 1
 656 -16 753 -38 851 -48 c 1
389 642 m 0
 270 642 199 539 199 366 c 0
 199 185 268 82 389 82 c 0
 509 82 579 185 579 361 c 0
 579 539 509 642 389 642 c 0
EndSplineSet
EndChar
StartChar: R
Encoding: 82 82 150
Width: 722
Flags: MW
HStem: 0 20 296 99<226 305 305 344 226 305> 624 99<226 323 226 226>
VStem: 84 142<0 296 395 624> 469 151<495.5 558>
LayerCount: 2
Fore
SplineSet
84 0 m 1
 84 723 l 1
 399 723 l 2
 546 723 620 663 620 544 c 0
 620 447 578 386 479 338 c 1
 716 0 l 1
 547 0 l 1
 344 296 l 1
 226 296 l 1
 226 0 l 1
 84 0 l 1
226 395 m 1
 305 395 l 2
 412 395 469 440 469 524 c 0
 469 592 422 624 323 624 c 2
 226 624 l 1
 226 395 l 1
EndSplineSet
EndChar
StartChar: T
Encoding: 84 84 152
Width: 611
Flags: MW
HStem: 0 20 624 99<19 230 19 591 380 380 380 591>
VStem: 230 150<0 624 0 624>
LayerCount: 2
Fore
SplineSet
230 0 m 1
 230 624 l 1
 19 624 l 1
 19 723 l 1
 591 723 l 1
 591 624 l 1
 380 624 l 1
 380 0 l 1
 230 0 l 1
EndSplineSet
EndChar
StartChar: U
Encoding: 85 85 153
Width: 722
Flags: MW
HStem: -18 100<322 419 322 421> 703 20<78 228 228 228 512 643 643 643>
VStem: 78 150<280 723> 512 131<269 279 279 723>
LayerCount: 2
Fore
SplineSet
78 723 m 1
 228 723 l 1
 228 280 l 2
 228 142 272 82 372 82 c 0
 466 82 512 144 512 269 c 2
 512 723 l 1
 643 723 l 1
 643 279 l 2
 643 177 630 121 597 77 c 0
 549 14 472 -18 370 -18 c 0
 262 -18 178 16 127 81 c 0
 92 126 78 183 78 280 c 2
 78 723 l 1
EndSplineSet
EndChar
StartChar: V
Encoding: 86 86 154
Width: 667
Flags: MW
HStem: 0 20 703 20<12 173 173 173 544 655 655 655>
LayerCount: 2
Fore
SplineSet
263 0 m 1
 12 723 l 1
 173 723 l 1
 362 183 l 1
 544 723 l 1
 655 723 l 1
 413 0 l 1
 263 0 l 1
EndSplineSet
EndChar
StartChar: W
Encoding: 87 87 155
Width: 944
Flags: MW
HStem: 0 20 703 20<12 154 154 154 428 554 554 554 825 932 932 932>
LayerCount: 2
Fore
SplineSet
198 0 m 1
 12 723 l 1
 154 723 l 1
 291 194 l 1
 428 723 l 1
 554 723 l 1
 678 192 l 1
 825 723 l 1
 932 723 l 1
 731 0 l 1
 587 0 l 1
 470 496 l 1
 341 0 l 1
 198 0 l 1
EndSplineSet
EndChar
StartChar: X
Encoding: 88 88 156
Width: 667
Flags: MW
HStem: 0 20 703 20<34 210 210 210 516 637 637 637>
LayerCount: 2
Fore
SplineSet
24 0 m 1
 255 356 l 1
 34 723 l 1
 210 723 l 1
 357 480 l 1
 516 723 l 1
 637 723 l 1
 416 382 l 1
 645 0 l 1
 470 0 l 1
 314 258 l 1
 146 0 l 1
 24 0 l 1
EndSplineSet
EndChar
StartChar: Y
Encoding: 89 89 157
Width: 667
Flags: MW
HStem: 0 20 703 20<14 181 181 181 535 654 654 654>
VStem: 254 150<0 303 303 303>
LayerCount: 2
Fore
SplineSet
254 0 m 1
 254 303 l 1
 14 723 l 1
 181 723 l 1
 353 418 l 1
 535 723 l 1
 654 723 l 1
 404 304 l 1
 404 0 l 1
 254 0 l 1
EndSplineSet
EndChar
StartChar: Z
Encoding: 90 90 158
Width: 611
Flags: MW
HStem: 0 103<46 46 221 566> 624 99<67 391 67 566 67 566>
LayerCount: 2
Fore
SplineSet
46 0 m 1
 46 103 l 1
 391 624 l 1
 67 624 l 1
 67 723 l 1
 566 723 l 1
 566 624 l 1
 221 103 l 1
 566 103 l 1
 566 0 l 1
 46 0 l 1
EndSplineSet
EndChar
StartChar: bracketleft
Encoding: 91 91 247
Width: 333
Flags: MW
HStem: -145 84<199 304 199 304> 687 84<199 304 199 199>
VStem: 78 121<-61 687 -61 771 -61 771>
LayerCount: 2
Fore
SplineSet
78 -145 m 1
 78 771 l 1
 304 771 l 1
 304 687 l 1
 199 687 l 1
 199 -61 l 1
 304 -61 l 1
 304 -145 l 1
 78 -145 l 1
EndSplineSet
EndChar
StartChar: backslash
Encoding: 92 92 280
Width: 278
Flags: MW
HStem: 703 20<-35 53 53 53>
LayerCount: 2
Fore
SplineSet
225 -145 m 1
 -35 723 l 1
 53 723 l 1
 313 -145 l 1
 225 -145 l 1
EndSplineSet
EndChar
StartChar: bracketright
Encoding: 93 93 248
Width: 333
Flags: MW
HStem: -145 84<29 134 29 255 29 134> 687 84<29 134 29 255>
VStem: 134 121<-61 687 687 687>
LayerCount: 2
Fore
SplineSet
255 -145 m 1
 29 -145 l 1
 29 -61 l 1
 134 -61 l 1
 134 687 l 1
 29 687 l 1
 29 771 l 1
 255 771 l 1
 255 -145 l 1
EndSplineSet
EndChar
StartChar: asciicircum
Encoding: 94 94 303
Width: 584
Flags: MW
HStem: 703 20<292 292>
LayerCount: 2
Fore
SplineSet
75 289 m 1
 292 723 l 1
 509 289 l 1
 414 289 l 1
 292 533 l 1
 291 533 l 1
 169 289 l 1
 75 289 l 1
EndSplineSet
EndChar
StartChar: underscore
Encoding: 95 95 306
Width: 556
Flags: MW
HStem: -78 78<0 556 0 556>
LayerCount: 2
Fore
SplineSet
0 -78 m 1
 0 0 l 1
 556 0 l 1
 556 -78 l 1
 0 -78 l 1
EndSplineSet
EndChar
StartChar: grave
Encoding: 96 96 285
Width: 333
Flags: W
LayerCount: 2
Fore
SplineSet
291 626 m 1
 198 626 l 1
 41 783 l 1
 173 783 l 1
 291 626 l 1
EndSplineSet
EndChar
StartChar: b
Encoding: 98 98 167
Width: 611
Flags: W
HStem: -12 89<308.5 339 290 400.5> 0 20 435 113<355.5 360.5>
VStem: 72 145<0 86 86 350 447 771> 419 154<202 321>
LayerCount: 2
Fore
SplineSet
217 0 m 1x58
 72 0 l 1x78
 72 771 l 1
 217 771 l 1
 217 447 l 1
 273 518 324 548 387 548 c 0
 499 548 573 442 573 282 c 0
 573 98 479 -12 322 -12 c 0xb8
 295 -12 265 -9 217 0 c 1x58
217 350 m 1
 217 86 l 1
 256 80 281 77 299 77 c 0x98
 379 77 419 139 419 265 c 0
 419 377 389 435 332 435 c 0
 292 435 257 409 217 350 c 1
EndSplineSet
EndChar
StartChar: c
Encoding: 99 99 168
Width: 556
Flags: MW
HStem: -12 96<311.5 358.5> 451 97<298.5 371.5>
VStem: 36 154<212 330 212 362>
LayerCount: 2
Fore
SplineSet
515 112 m 1
 515 12 l 1
 445 -4 385 -12 332 -12 c 0
 143 -12 36 90 36 270 c 0
 36 454 139 548 343 548 c 0
 400 548 451 542 511 527 c 1
 511 423 l 1
 436 443 391 451 352 451 c 0
 245 451 190 389 190 271 c 0
 190 153 256 84 367 84 c 0xe0
 406 84 456 93 515 112 c 1
EndSplineSet
EndChar
StartChar: d
Encoding: 100 100 169
Width: 611
Flags: W
HStem: -12 113<251.5 256.5> 0 20 459 89<273 303 211 322>
VStem: 39 154<215 334 215 346> 394 145<0 89 89 89 186 450 450 450 536 771 0 771>
LayerCount: 2
Fore
SplineSet
394 0 m 1x78
 394 89 l 1
 338 18 288 -12 225 -12 c 0x98
 113 -12 39 94 39 254 c 0
 39 438 133 548 289 548 c 0
 317 548 347 545 394 536 c 1
 394 771 l 1
 539 771 l 1
 539 0 l 1
 394 0 l 1x78
394 186 m 1xb8
 394 450 l 1
 355 456 331 459 313 459 c 0
 233 459 193 397 193 271 c 0
 193 159 223 101 280 101 c 0
 320 101 354 127 394 186 c 1xb8
EndSplineSet
EndChar
StartChar: f
Encoding: 102 102 171
Width: 333
Flags: MW
HStem: 0 20 446 90<25 81 25 81 226 316> 693 90<268 284.5 207.5 298.5>
VStem: 81 145<0 446 0 446 536 575 575 580 0 644>
LayerCount: 2
Fore
SplineSet
81 0 m 1
 81 446 l 1
 25 446 l 1
 25 536 l 1
 81 536 l 1
 81 575 l 2
 81 713 145 783 270 783 c 0
 299 783 326 779 359 770 c 1
 359 677 l 1
 331 688 308 693 289 693 c 0
 247 693 226 656 226 580 c 2
 226 536 l 1
 316 536 l 1
 316 446 l 1
 226 446 l 1
 226 0 l 1
 81 0 l 1
EndSplineSet
EndChar
StartChar: g
Encoding: 103 103 172
Width: 611
Flags: W
HStem: -205 103<231.5 296.5 217.5 319.5> 0 20 516 20<394 539 539 539> 528 20<211.5 303>
LayerCount: 2
Fore
SplineSet
394 199 m 1
 394 450 l 1
 355 457 331 460 313 460 c 0
 233 460 193 399 193 277 c 0
 193 169 223 113 280 113 c 0xa0
 320 113 354 139 394 199 c 1
394 42 m 2
 394 101 l 1
 338 30 288 0 225 0 c 0
 114 0 38 106 38 260 c 0
 38 438 134 548 289 548 c 0x50
 317 548 347 545 394 536 c 1
 539 536 l 1
 539 127 l 2
 539 1 530 -57 502 -100 c 0
 459 -168 375 -205 264 -205 c 0
 199 -205 137 -193 60 -166 c 1
 60 -60 l 1
 136 -89 191 -102 244 -102 c 0
 349 -102 394 -58 394 42 c 2
EndSplineSet
EndChar
StartChar: h
Encoding: 104 104 173
Width: 611
Flags: MW
HStem: 0 20 434 114<323 448>
VStem: 72 145<0 350 447 771> 400 145<0 343 343 377>
LayerCount: 2
Fore
SplineSet
72 0 m 1
 72 771 l 1
 217 771 l 1
 217 447 l 1
 278 518 332 548 400 548 c 0
 496 548 545 491 545 379 c 2
 545 0 l 1
 400 0 l 1
 400 343 l 2
 400 411 386 434 343 434 c 0
 303 434 265 408 217 350 c 1
 217 0 l 1
 72 0 l 1
EndSplineSet
EndChar
StartChar: i
Encoding: 105 105 174
Width: 278
Flags: MW
HStem: 0 20 516 20<67 212 212 212> 626 121<67 212 67 212>
VStem: 67 145<0 536 0 536 626 747>
LayerCount: 2
Fore
SplineSet
67 0 m 1
 67 536 l 1
 212 536 l 1
 212 0 l 1
 67 0 l 1
67 626 m 1
 67 747 l 1
 212 747 l 1
 212 626 l 1
 67 626 l 1
EndSplineSet
EndChar
StartChar: j
Encoding: 106 106 175
Width: 278
Flags: W
HStem: -205 90<8 26.5 -7 86> 0 20 516 20<67 212 212 212> 626 121<54 199 54 199>
VStem: 54 145<626 747 626 747> 67 145<0 9 9 536>
LayerCount: 2
Fore
SplineSet
-76 -185 m 1xf4
 -76 -89 l 1
 -39 -107 -16 -115 2 -115 c 0
 51 -115 67 -86 67 0 c 2
 67 536 l 1
 212 536 l 1
 212 9 l 2
 212 -132 148 -205 24 -205 c 0
 -8 -205 -35 -199 -76 -185 c 1xf4
54 626 m 1xf8
 54 747 l 1
 199 747 l 1
 199 626 l 1
 54 626 l 1xf8
EndSplineSet
EndChar
StartChar: k
Encoding: 107 107 176
Width: 556
Flags: MW
HStem: 0 20 516 20<395 514 514 514>
VStem: 72 145<0 268 286 771>
LayerCount: 2
Fore
SplineSet
72 0 m 1
 72 771 l 1
 217 771 l 1
 217 286 l 1
 226 286 l 1
 395 536 l 1
 514 536 l 1
 358 303 l 1
 552 0 l 1
 398 0 l 1
 226 268 l 1
 217 268 l 1
 217 0 l 1xe0
 72 0 l 1
EndSplineSet
EndChar
StartChar: l
Encoding: 108 108 177
Width: 278
Flags: MW
HStem: 0 20
VStem: 67 145<0 771 0 771>
LayerCount: 2
Fore
SplineSet
67 0 m 1
 67 771 l 1
 212 771 l 1
 212 0 l 1
 67 0 l 1
EndSplineSet
EndChar
StartChar: m
Encoding: 109 109 178
Width: 889
Flags: W
HStem: 0 20 434 114<305.5 417.5> 516 20<72 217 217 217>
VStem: 72 145<0 350 447 536> 375 145<0 343 343 350 0 378> 677 145<0 343 343 378.5>
LayerCount: 2
Fore
SplineSet
72 0 m 1xdc
 72 536 l 1
 217 536 l 1xbc
 217 447 l 1
 265 518 314 548 382 548 c 0
 453 548 496 516 520 446 c 1
 564 517 613 548 684 548 c 0
 776 548 822 491 822 379 c 2
 822 0 l 1
 677 0 l 1
 677 343 l 2
 677 414 666 434 628 434 c 0
 587 434 554 408 520 350 c 1
 520 0 l 1
 375 0 l 1
 375 343 l 2
 375 413 364 434 326 434 c 0
 285 434 251 408 217 350 c 1
 217 0 l 1
 72 0 l 1xdc
EndSplineSet
EndChar
StartChar: n
Encoding: 110 110 179
Width: 611
Flags: W
HStem: 0 20 434 114<323 448> 516 20<72 217 217 217>
VStem: 72 145<0 350 447 536> 400 145<0 343 343 377>
LayerCount: 2
Fore
SplineSet
72 0 m 1
 72 536 l 1
 217 536 l 1xb8
 217 447 l 1
 278 518 332 548 400 548 c 0
 496 548 545 491 545 379 c 2
 545 0 l 1
 400 0 l 1
 400 343 l 2
 400 411 386 434 343 434 c 0
 303 434 265 408 217 350 c 1
 217 0 l 1xd8
 72 0 l 1
EndSplineSet
EndChar
StartChar: o
Encoding: 111 111 180
Width: 611
Flags: MW
HStem: -12 90<269.5 341 269.5 386.5> 458 90<269.5 341>
VStem: 36 153<210 326.5 210 353.5> 422 153<210 327>
LayerCount: 2
Fore
SplineSet
305 548 m 0
 469 548 575 439 575 269 c 0
 575 96 470 -12 303 -12 c 0
 141 -12 36 99 36 268 c 0xf0
 36 439 141 548 305 548 c 0
305 458 m 0
 234 458 189 385 189 268 c 0
 189 152 234 78 305 78 c 0
 377 78 422 151 422 269 c 0
 422 385 377 458 305 458 c 0
EndSplineSet
EndChar
StartChar: p
Encoding: 112 112 181
Width: 611
Flags: W
HStem: -12 89<308.5 339 290 400.5> 0 20 435 113<355.5 360.5> 516 20<72 217 217 217>
VStem: 72 145<-193 0 86 350 447 536> 419 154<202 321>
LayerCount: 2
Fore
SplineSet
217 -193 m 1x4c
 72 -193 l 1
 72 536 l 1
 217 536 l 1x1c
 217 447 l 1
 273 518 324 548 387 548 c 0
 499 548 573 442 573 282 c 0
 573 98 479 -12 322 -12 c 0xac
 295 -12 265 -9 217 0 c 1
 217 -193 l 1x4c
217 350 m 1xac
 217 86 l 1
 256 80 281 77 299 77 c 0
 379 77 419 139 419 265 c 0
 419 377 389 435 332 435 c 0
 292 435 257 409 217 350 c 1xac
EndSplineSet
EndChar
StartChar: q
Encoding: 113 113 182
Width: 611
Flags: W
HStem: -12 113<251.5 256.5> 459 89<273 303 211 322> 516 20<394 539 539 539>
VStem: 39 154<215 334 215 346> 394 145<-193 89 89 89 186 450 450 450 -193 536>
LayerCount: 2
Fore
SplineSet
394 -193 m 1x38
 394 89 l 1
 338 18 288 -12 225 -12 c 0
 113 -12 39 94 39 254 c 0
 39 438 133 548 289 548 c 0xd8
 317 548 347 545 394 536 c 1
 539 536 l 1
 539 -193 l 1
 394 -193 l 1x38
394 186 m 1
 394 450 l 1
 355 456 331 459 313 459 c 0
 233 459 193 397 193 271 c 0
 193 159 223 101 280 101 c 0
 320 101 354 127 394 186 c 1
EndSplineSet
EndChar
StartChar: r
Encoding: 114 114 183
Width: 389
Flags: W
HStem: 0 20 427 121<321.5 333.5> 516 20<84 229 229 229>
VStem: 84 145<0 352 447 536>
LayerCount: 2
Fore
SplineSet
84 0 m 1
 84 536 l 1
 229 536 l 1xb0
 229 447 l 1
 259 517 295 548 348 548 c 0
 355 548 364 547 373 545 c 1
 373 416 l 1
 354 424 340 427 327 427 c 0
 288 427 259 404 229 352 c 1
 229 0 l 1xd0
 84 0 l 1
EndSplineSet
EndChar
StartChar: t
Encoding: 116 116 185
Width: 333
Flags: W
HStem: -12 20 0 20 446 90<31 79 31 79 224 320>
VStem: 79 145<164 183 183 446 536 626 626 626>
LayerCount: 2
Fore
SplineSet
324 91 m 1xb0
 324 0 l 1x50
 286 -8 257 -12 232 -12 c 0
 130 -12 79 47 79 164 c 2
 79 446 l 1
 31 446 l 1
 31 536 l 1
 79 536 l 1
 79 626 l 1
 224 643 l 1
 224 536 l 1
 320 536 l 1
 320 446 l 1
 224 446 l 1
 224 183 l 2
 224 103 234 84 276 84 c 0
 289 84 306 86 324 91 c 1xb0
EndSplineSet
EndChar
StartChar: v
Encoding: 118 118 187
Width: 556
Flags: MW
HStem: 0 20 516 20<12 164 164 164 436 543 543 543>
LayerCount: 2
Fore
SplineSet
204 0 m 1
 12 536 l 1
 164 536 l 1
 300 159 l 1
 436 536 l 1
 543 536 l 1
 349 0 l 1
 204 0 l 1
EndSplineSet
EndChar
StartChar: w
Encoding: 119 119 188
Width: 778
Flags: MW
HStem: 0 20 516 20<30 160 160 160 345 470 470 470 651 748 748 748>
LayerCount: 2
Fore
SplineSet
160 0 m 1
 30 536 l 1
 160 536 l 1
 251 161 l 1
 345 536 l 1
 470 536 l 1
 553 159 l 1
 651 536 l 1
 748 536 l 1
 608 0 l 1
 470 0 l 1
 390 368 l 1
 299 0 l 1
 160 0 l 1
EndSplineSet
EndChar
StartChar: x
Encoding: 120 120 189
Width: 556
Flags: MW
HStem: 0 20 516 20<31 195 195 195 402 520 520 520>
LayerCount: 2
Fore
SplineSet
23 0 m 1
 198 269 l 1
 31 536 l 1
 195 536 l 1
 301 366 l 1
 402 536 l 1
 520 536 l 1
 361 272 l 1
 532 0 l 1
 367 0 l 1
 256 177 l 1
 143 0 l 1
 23 0 l 1
EndSplineSet
EndChar
StartChar: y
Encoding: 121 121 190
Width: 556
Flags: MW
HStem: 0 20 516 20<12 164 164 164 436 543 543 543>
LayerCount: 2
Fore
SplineSet
204 0 m 1
 12 536 l 1
 164 536 l 1
 288 189 l 1
 436 536 l 1
 543 536 l 1
 231 -193 l 1
 83 -193 l 1xc0
 204 0 l 1
EndSplineSet
EndChar
StartChar: z
Encoding: 122 122 191
Width: 500
Flags: MW
HStem: 0 96<54 54 216 451> 446 90<68 284 68 446 68 446>
LayerCount: 2
Fore
SplineSet
54 0 m 1
 54 96 l 1
 284 446 l 1
 68 446 l 1
 68 536 l 1
 446 536 l 1
 446 446 l 1
 216 96 l 1
 451 96 l 1
 451 0 l 1xc0
 54 0 l 1
EndSplineSet
EndChar
StartChar: braceleft
Encoding: 123 123 269
Width: 389
Flags: W
VStem: 114 121<-19 6.5 -19 17 620 645.5> 146 107<144.5 222.5 436.5 437>
LayerCount: 2
Fore
SplineSet
48 361 m 1x40
 78 361 l 2
 124 361 146 383 146 427 c 0x40
 146 447 143 467 136 495 c 2
 125 540 l 2
 118 568 114 597 114 623 c 0
 114 685 142 728 199 751 c 0
 233 765 264 770 328 771 c 1
 328 687 l 1
 263 685 235 666 235 625 c 0x80
 235 615 237 599 240 580 c 2
 248 538 l 2
 251 521 253 491 253 471 c 0
 253 402 225 356 157 313 c 1
 225 271 253 224 253 155 c 0x40
 253 134 251 105 248 88 c 2
 240 46 l 2
 237 28 235 11 235 2 c 0
 235 -40 263 -59 328 -60 c 1
 328 -145 l 1
 261 -143 227 -137 192 -121 c 0
 140 -97 114 -56 114 4 c 0x80
 114 30 118 58 125 87 c 2
 136 132 l 2
 143 158 146 180 146 201 c 0
 146 244 124 265 78 265 c 2
 48 265 l 1
 48 361 l 1x40
EndSplineSet
EndChar
StartChar: bar
Encoding: 124 124 304
Width: 280
Flags: MW
VStem: 98 84<-145 771 -145 771>
LayerCount: 2
Fore
SplineSet
98 -145 m 1
 98 771 l 1
 182 771 l 1
 182 -145 l 1
 98 -145 l 1
EndSplineSet
EndChar
StartChar: braceright
Encoding: 125 125 270
Width: 389
Flags: W
VStem: 135 107<145 222> 153 121<-19 6.5 620.5 645.5>
LayerCount: 2
Fore
SplineSet
340 265 m 1x80
 310 265 l 2
 264 265 242 244 242 200 c 0x80
 242 179 245 159 252 132 c 2
 263 87 l 2
 270 58 274 29 274 4 c 0
 274 -59 246 -101 189 -124 c 0
 155 -138 124 -143 60 -145 c 1
 60 -60 l 1
 125 -59 153 -40 153 2 c 0x40
 153 11 152 23 148 46 c 2
 141 88 l 2
 137 114 135 135 135 155 c 0
 135 224 163 271 231 313 c 1
 163 356 135 402 135 472 c 0x80
 135 493 137 513 141 539 c 2
 148 580 l 2
 151 601 153 616 153 625 c 0
 153 666 125 685 60 687 c 1
 60 771 l 1
 127 769 161 764 196 748 c 0
 248 724 274 682 274 622 c 0x40
 274 597 270 569 263 540 c 2
 252 495 l 2
 245 468 242 447 242 426 c 0
 242 383 264 361 310 361 c 2
 340 361 l 1
 340 265 l 1x80
EndSplineSet
EndChar
StartChar: asciitilde
Encoding: 126 126 307
Width: 584
Flags: MW
HStem: 192 94<406 423> 291 95<160.5 178.5>
LayerCount: 2
Fore
SplineSet
94 217 m 1
 39 217 l 1
 41 289 53 326 85 354 c 0
 108 375 141 386 180 386 c 0
 220 386 257 373 292 348 c 2
 331 319 l 2
 363 296 391 286 421 286 c 0
 445 286 463 293 475 306 c 0
 484 316 493 341 491 352 c 2
 490 357 l 1
 490 361 l 1
 545 361 l 1
 543 289 530 252 499 224 c 0
 475 203 443 192 403 192 c 0
 363 192 327 204 292 230 c 2
 252 259 l 2
 223 280 193 291 164 291 c 0
 118 291 94 267 94 221 c 2
 94 217 l 1
EndSplineSet
EndChar
StartChar: exclamdown
Encoding: 161 161 233
Width: 333
Flags: MW
HStem: 0 20 603 120<94 239 94 239>
VStem: 94 145<0 145 0 145 603 723>
LayerCount: 2
Fore
SplineSet
239 723 m 1
 239 603 l 1
 94 603 l 1
 94 723 l 1
 239 723 l 1
215 518 m 1
 239 145 l 1
 239 0 l 1
 94 0 l 1
 94 145 l 1
 118 518 l 1
 215 518 l 1
EndSplineSet
EndChar
StartChar: cent
Encoding: 162 162 215
Width: 556
Flags: MW
HStem: 0 20 703 20<314 386 386 386>
VStem: 72 139<326 424 326 452.5> 314 72<0 86 86 86 191 553 553 553 648 723>
LayerCount: 2
Fore
SplineSet
314 0 m 1
 314 86 l 1
 158 99 72 199 72 368 c 0
 72 537 153 630 314 648 c 1
 314 723 l 1
 386 723 l 1
 386 647 l 1
 424 645 463 638 499 628 c 1
 499 522 l 1
 457 541 421 552 386 554 c 1
 386 183 l 1
 424 185 461 194 499 210 c 1
 499 111 l 1
 463 99 424 91 386 88 c 1
 386 0 l 1
 314 0 l 1
314 191 m 1
 314 553 l 1
 242 526 211 473 211 375 c 0
 211 277 242 221 314 191 c 1
EndSplineSet
EndChar
StartChar: sterling
Encoding: 163 163 213
Width: 556
Flags: MW
HStem: 0 114<50 50 185 496> 341 90<67 146 67 146 291 386> 651 90<353 385.5 292.5 401.5>
VStem: 146 145<252 341 341 341 431 514 514 546>
LayerCount: 2
Fore
SplineSet
50 0 m 1
 50 114 l 1
 117 132 146 174 146 252 c 2
 146 341 l 1
 67 341 l 1
 67 431 l 1
 146 431 l 1
 146 514 l 2
 146 665 219 741 366 741 c 0
 405 741 447 737 496 730 c 1
 496 631 l 1
 455 644 419 651 384 651 c 0
 322 651 291 616 291 546 c 2
 291 431 l 1
 386 431 l 1
 386 341 l 1
 291 341 l 1
 290 211 273 175 185 114 c 1
 496 114 l 1
 496 0 l 1
 50 0 l 1
EndSplineSet
EndChar
StartChar: currency
Encoding: 164 164 266
Width: 556
Flags: MW
HStem: 144 108<257 298.5> 470 108<257 298.5 257 309>
VStem: 61 108<340 382.5> 387 108<340.5 382>
LayerCount: 2
Fore
SplineSet
398 541 m 1
 495 638 l 1
 555 579 l 1
 458 482 l 1
 483 440 495 403 495 361 c 0
 495 320 483 282 458 241 c 1
 554 144 l 1
 495 84 l 1
 398 181 l 1
 355 155 319 144 278 144 c 0
 236 144 200 155 157 181 c 1
 61 84 l 1
 1 144 l 1
 98 241 l 1
 72 283 61 319 61 361 c 0
 61 404 72 440 98 482 c 1
 1 579 l 1
 61 638 l 1
 157 541 l 1
 200 567 236 578 278 578 c 0
 319 578 355 567 398 541 c 1
279 470 m 0
 218 470 169 422 169 361 c 0
 169 300 218 252 278 252 c 0
 338 252 387 301 387 361 c 0
 387 421 339 470 279 470 c 0
EndSplineSet
EndChar
StartChar: yen
Encoding: 165 165 218
Width: 556
Flags: MW
HStem: 0 20 147 72<85 206 85 206 351 471> 292 72<85 206 85 206 351 471> 703 20<0 167 167 167 447 556 556 556>
VStem: 206 145<0 147 0 147 219 292>
LayerCount: 2
Fore
SplineSet
206 0 m 1
 206 147 l 1
 85 147 l 1
 85 219 l 1
 206 219 l 1
 206 292 l 1
 85 292 l 1
 85 364 l 1
 206 364 l 1
 0 723 l 1
 167 723 l 1
 307 479 l 1
 447 723 l 1
 556 723 l 1
 351 364 l 1
 471 364 l 1
 471 292 l 1
 351 292 l 1
 351 219 l 1
 471 219 l 1
 471 147 l 1
 351 147 l 1
 351 0 l 1
 206 0 l 1
EndSplineSet
EndChar
StartChar: brokenbar
Encoding: 166 166 305
Width: 386
Flags: MW
VStem: 150 84<-145 217 -145 217 410 771>
LayerCount: 2
Fore
SplineSet
150 -145 m 1
 150 217 l 1
 234 217 l 1
 234 -145 l 1
 150 -145 l 1
150 410 m 1
 150 771 l 1
 234 771 l 1
 234 410 l 1
 150 410 l 1
EndSplineSet
EndChar
StartChar: section
Encoding: 167 167 250
Width: 556
Flags: W
HStem: -163 91<233 292.5 233 326.5> 651 91<263 314.5 222.5 322.5>
VStem: 69 121<571.5 607 571.5 618.5> 71 101<312.5 314.5> 366 121<-27 9> 381 99<272 276>
LayerCount: 2
Fore
SplineSet
73 -135 m 1xc8
 73 -28 l 1
 153 -59 208 -72 258 -72 c 0
 327 -72 366 -48 366 -6 c 0
 366 24 340 51 287 77 c 2
 219 109 l 2
 114 159 71 211 71 289 c 0xd8
 71 340 91 385 138 438 c 1
 89 474 69 512 69 565 c 0
 69 672 156 742 289 742 c 0
 340 742 394 735 457 722 c 1
 457 621 l 1
 395 642 347 651 298 651 c 0
 228 651 190 628 190 586 c 0
 190 557 213 533 259 512 c 2
 318 485 l 2
 437 431 480 381 480 297 c 0xe4
 480 247 461 201 416 146 c 1
 466 108 487 68 487 11 c 0
 487 -103 405 -163 248 -163 c 0
 195 -163 147 -155 73 -135 c 1xc8
264 229 m 2
 356 183 l 1
 374 212 381 233 381 255 c 0xc4
 381 297 361 318 293 352 c 2
 198 400 l 1
 180 375 172 353 172 332 c 0
 172 293 202 260 264 229 c 2
EndSplineSet
EndChar
StartChar: dieresis
Encoding: 168 168 281
Width: 333
Flags: MW
HStem: 627 108<10 118 10 118 214 323 10 214>
VStem: 10 108<627 735 627 735> 214 109<627 735 627 735>
LayerCount: 2
Fore
SplineSet
10 627 m 1
 10 735 l 1
 118 735 l 1
 118 627 l 1xe0
 10 627 l 1
214 627 m 1
 214 735 l 1
 323 735 l 1
 323 627 l 1
 214 627 l 1
EndSplineSet
EndChar
StartChar: copyright
Encoding: 169 169 295
Width: 737
Flags: MW
HStem: 0 60<324 414> 155 58<361.5 405.5> 515 52<352 403 318 410> 663 60<318 417.5 318 451.5>
VStem: 6 60<321 411.5> 172 86<317.5 408.5 317.5 426> 669 60<312 412 312 445.5>
LayerCount: 2
Fore
SplineSet
368 723 m 0
 467 723 552 688 623 617 c 0
 694 547 729 462 729 362 c 0
 729 262 693 175 622 105 c 0
 552 35 465 0 363 0 c 0
 276 0 199 29 134 86 c 0
 49 159 6 253 6 362 c 0
 6 461 42 547 112 617 c 0
 183 688 268 723 368 723 c 0
368 663 m 0
 200 663 66 529 66 362 c 0
 66 280 95 209 154 149 c 0
 213 90 283 60 365 60 c 0
 535 60 669 193 669 362 c 0
 669 529 535 663 368 663 c 0
515 237 m 1
 515 176 l 1
 464 161 425 155 386 155 c 0
 257 155 172 238 172 363 c 0
 172 489 253 567 383 567 c 0
 423 567 464 562 515 550 c 1
 515 488 l 1
 467 506 428 515 392 515 c 0
 312 515 258 454 258 363 c 0
 258 272 316 213 407 213 c 0
 448 213 483 221 515 237 c 1
EndSplineSet
EndChar
StartChar: ordfeminine
Encoding: 170 170 271
Width: 370
Flags: MW
HStem: 680 61<153.5 176.5>
VStem: 24 102<495 522.5 495 536.5>
LayerCount: 2
Fore
SplineSet
216 440 m 1
 210 440 l 1
 182 413 157 402 125 402 c 0
 66 402 24 443 24 499 c 0
 24 574 80 612 192 612 c 2
 215 612 l 1
 215 635 l 2
 215 665 196 680 157 680 c 0
 121 680 89 671 53 651 c 1
 53 720 l 1
 95 735 132 741 175 741 c 0
 269 741 317 707 317 640 c 2
 317 498 l 2
 317 479 324 470 337 470 c 0
 340 470 342 470 347 471 c 2
 348 471 l 1
 348 410 l 1
 327 404 309 402 294 402 c 0
 255 402 232 413 216 440 c 1
215 498 m 1
 215 553 l 1
 193 553 l 2
 148 553 126 538 126 507 c 0
 126 483 139 470 162 470 c 0
 181 470 196 478 215 498 c 1
EndSplineSet
EndChar
StartChar: guillemotleft
Encoding: 171 171 237
Width: 556
Flags: W
LayerCount: 2
Fore
SplineSet
526 434 m 1
 398 268 l 1
 526 103 l 1
 458 51 l 1
 255 268 l 1
 458 485 l 1
 526 434 l 1
303 432 m 1
 175 268 l 1
 303 103 l 1
 235 51 l 1
 32 268 l 1
 235 485 l 1
 303 432 l 1
EndSplineSet
EndChar
StartChar: logicalnot
Encoding: 172 172 302
Width: 584
Flags: MW
HStem: 350 84<51 533 51 449>
VStem: 449 84<145 350 350 350>
LayerCount: 2
Fore
SplineSet
51 350 m 1
 51 434 l 1
 533 434 l 1
 533 145 l 1
 449 145 l 1
 449 350 l 1
 51 350 l 1
EndSplineSet
EndChar
StartChar: sfthyphen
Encoding: 173 173 242
Width: 333
Flags: MW
HStem: 265 90<36 297 36 297>
LayerCount: 2
Fore
SplineSet
36 265 m 1
 36 355 l 1
 297 355 l 1
 297 265 l 1
 36 265 l 1
EndSplineSet
EndChar
StartChar: registered
Encoding: 174 174 296
Width: 737
Flags: MW
HStem: 0 60<325 415> 663 60<319 418.5 319 452.5>
VStem: 7 60<321 411.5> 233 77<167 327 381 505> 442 79<435.5 469.5> 670 60<312 412 312 445.5>
LayerCount: 2
Fore
SplineSet
369 723 m 0
 468 723 553 688 624 617 c 0
 695 547 730 462 730 362 c 0
 730 262 694 175 623 105 c 0
 553 35 466 0 364 0 c 0
 277 0 200 29 135 86 c 0
 50 159 7 253 7 362 c 0
 7 461 43 547 113 617 c 0
 184 688 269 723 369 723 c 0
369 663 m 0
 201 663 67 529 67 362 c 0
 67 280 96 209 155 149 c 0
 214 90 284 60 366 60 c 0
 536 60 670 193 670 362 c 0
 670 529 536 663 369 663 c 0
233 167 m 1
 233 559 l 1
 404 559 l 2
 482 559 521 526 521 462 c 0
 521 409 499 375 447 350 c 1
 558 167 l 1
 466 167 l 1
 374 327 l 1
 310 327 l 1
 310 167 l 1
 233 167 l 1
310 381 m 1
 353 381 l 2
 411 381 442 405 442 451 c 0
 442 488 416 505 362 505 c 2
 310 505 l 1
 310 381 l 1
EndSplineSet
EndChar
StartChar: macron
Encoding: 349 175 293
Width: 333
Flags: MW
HStem: 627 84<-14 347 -14 347>
LayerCount: 2
Fore
SplineSet
-14 627 m 1
 -14 711 l 1
 347 711 l 1
 347 627 l 1x80
 -14 627 l 1
EndSplineSet
EndChar
StartChar: degree
Encoding: 176 176 258
Width: 400
Flags: MW
HStem: 494 72<180 220 180 240> 711 72<180.5 220.5>
VStem: 56 72<619 658.5 619 679> 273 72<618 658.5>
LayerCount: 2
Fore
SplineSet
201 783 m 0
 281 783 345 719 345 638 c 0
 345 558 281 494 199 494 c 0
 120 494 56 559 56 639 c 0
 56 719 120 783 201 783 c 0
200 711 m 0
 161 711 128 678 128 639 c 0
 128 599 161 566 199 566 c 0
 241 566 273 598 273 638 c 0
 273 679 241 711 200 711 c 0
EndSplineSet
EndChar
StartChar: plusminus
Encoding: 177 177 273
Width: 584
Flags: MW
HStem: 0 84<51 533 51 533> 320 84<51 250 51 250 334 533>
VStem: 250 84<145 320 145 320 404 578>
LayerCount: 2
Fore
SplineSet
51 0 m 1
 51 84 l 1
 533 84 l 1
 533 0 l 1
 51 0 l 1
250 145 m 1
 250 320 l 1
 51 320 l 1
 51 404 l 1
 250 404 l 1
 250 578 l 1
 334 578 l 1
 334 404 l 1
 533 404 l 1
 533 320 l 1
 334 320 l 1
 334 145 l 1
 250 145 l 1
EndSplineSet
EndChar
StartChar: twosuperior
Encoding: 178 178 220
Width: 333
Flags: MW
HStem: 296 83<19 19 132 327> 675 66<140.5 161.5>
VStem: 211 115<595.5 635>
LayerCount: 2
Fore
SplineSet
19 296 m 1
 19 379 l 1
 41 404 51 413 68 430 c 2
 105 464 l 2
 195 547 211 569 211 615 c 0
 211 655 186 675 137 675 c 0
 104 675 68 666 22 645 c 1
 22 719 l 1
 74 734 118 741 163 741 c 0
 262 741 326 694 326 620 c 0
 326 571 305 541 232 481 c 2
 199 454 l 2
 161 422 138 397 132 379 c 1
 327 379 l 1
 327 296 l 1
 19 296 l 1
EndSplineSet
EndChar
StartChar: threesuperior
Encoding: 179 179 221
Width: 333
Flags: W
HStem: 286 62<124 159 116.5 201> 679 62<135.5 153>
VStem: 199 112<610 643.5> 212 112<390 438>
LayerCount: 2
Fore
SplineSet
18 300 m 1xd0
 18 373 l 1
 65 356 100 348 133 348 c 0
 185 348 212 369 212 411 c 0xd0
 212 465 170 493 87 493 c 2
 58 493 l 1
 58 555 l 1
 80 555 l 2
 159 555 199 578 199 626 c 0
 199 661 176 679 130 679 c 0
 96 679 63 671 24 654 c 1
 24 720 l 1
 74 735 115 741 156 741 c 0
 258 741 311 705 311 637 c 0xe0
 311 583 281 551 210 528 c 1
 289 508 324 471 324 410 c 0
 324 331 258 286 144 286 c 0
 104 286 63 291 18 300 c 1xd0
EndSplineSet
EndChar
StartChar: acute
Encoding: 180 180 284
Width: 333
Flags: W
LayerCount: 2
Fore
SplineSet
41 626 m 1
 159 783 l 1
 291 783 l 1
 134 626 l 1
 41 626 l 1
EndSplineSet
EndChar
StartChar: mu
Encoding: 181 181 308
Width: 611
Flags: W
HStem: -9 115<263 302.5> 0 20 516 20<72 217 217 217 397 542 542 542>
VStem: 72 145<-193 6 172.5 205 205 536> 397 145<199 536>
LayerCount: 2
Fore
SplineSet
72 -193 m 1x98
 72 536 l 1
 217 536 l 1
 217 205 l 2
 217 140 239 106 283 106 c 0xb8
 322 106 356 134 397 199 c 1
 397 536 l 1
 542 536 l 1
 542 160 l 2
 542 97 551 49 572 0 c 1
 416 0 l 1x78
 408 27 402 57 397 101 c 1
 368 24 331 -9 274 -9 c 0
 252 -9 234 -4 217 6 c 1
 217 -193 l 1
 72 -193 l 1x98
EndSplineSet
EndChar
StartChar: paragraph
Encoding: 182 182 265
Width: 556
Flags: MW
HStem: 657 66<309 381 309 309>
VStem: 231 78<-145 361 361 361> 381 79<-145 657 657 657>
LayerCount: 2
Fore
SplineSet
231 -145 m 1
 231 361 l 1
 150 375 110 394 77 435 c 0
 51 467 38 509 38 561 c 0
 38 676 96 723 240 723 c 2
 460 723 l 1
 460 -145 l 1
 381 -145 l 1
 381 657 l 1
 309 657 l 1
 309 -145 l 1
 231 -145 l 1
EndSplineSet
EndChar
StartChar: periodcentered
Encoding: 340 183 224
Width: 277
Flags: MW
HStem: 229 156<60 217 60 217>
VStem: 60 157<229 385 229 385>
LayerCount: 2
Fore
SplineSet
60 229 m 1
 60 385 l 1
 217 385 l 1
 217 229 l 1
 60 229 l 1
EndSplineSet
EndChar
StartChar: cedilla
Encoding: 184 184 291
Width: 333
Flags: MW
HStem: -211 52<110.5 186> 0 20
VStem: 176 97<-139 -116>
LayerCount: 2
Fore
SplineSet
131 0 m 1
 197 0 l 1
 160 -55 l 1
 239 -65 273 -88 273 -131 c 0
 273 -176 220 -211 152 -211 c 0
 125 -211 96 -206 60 -196 c 1
 60 -152 l 1
 83 -157 103 -159 118 -159 c 0
 156 -159 176 -149 176 -129 c 0
 176 -103 144 -89 81 -89 c 2
 72 -89 l 1xe0
 131 0 l 1
EndSplineSet
EndChar
StartChar: onesuperior
Encoding: 185 185 219
Width: 333
Flags: MW
HStem: 301 63<24 120 24 120 228 325> 721 20<228 228>
VStem: 120 108<364 649 649 649>
LayerCount: 2
Fore
SplineSet
24 301 m 1
 24 364 l 1
 120 364 l 1
 120 649 l 1
 24 625 l 1
 24 690 l 1
 228 741 l 1
 228 364 l 1
 325 364 l 1
 325 301 l 1
 24 301 l 1
EndSplineSet
EndChar
StartChar: ordmasculine
Encoding: 186 186 272
Width: 365
Flags: MW
HStem: 402 63<166.5 205 166.5 237> 679 62<166.5 205.5>
VStem: 19 108<536.5 607.5 536.5 624.5> 245 108<537 607.5>
LayerCount: 2
Fore
SplineSet
186 741 m 0
 290 741 353 677 353 572 c 0
 353 466 290 402 184 402 c 0
 82 402 19 467 19 572 c 0
 19 677 82 741 186 741 c 0
186 679 m 0
 147 679 127 643 127 572 c 0
 127 501 147 465 186 465 c 0
 224 465 245 502 245 572 c 0
 245 643 225 679 186 679 c 0
EndSplineSet
EndChar
StartChar: guillemotright
Encoding: 187 187 236
Width: 556
Flags: W
LayerCount: 2
Fore
SplineSet
30 103 m 1
 158 268 l 1
 30 434 l 1
 98 485 l 1
 301 268 l 1
 98 51 l 1
 30 103 l 1
253 104 m 1
 381 268 l 1
 253 434 l 1
 321 485 l 1
 524 268 l 1
 321 51 l 1
 253 104 l 1
EndSplineSet
EndChar
StartChar: onequarter
Encoding: 188 188 275
Width: 834
Flags: W
HStem: -18 20 0 20 110 81<504 628 422 422 723 768> 721 20<234 234 622 696 696 696>
VStem: 126 108<300 649 649 649> 628 95<0 110 0 110 191 340 340 340>
LayerCount: 2
Fore
SplineSet
126 300 m 1x9c
 126 649 l 1
 18 622 l 1
 18 687 l 1
 234 741 l 1
 234 300 l 1
 126 300 l 1x9c
81 -18 m 1
 622 741 l 1
 696 741 l 1
 155 -18 l 1
 81 -18 l 1
628 0 m 1x6c
 628 110 l 1
 422 110 l 1
 422 191 l 1
 624 434 l 1
 723 434 l 1
 723 191 l 1
 768 191 l 1
 768 110 l 1
 723 110 l 1
 723 0 l 1
 628 0 l 1x6c
504 191 m 1
 628 191 l 1
 628 340 l 1
 504 191 l 1
EndSplineSet
EndChar
StartChar: onehalf
Encoding: 189 189 274
Width: 834
Flags: W
HStem: -18 20 0 83<494 494 607 801> 380 65<615.5 636.5> 721 20<234 234 604 678 678 678>
VStem: 126 108<300 649 649 649> 686 115<299.5 339.5>
LayerCount: 2
Fore
SplineSet
126 300 m 1x9c
 126 649 l 1
 18 622 l 1
 18 687 l 1
 234 741 l 1
 234 300 l 1
 126 300 l 1x9c
63 -18 m 1
 604 741 l 1
 678 741 l 1
 137 -18 l 1
 63 -18 l 1
494 0 m 1x6c
 494 83 l 1
 516 108 529 121 543 134 c 2
 580 167 l 2
 667 246 686 274 686 319 c 0
 686 360 661 380 612 380 c 0
 578 380 543 370 497 349 c 1
 497 422 l 1
 550 438 593 445 638 445 c 0
 737 445 801 398 801 324 c 0
 801 275 781 246 706 185 c 2
 674 158 l 2
 636 127 613 101 607 83 c 1
 801 83 l 1
 801 0 l 1
 494 0 l 1x6c
EndSplineSet
EndChar
StartChar: threequarters
Encoding: 190 190 276
Width: 834
Flags: W
HStem: -18 20 0 20 110 81<522 645 441 441 740 786> 286 62<154 189 146.5 231> 679 62<165.5 183>
VStem: 229 112<610 643.5> 242 112<390 438> 645 95<0 110 0 110> 646 94<191 340 340 340>
LayerCount: 2
Fore
SplineSet
48 300 m 1x9a
 48 373 l 1
 95 356 130 348 163 348 c 0
 215 348 242 369 242 411 c 0x9b
 242 465 200 493 117 493 c 2
 88 493 l 1
 88 555 l 1
 110 555 l 2
 189 555 229 578 229 626 c 0
 229 661 206 679 160 679 c 0
 126 679 93 671 54 654 c 1
 54 720 l 1
 104 735 145 741 186 741 c 0
 288 741 341 705 341 637 c 0x9c
 341 583 311 551 240 528 c 1
 319 507 354 471 354 410 c 0
 354 331 288 286 174 286 c 0
 134 286 93 291 48 300 c 1x9a
126 -18 m 1
 667 741 l 1
 741 741 l 1
 200 -18 l 1
 126 -18 l 1
645 0 m 1x63
 645 110 l 1
 441 110 l 1
 441 191 l 1
 641 434 l 1
 740 434 l 1
 740 191 l 1x61
 786 191 l 1
 786 110 l 1
 740 110 l 1
 740 0 l 1x6080
 645 0 l 1x63
522 191 m 1
 646 191 l 1
 646 340 l 1x6080
 522 191 l 1
EndSplineSet
EndChar
StartChar: questiondown
Encoding: 191 191 235
Width: 611
Flags: MW
HStem: -204 96<299 367> 415 121<277 422 277 422>
VStem: 52 157<-46.5 0> 277 145<291 536 332 536 415 536 415 536>
LayerCount: 2
Fore
SplineSet
422 536 m 1
 422 415 l 1
 277 415 l 1
 277 536 l 1
 422 536 l 1
277 332 m 1
 421 332 l 1
 421 318 l 2
 421 238 398 195 324 139 c 2
 275 103 l 2
 232 70 209 30 209 -15 c 0
 209 -78 253 -108 345 -108 c 0
 421 -108 489 -95 564 -64 c 1
 564 -175 l 1
 479 -195 407 -204 327 -204 c 0
 143 -204 52 -147 52 -33 c 0
 52 33 76 64 171 122 c 2
 211 146 l 2
 264 179 277 206 277 291 c 2
 277 332 l 1
EndSplineSet
EndChar
StartChar: Agrave
Encoding: 192 192 2
Width: 722
Flags: MW
HStem: 0 20 193 96<227 451 227 488 190 451> 703 20<286 437 437 437>
LayerCount: 2
Fore
SplineSet
6 0 m 1
 286 723 l 1
 437 723 l 1
 716 0 l 1
 562 0 l 1
 488 193 l 1
 190 193 l 1
 116 0 l 1
 6 0 l 1
227 289 m 1
 451 289 l 1
 339 577 l 1
 227 289 l 1
455 783 m 1
 361 783 l 1
 205 940 l 1
 337 940 l 1
 455 783 l 1
EndSplineSet
EndChar
StartChar: Aacute
Encoding: 193 193 1
Width: 722
Flags: MW
HStem: 0 20 193 96<227 451 227 488 190 451> 703 20<286 437 437 437>
LayerCount: 2
Fore
SplineSet
6 0 m 1
 286 723 l 1
 437 723 l 1
 716 0 l 1
 562 0 l 1
 488 193 l 1
 190 193 l 1
 116 0 l 1
 6 0 l 1
227 289 m 1
 451 289 l 1
 339 577 l 1
 227 289 l 1
268 783 m 1
 386 940 l 1
 518 940 l 1
 361 783 l 1
 268 783 l 1
EndSplineSet
EndChar
StartChar: Acircumflex
Encoding: 194 194 3
Width: 722
Flags: MW
HStem: 0 20 193 96<227 451 227 488 190 451> 703 20<286 437 437 437>
LayerCount: 2
Fore
SplineSet
6 0 m 1
 286 723 l 1
 437 723 l 1
 716 0 l 1
 562 0 l 1
 488 193 l 1
 190 193 l 1
 116 0 l 1
 6 0 l 1
227 289 m 1
 451 289 l 1
 339 577 l 1
 227 289 l 1
177 783 m 1
 295 940 l 1
 428 940 l 1
 546 783 l 1
 458 783 l 1
 362 879 l 1
 360 879 l 1
 264 783 l 1
 177 783 l 1
EndSplineSet
EndChar
StartChar: Atilde
Encoding: 195 195 5
Width: 722
Flags: W
HStem: 0 20 193 96<227 451 227 488 190 451> 703 20<286 437 437 437> 783 90<424.5 439.5 424 468> 850 90<283.5 298.5 255 299.5>
LayerCount: 2
Fore
SplineSet
6 0 m 1xe8
 286 723 l 1
 437 723 l 1
 716 0 l 1
 562 0 l 1
 488 193 l 1
 190 193 l 1
 116 0 l 1
 6 0 l 1xe8
227 289 m 1
 451 289 l 1
 339 577 l 1
 227 289 l 1
262 783 m 1
 190 783 l 1
 192 892 222 940 288 940 c 0x08
 309 940 329 933 350 919 c 2
 368 906 l 1
 383 896 l 2
 406 880 419 873 429 873 c 0
 450 873 460 894 461 940 c 1
 533 940 l 1
 531 831 501 783 435 783 c 0x10
 414 783 395 789 373 804 c 2
 354 817 l 1
 350 819 l 2
 347 822 343 825 339 828 c 0
 316 844 305 850 294 850 c 0
 273 850 263 829 262 783 c 1
EndSplineSet
EndChar
StartChar: Aring
Encoding: 197 197 6
Width: 722
Flags: MW
HStem: 0 20 193 96<227 451 227 488 190 451> 703 20<286 437 328.5 392.5 437 437> 723 54<344 377 344 437 344 377 344 392.5> 899 54<344.5 377.5>
VStem: 247 54<821.5 855 821.5 870> 421 54<821 855>
LayerCount: 2
Fore
SplineSet
6 0 m 1xfe
 286 723 l 1
 437 723 l 1
 716 0 l 1
 562 0 l 1
 488 193 l 1
 190 193 l 1
 116 0 l 1
 6 0 l 1xfe
227 289 m 1
 451 289 l 1
 339 577 l 1
 227 289 l 1
361 953 m 0
 424 953 475 902 475 838 c 0
 475 773 425 723 360 723 c 0
 297 723 247 774 247 838 c 0
 247 902 297 953 361 953 c 0
361 899 m 0
 328 899 301 872 301 838 c 0
 301 805 328 777 360 777 c 0
 394 777 421 804 421 838 c 0
 421 872 394 899 361 899 c 0
EndSplineSet
EndChar
StartChar: AE
Encoding: 198 198 159
Width: 1000
Flags: MW
HStem: 0 103<616 970 616 970> 187 94<295 471 295 471 239 471> 322 100<616 893 616 893> 624 99<616 947 616 616>
VStem: 471 145<103 187 187 187 281 322 422 571 571 571>
LayerCount: 2
Fore
SplineSet
6 0 m 1
 444 723 l 1
 947 723 l 1
 947 624 l 1
 616 624 l 1
 616 422 l 1
 893 422 l 1
 893 322 l 1
 616 322 l 1
 616 103 l 1
 970 103 l 1
 970 0 l 1
 471 0 l 1
 471 187 l 1
 239 187 l 1
 126 0 l 1
 6 0 l 1
295 281 m 1
 471 281 l 1
 471 571 l 1
 295 281 l 1
EndSplineSet
EndChar
StartChar: Ccedilla
Encoding: 199 199 8
Width: 722
Flags: W
HStem: -211 52<356.5 431.5> -18 104<375 479.5> 0 20 642 99<366 480.5 308 482>
VStem: 39 160<272 457 272 487> 422 97<-139 -116>
LayerCount: 2
Fore
SplineSet
686 140 m 1x5c
 686 29 l 1
 611 -3 530 -18 429 -18 c 0
 177 -18 39 116 39 362 c 0
 39 612 176 741 440 741 c 0
 521 741 596 732 680 713 c 1
 680 595 l 1
 583 628 515 642 449 642 c 0
 283 642 199 549 199 365 c 0
 199 179 287 86 463 86 c 0
 540 86 610 103 686 140 c 1x5c
376 0 m 1xac
 443 0 l 1
 406 -55 l 1
 485 -65 519 -88 519 -131 c 0
 519 -176 466 -211 397 -211 c 0
 371 -211 342 -206 306 -196 c 1
 306 -152 l 1
 329 -157 349 -159 364 -159 c 0
 402 -159 422 -149 422 -129 c 0
 422 -103 390 -89 327 -89 c 2
 317 -89 l 1
 376 0 l 1xac
EndSplineSet
EndChar
StartChar: Eacute
Encoding: 201 201 13
Width: 667
Flags: MW
HStem: 0 103<234 637 234 637> 325 97<234 560 234 560> 624 99<234 614 234 234>
VStem: 84 150<103 325 422 624>
LayerCount: 2
Fore
SplineSet
84 0 m 1
 84 723 l 1
 614 723 l 1
 614 624 l 1
 234 624 l 1
 234 422 l 1
 560 422 l 1
 560 325 l 1
 234 325 l 1
 234 103 l 1
 637 103 l 1
 637 0 l 1
 84 0 l 1
271 783 m 1
 388 940 l 1
 521 940 l 1
 364 783 l 1
 271 783 l 1
EndSplineSet
EndChar
StartChar: Ecircumflex
Encoding: 202 202 15
Width: 667
Flags: MW
HStem: 0 103<234 637 234 637> 325 97<234 560 234 560> 624 99<234 614 234 234>
VStem: 84 150<103 325 422 624>
LayerCount: 2
Fore
SplineSet
84 0 m 1
 84 723 l 1
 614 723 l 1
 614 624 l 1
 234 624 l 1
 234 422 l 1
 560 422 l 1
 560 325 l 1
 234 325 l 1
 234 103 l 1
 637 103 l 1
 637 0 l 1
 84 0 l 1
171 783 m 1
 289 940 l 1
 422 940 l 1
 540 783 l 1
 453 783 l 1
 356 879 l 1
 355 879 l 1
 259 783 l 1
 171 783 l 1
EndSplineSet
EndChar
StartChar: Edieresis
Encoding: 203 203 12
Width: 667
Flags: W
HStem: 0 103<234 637 234 637> 325 97<234 560 234 560> 624 99<234 614 234 234> 784 108<192 300 192 300 397 506 192 397>
VStem: 84 150<103 325 422 624> 192 108<784 892 784 892> 397 109<784 892 784 892>
LayerCount: 2
Fore
SplineSet
84 0 m 1xf8
 84 723 l 1
 614 723 l 1
 614 624 l 1
 234 624 l 1
 234 422 l 1
 560 422 l 1
 560 325 l 1
 234 325 l 1
 234 103 l 1
 637 103 l 1
 637 0 l 1
 84 0 l 1xf8
192 784 m 1xf6
 192 892 l 1
 300 892 l 1
 300 784 l 1
 192 784 l 1xf6
397 784 m 1
 397 892 l 1
 506 892 l 1
 506 784 l 1
 397 784 l 1
EndSplineSet
EndChar
StartChar: Igrave
Encoding: 204 204 22
Width: 278
Flags: MW
HStem: 0 20 703 20<63 213 213 213>
VStem: 63 150<0 723 0 723>
LayerCount: 2
Fore
SplineSet
63 0 m 1
 63 723 l 1
 213 723 l 1
 213 0 l 1
 63 0 l 1
250 783 m 1
 157 783 l 1
 0 940 l 1
 132 940 l 1
 250 783 l 1
EndSplineSet
EndChar
StartChar: Iacute
Encoding: 205 205 21
Width: 278
Flags: MW
HStem: 0 20 703 20<64 214 214 214>
VStem: 64 150<0 723 0 723>
LayerCount: 2
Fore
SplineSet
64 0 m 1
 64 723 l 1
 214 723 l 1
 214 0 l 1
 64 0 l 1
28 783 m 1
 146 940 l 1
 278 940 l 1
 121 783 l 1
 28 783 l 1
EndSplineSet
EndChar
StartChar: Icircumflex
Encoding: 206 206 23
Width: 278
Flags: MW
HStem: 0 20 703 20<64 214 214 214>
VStem: 64 150<0 723 0 723>
LayerCount: 2
Fore
SplineSet
64 0 m 1
 64 723 l 1
 214 723 l 1
 214 0 l 1
 64 0 l 1
-45 783 m 1
 73 940 l 1
 206 940 l 1
 324 783 l 1
 236 783 l 1
 140 879 l 1
 139 879 l 1
 42 783 l 1
 -45 783 l 1
EndSplineSet
EndChar
StartChar: Idieresis
Encoding: 207 207 20
Width: 278
Flags: W
HStem: 0 20 703 20<64 214 214 214> 784 108<-18 90 -18 90 186 295 -18 186>
VStem: -18 108<784 892 784 892> 64 150<0 723 0 723> 186 109<784 892 784 892>
LayerCount: 2
Fore
SplineSet
64 0 m 1xe8
 64 723 l 1
 214 723 l 1
 214 0 l 1
 64 0 l 1xe8
-18 784 m 1xf4
 -18 892 l 1
 90 892 l 1
 90 784 l 1
 -18 784 l 1xf4
186 784 m 1
 186 892 l 1
 295 892 l 1
 295 784 l 1
 186 784 l 1
EndSplineSet
EndChar
StartChar: Ntilde
Encoding: 209 209 29
Width: 722
Flags: W
HStem: 0 20 703 20<84 217 217 217 516 637 637 637> 783 90<432.5 447.5 432 476> 850 90<292 306.5 263 308>
VStem: 84 121<0 494 0 723> 516 121<229 723 0 723>
LayerCount: 2
Fore
SplineSet
84 0 m 1xdc
 84 723 l 1
 217 723 l 1
 516 229 l 1
 516 723 l 1
 637 723 l 1
 637 0 l 1
 502 0 l 1
 205 494 l 1
 205 0 l 1
 84 0 l 1xdc
270 783 m 1
 198 783 l 1
 200 892 230 940 296 940 c 0x1c
 317 940 337 933 358 919 c 2
 376 906 l 1
 392 896 l 2
 414 880 427 873 437 873 c 0
 458 873 468 894 469 940 c 1
 541 940 l 1
 539 831 509 783 443 783 c 0x2c
 422 783 403 789 381 804 c 2
 362 817 l 1
 359 819 l 1
 347 828 l 2
 325 844 313 850 303 850 c 0
 281 850 271 829 270 783 c 1
EndSplineSet
EndChar
StartChar: Ocircumflex
Encoding: 212 212 33
Width: 778
Flags: MW
HStem: -18 100<328 448.5 328 496.5> 642 99<329 449>
VStem: 39 160<274 450.5 274 480.5> 579 160<273.5 451>
LayerCount: 2
Fore
SplineSet
389 741 m 0
 608 741 739 599 739 363 c 0
 739 122 609 -18 384 -18 c 0
 170 -18 39 126 39 362 c 0
 39 599 170 741 389 741 c 0
389 642 m 0
 269 642 199 539 199 362 c 0
 199 186 269 82 387 82 c 0
 510 82 579 184 579 363 c 0
 579 539 509 642 389 642 c 0
205 783 m 1
 322 940 l 1
 456 940 l 1
 573 783 l 1
 486 783 l 1
 390 879 l 1
 388 879 l 1
 292 783 l 1
 205 783 l 1
EndSplineSet
EndChar
StartChar: Otilde
Encoding: 213 213 34
Width: 778
Flags: W
HStem: -18 100<328 448.5 328 496.5> 642 99<329 449> 783 90<452.5 466.5 451.5 495.5> 850 90<311 325.5 282 327>
VStem: 39 160<274 450.5 274 480.5> 579 160<273.5 451>
LayerCount: 2
Fore
SplineSet
389 741 m 0xdc
 608 741 739 599 739 363 c 0
 739 122 609 -18 384 -18 c 0
 170 -18 39 126 39 362 c 0
 39 599 170 741 389 741 c 0xdc
389 642 m 0
 269 642 199 539 199 362 c 0
 199 186 269 82 387 82 c 0
 510 82 579 184 579 363 c 0
 579 539 509 642 389 642 c 0
289 783 m 1
 217 783 l 1
 219 892 249 940 315 940 c 0x1c
 336 940 357 933 377 919 c 2
 396 906 l 1
 411 896 l 2
 433 880 447 873 456 873 c 0
 477 873 487 894 488 940 c 1
 560 940 l 1
 558 831 528 783 463 783 c 0x2c
 442 783 423 789 401 804 c 2
 382 817 l 2
 375 822 373 823 367 828 c 0
 346 843 332 850 322 850 c 0
 300 850 290 829 289 783 c 1
EndSplineSet
EndChar
StartChar: Odieresis
Encoding: 214 214 30
Width: 778
Flags: MW
HStem: -18 100<328 448.5 328 496.5> 642 99<329 449> 784 108<232 340 232 340 437 546 232 437>
VStem: 39 160<274 450.5 274 480.5> 232 108<784 892 784 892> 437 109<784 892 784 892> 579 160<273.5 451>
LayerCount: 2
Fore
SplineSet
389 741 m 0
 608 741 739 599 739 363 c 0
 739 122 609 -18 384 -18 c 0
 170 -18 39 126 39 362 c 0
 39 599 170 741 389 741 c 0
389 642 m 0
 269 642 199 539 199 362 c 0
 199 186 269 82 387 82 c 0
 510 82 579 184 579 363 c 0
 579 539 509 642 389 642 c 0
232 784 m 1
 232 892 l 1
 340 892 l 1
 340 784 l 1
 232 784 l 1
437 784 m 1
 437 892 l 1
 546 892 l 1
 546 784 l 1
 437 784 l 1
EndSplineSet
EndChar
StartChar: multiply
Encoding: 215 215 261
Width: 584
Flags: MW
HStem: 516 20<113 113 470 470>
LayerCount: 2
Fore
SplineSet
53 119 m 1
 232 297 l 1
 53 476 l 1
 113 536 l 1
 291 357 l 1
 470 536 l 1
 530 476 l 1
 351 297 l 1
 530 119 l 1
 470 59 l 1
 291 238 l 1
 113 59 l 1
 53 119 l 1
EndSplineSet
EndChar
StartChar: Oslash
Encoding: 216 216 161
Width: 778
Flags: MW
HStem: -18 20 721 20<280.5 434 646 739 739 739>
LayerCount: 2
Fore
SplineSet
222 211 m 1
 518 581 l 1
 483 624 444 642 389 642 c 0
 269 642 199 539 199 364 c 0
 199 308 206 261 222 211 c 1
556 512 m 1
 259 142 l 1
 295 99 334 81 389 81 c 0
 509 81 579 184 579 359 c 0
 579 414 572 460 556 512 c 1
39 -18 m 1
 126 91 l 1
 65 173 39 253 39 364 c 0
 39 600 170 741 391 741 c 0
 477 741 540 723 600 683 c 1
 646 741 l 1
 739 741 l 1
 652 632 l 1
 713 551 739 471 739 360 c 0
 739 123 608 -18 387 -18 c 0
 301 -18 238 0 178 41 c 1
 132 -18 l 1
 39 -18 l 1
EndSplineSet
EndChar
StartChar: Ugrave
Encoding: 217 217 44
Width: 722
Flags: MW
HStem: -18 100<322 419 322 421> 703 20<78 228 228 228 512 643 643 643>
VStem: 78 150<280 723> 512 131<269 279 279 723>
LayerCount: 2
Fore
SplineSet
78 723 m 1
 228 723 l 1
 228 280 l 2
 228 142 272 82 372 82 c 0
 466 82 512 144 512 269 c 2
 512 723 l 1
 643 723 l 1
 643 279 l 2
 643 177 630 121 597 77 c 0
 549 14 472 -18 370 -18 c 0
 262 -18 178 16 127 81 c 0
 92 126 78 183 78 280 c 2
 78 723 l 1
464 783 m 1
 370 783 l 1
 214 940 l 1
 346 940 l 1
 464 783 l 1
EndSplineSet
EndChar
StartChar: Udieresis
Encoding: 220 220 42
Width: 722
Flags: W
HStem: -18 100<322 419 322 421> 703 20<78 228 228 228 512 643 643 643> 784 108<214 322 214 322 419 528 214 419>
VStem: 78 150<280 723> 214 108<784 892 784 892> 419 109<784 892 784 892> 512 131<269 279 279 723>
LayerCount: 2
Fore
SplineSet
78 723 m 1xf2
 228 723 l 1
 228 280 l 2
 228 142 272 82 372 82 c 0
 466 82 512 144 512 269 c 2
 512 723 l 1
 643 723 l 1
 643 279 l 2
 643 177 630 121 597 77 c 0
 549 14 472 -18 370 -18 c 0
 262 -18 178 16 127 81 c 0
 92 126 78 183 78 280 c 2
 78 723 l 1xf2
214 784 m 1xec
 214 892 l 1
 322 892 l 1
 322 784 l 1
 214 784 l 1xec
419 784 m 1
 419 892 l 1
 528 892 l 1
 528 784 l 1
 419 784 l 1
EndSplineSet
EndChar
StartChar: Yacute
Encoding: 221 221 48
Width: 667
Flags: MW
HStem: 0 20 703 20<14 181 181 181 535 654 654 654>
VStem: 254 150<0 303 303 303>
LayerCount: 2
Fore
SplineSet
254 0 m 1
 254 303 l 1
 14 723 l 1
 181 723 l 1
 353 418 l 1
 535 723 l 1
 654 723 l 1
 404 304 l 1
 404 0 l 1
 254 0 l 1
264 783 m 1
 382 940 l 1
 514 940 l 1
 358 783 l 1
 264 783 l 1
EndSplineSet
EndChar
StartChar: Thorn
Encoding: 222 222 165
Width: 667
Flags: MW
HStem: 0 20 145 100<231 298 298 332 231 298> 484 100<231 327 231 374> 703 20<84 231 231 231>
VStem: 84 147<0 145 245 484 584 723> 488 154<334.5 418>
LayerCount: 2
Fore
SplineSet
84 0 m 1
 84 723 l 1
 231 723 l 1
 231 584 l 1
 374 584 l 2
 477 584 526 576 562 555 c 0
 616 523 642 469 642 391 c 0
 642 228 537 145 332 145 c 2
 231 145 l 1
 231 0 l 1
 84 0 l 1
231 245 m 1
 298 245 l 2
 426 245 488 289 488 380 c 0
 488 456 445 484 327 484 c 2
 231 484 l 1
 231 245 l 1
EndSplineSet
EndChar
StartChar: germandbls
Encoding: 223 223 195
Width: 611
Flags: W
HStem: -12 90<369.5 393 359.5 442> 0 20 694 89<269 319.5>
VStem: 72 145<0 552 552 590 0 629> 369 127<639.5 648.5> 439 135<118 148>
LayerCount: 2
Fore
SplineSet
72 0 m 1x78
 72 552 l 2
 72 706 145 783 292 783 c 0
 417 783 496 734 496 655 c 0xb8
 496 624 485 594 464 564 c 2
 434 522 l 2
 412 490 400 467 400 454 c 0
 400 440 418 410 448 374 c 2
 490 325 l 2
 546 258 574 199 574 148 c 0
 574 52 499 -12 385 -12 c 0
 354 -12 321 -7 277 3 c 1
 277 98 l 1
 321 84 348 78 371 78 c 0
 415 78 439 99 439 137 c 0xa4
 439 159 426 185 398 218 c 2
 350 275 l 1
 312 319 l 2
 293 341 282 374 282 405 c 0
 282 428 289 454 301 475 c 2
 324 514 l 1
 348 557 l 2
 363 583 369 604 369 627 c 0
 369 670 343 694 296 694 c 0
 242 694 217 661 217 590 c 2
 217 0 l 1
 72 0 l 1x78
EndSplineSet
EndChar
StartChar: atilde
Encoding: 227 227 71
Width: 556
Flags: W
HStem: -12 98<144.5 261.5> 459 89<234.5 270.5> 626 91<339 353.5 338.5 382.5> 693 90<198 212.5 169 214>
VStem: 34 139<136.5 186 136.5 205> 327 139<58 143 135 143 143 244 244 244 327 376 376 381>
LayerCount: 2
Fore
SplineSet
526 83 m 1
 529 1 l 1
 494 -8 472 -12 447 -12 c 0
 388 -12 353 10 333 58 c 1
 327 58 l 1
 288 8 248 -12 191 -12 c 0
 98 -12 34 51 34 144 c 0
 34 266 119 327 288 327 c 2
 327 327 l 1
 327 376 l 2
 327 432 299 459 242 459 c 0
 192 459 143 444 81 411 c 1
 81 511 l 1
 144 536 202 548 267 548 c 0
 399 548 466 492 466 381 c 2
 466 143 l 2
 466 102 479 81 506 81 c 0xcc
 511 81 520 82 526 83 c 1
327 135 m 1
 327 244 l 1
 293 244 l 2
 213 244 173 215 173 157 c 0
 173 116 203 86 245 86 c 0
 278 86 303 101 327 135 c 1
176 626 m 1
 104 626 l 1
 106 736 136 783 202 783 c 0x10
 223 783 243 776 264 762 c 2
 283 750 l 1
 298 739 l 2
 319 724 334 717 343 717 c 0
 364 717 374 738 375 783 c 1
 447 783 l 1
 445 674 415 626 350 626 c 0x20
 328 626 310 632 288 647 c 2
 269 660 l 2
 261 666 256 669 253 671 c 0
 234 686 219 693 209 693 c 0x10
 187 693 177 672 176 626 c 1
EndSplineSet
EndChar
StartChar: adieresis
Encoding: 228 228 66
Width: 556
Flags: MW
HStem: -12 98<144.5 261.5> 459 89<234.5 270.5> 627 108<119 227 119 227 323 432 119 323>
VStem: 34 108 34 139<136.5 186 136.5 205> 238 109 327 139<58 143 135 143 143 244 244 244 327 376 376 381>
LayerCount: 2
Fore
SplineSet
526 83 m 1
 529 1 l 1
 494 -8 472 -12 447 -12 c 0
 388 -12 353 10 333 58 c 1
 327 58 l 1
 288 8 248 -12 191 -12 c 0
 98 -12 34 51 34 144 c 0
 34 266 119 327 288 327 c 2
 327 327 l 1
 327 376 l 2
 327 432 299 459 242 459 c 0
 192 459 143 444 81 411 c 1
 81 511 l 1
 144 536 202 548 267 548 c 0
 399 548 466 492 466 381 c 2
 466 143 l 2
 466 102 479 81 506 81 c 0xca
 511 81 520 82 526 83 c 1
327 135 m 1
 327 244 l 1
 293 244 l 2
 213 244 173 215 173 157 c 0
 173 116 203 86 245 86 c 0
 278 86 303 101 327 135 c 1
119 627 m 1
 119 735 l 1
 227 735 l 1
 227 627 l 1x34
 119 627 l 1
323 627 m 1
 323 735 l 1
 432 735 l 1
 432 627 l 1
 323 627 l 1
EndSplineSet
EndChar
StartChar: aring
Encoding: 229 229 72
Width: 556
Flags: MW
HStem: -12 98<144.5 261.5> 459 89<234.5 270.5> 626 54<253 286.5 253 301.5> 802 54<253.5 287>
VStem: 34 54 34 139<136.5 186 136.5 205> 209 54 327 139<58 143 135 143 143 244 244 244 327 376 376 381>
LayerCount: 2
Fore
SplineSet
526 83 m 1
 529 1 l 1
 494 -8 472 -12 447 -12 c 0
 388 -12 353 10 333 58 c 1
 327 58 l 1
 288 8 248 -12 191 -12 c 0
 98 -12 34 51 34 144 c 0
 34 266 119 327 288 327 c 2
 327 327 l 1
 327 376 l 2
 327 432 299 459 242 459 c 0
 192 459 143 444 81 411 c 1
 81 511 l 1
 144 536 202 548 267 548 c 0
 399 548 466 492 466 381 c 2
 466 143 l 2
 466 102 479 81 506 81 c 0xc5
 511 81 520 82 526 83 c 1
327 135 m 1
 327 244 l 1
 293 244 l 2
 213 244 173 215 173 157 c 0
 173 116 203 86 245 86 c 0
 278 86 303 101 327 135 c 1
270 856 m 0
 334 856 385 805 385 741 c 0
 385 676 334 626 269 626 c 0
 206 626 156 677 156 741 c 0x3a
 156 805 206 856 270 856 c 0
270 802 m 0
 237 802 210 775 210 741 c 0
 210 708 237 680 269 680 c 0
 304 680 331 707 331 741 c 0
 331 775 304 802 270 802 c 0
EndSplineSet
EndChar
StartChar: ae
Encoding: 230 230 192
Width: 889
Flags: MW
HStem: -12 98<227 238.5 643 664> 239 82<496 694 495 836 496 496> 459 89<244.5 289.5 580 633>
VStem: 34 139<136.5 186 136.5 201>
LayerCount: 2
Fore
SplineSet
836 120 m 1
 836 18 l 1
 764 -2 696 -12 632 -12 c 0
 526 -12 457 19 393 94 c 1
 337 20 278 -12 199 -12 c 0
 100 -12 34 49 34 142 c 0
 34 260 134 325 315 325 c 2
 356 325 l 1
 356 376 l 2
 356 432 323 459 256 459 c 0
 199 459 146 445 82 412 c 1
 82 511 l 1
 153 536 215 548 274 548 c 0
 336 548 385 531 444 489 c 1
 499 531 549 548 611 548 c 0
 765 548 833 454 836 239 c 1
 496 239 l 1
 504 178 518 148 551 121 c 0
 579 98 618 86 668 86 c 0
 718 86 768 96 836 120 c 1
356 135 m 1
 356 244 l 1
 319 244 l 2
 222 244 173 215 173 157 c 0
 173 116 205 86 249 86 c 0
 284 86 317 101 356 135 c 1
495 321 m 1
 694 321 l 1
 692 417 664 459 602 459 c 0
 539 459 506 417 495 321 c 1
EndSplineSet
EndChar
StartChar: ccedilla
Encoding: 231 231 76
Width: 556
Flags: MW
HStem: -211 52<258.5 334> -12 96<311.5 358.5> 0 20 451 97<298.5 371.5>
VStem: 36 154<212 330 212 362> 152 97
LayerCount: 2
Fore
SplineSet
515 112 m 1
 515 12 l 1
 445 -4 385 -12 332 -12 c 0
 143 -12 36 90 36 270 c 0
 36 454 139 548 343 548 c 0
 400 548 451 542 511 527 c 1
 511 423 l 1
 436 443 391 451 352 451 c 0
 245 451 190 389 190 271 c 0
 190 153 256 84 367 84 c 0x58
 406 84 456 93 515 112 c 1
279 0 m 1
 345 0 l 1
 308 -55 l 1
 387 -65 421 -88 421 -131 c 0
 421 -176 368 -211 300 -211 c 0
 273 -211 244 -206 208 -196 c 1
 208 -152 l 1
 231 -157 251 -159 266 -159 c 0
 304 -159 324 -149 324 -129 c 0
 324 -103 292 -89 229 -89 c 2
 220 -89 l 1xa4
 279 0 l 1
EndSplineSet
EndChar
StartChar: egrave
Encoding: 232 232 80
Width: 556
Flags: MW
HStem: -12 98<326.5 354.5> 239 82<188 361 187 503 188 188> 458 90<255.5 309.5>
LayerCount: 2
Fore
SplineSet
503 120 m 1
 503 18 l 1
 440 -3 384 -12 325 -12 c 0
 145 -12 36 96 36 275 c 0
 36 441 132 548 282 548 c 0
 436 548 501 457 503 239 c 1
 188 239 l 1
 196 176 211 145 243 118 c 0
 269 97 304 86 349 86 c 0xe0
 395 86 441 96 503 120 c 1
187 321 m 1
 361 321 l 1
 359 417 336 458 283 458 c 0
 228 458 199 416 187 321 c 1
379 626 m 1
 286 626 l 1
 129 783 l 1
 261 783 l 1
 379 626 l 1
EndSplineSet
EndChar
StartChar: ecircumflex
Encoding: 234 234 81
Width: 556
Flags: MW
HStem: -12 98<326.5 354.5> 239 82<188 361 187 503 188 188> 458 90<255.5 309.5>
LayerCount: 2
Fore
SplineSet
503 120 m 1
 503 18 l 1
 440 -3 384 -12 325 -12 c 0
 145 -12 36 96 36 275 c 0
 36 441 132 548 282 548 c 0
 436 548 501 457 503 239 c 1
 188 239 l 1
 196 176 211 145 243 118 c 0
 269 97 304 86 349 86 c 0xe0
 395 86 441 96 503 120 c 1
187 321 m 1
 361 321 l 1
 359 417 336 458 283 458 c 0
 228 458 199 416 187 321 c 1
102 626 m 1
 220 783 l 1
 353 783 l 1
 471 626 l 1
 383 626 l 1
 287 722 l 1
 286 722 l 1
 189 626 l 1
 102 626 l 1
EndSplineSet
EndChar
StartChar: igrave
Encoding: 236 236 88
Width: 278
Flags: MW
HStem: 0 20 516 20<66 211 211 211>
VStem: 66 145<0 536 0 536>
LayerCount: 2
Fore
SplineSet
66 0 m 1
 66 536 l 1
 211 536 l 1
 211 0 l 1
 66 0 l 1
250 626 m 1
 157 626 l 1
 0 783 l 1
 132 783 l 1
 250 626 l 1
EndSplineSet
EndChar
StartChar: iacute
Encoding: 237 237 87
Width: 278
Flags: MW
HStem: 0 20 516 20<67 212 212 212>
VStem: 67 145<0 536 0 536>
LayerCount: 2
Fore
SplineSet
67 0 m 1
 67 536 l 1
 212 536 l 1
 212 0 l 1
 67 0 l 1
28 626 m 1
 146 783 l 1
 278 783 l 1
 121 626 l 1
 28 626 l 1
EndSplineSet
EndChar
StartChar: icircumflex
Encoding: 238 238 89
Width: 278
Flags: MW
HStem: 0 20 516 20<67 212 212 212>
VStem: 67 145<0 536 0 536>
LayerCount: 2
Fore
SplineSet
67 0 m 1
 67 536 l 1
 212 536 l 1
 212 0 l 1
 67 0 l 1
-45 626 m 1
 73 783 l 1
 206 783 l 1
 324 626 l 1
 236 626 l 1
 140 722 l 1
 139 722 l 1
 42 626 l 1
 -45 626 l 1
EndSplineSet
EndChar
StartChar: idieresis
Encoding: 239 239 86
Width: 278
Flags: W
HStem: 0 20 516 20<66 211 211 211> 627 108<-18 90 -18 90 186 295 -18 186>
VStem: -18 108<627 735 627 735> 66 145<0 536 0 536> 186 109<627 735 627 735>
LayerCount: 2
Fore
SplineSet
66 0 m 1xe8
 66 536 l 1
 211 536 l 1
 211 0 l 1
 66 0 l 1xe8
-18 627 m 1xf4
 -18 735 l 1
 90 735 l 1
 90 627 l 1
 -18 627 l 1xf4
186 627 m 1
 186 735 l 1
 295 735 l 1
 295 627 l 1
 186 627 l 1
EndSplineSet
EndChar
StartChar: eth
Encoding: 240 240 201
Width: 611
Flags: MW
HStem: -12 90<270.5 345 270.5 385> 434 90<272 295 213 349.5>
VStem: 36 150<201.5 310 201.5 334.5> 430 145<209 322.5>
LayerCount: 2
Fore
SplineSet
133 520 m 1
 81 584 l 1
 172 661 l 1
 127 674 92 680 52 680 c 2
 36 681 l 1
 36 771 l 1
 116 771 189 759 259 734 c 1
 365 826 l 1
 418 761 l 1
 340 694 l 1
 491 606 575 462 575 290 c 0
 575 108 467 -12 303 -12 c 0
 144 -12 36 96 36 257 c 0
 36 412 141 524 285 524 c 0
 305 524 328 521 354 515 c 1
 333 562 300 596 253 620 c 1
 133 520 l 1
310 434 m 0
 234 434 186 365 186 255 c 0
 186 148 234 78 307 78 c 0
 383 78 430 151 430 267 c 0
 430 378 389 434 310 434 c 0
EndSplineSet
EndChar
StartChar: ntilde
Encoding: 241 241 94
Width: 611
Flags: W
HStem: 0 20 434 114<323 448> 516 20<72 217 217 217> 626 91<373 387.5 372.5 416.5> 693 90<232 246.5 203 248>
VStem: 72 145<0 350 447 536> 400 145<0 343 343 377>
LayerCount: 2
Fore
SplineSet
72 0 m 1
 72 536 l 1
 217 536 l 1xa6
 217 447 l 1
 278 518 332 548 400 548 c 0
 496 548 545 491 545 379 c 2
 545 0 l 1
 400 0 l 1
 400 343 l 2
 400 411 386 434 343 434 c 0
 303 434 265 408 217 350 c 1
 217 0 l 1xc6
 72 0 l 1
210 626 m 1
 138 626 l 1
 140 736 170 783 236 783 c 0x08
 257 783 277 776 298 762 c 2
 317 750 l 1
 332 739 l 2
 353 724 368 717 377 717 c 0
 398 717 408 738 409 783 c 1
 481 783 l 1
 479 674 449 626 384 626 c 0x10
 362 626 344 632 322 647 c 2
 303 660 l 2
 295 666 290 669 287 671 c 0
 268 686 253 693 243 693 c 0x08
 221 693 211 672 210 626 c 1
EndSplineSet
EndChar
StartChar: oacute
Encoding: 243 243 96
Width: 611
Flags: MW
HStem: -12 90<269.5 341 269.5 386.5> 458 90<269.5 341>
VStem: 36 153<210 326.5 210 353.5> 422 153<210 327>
LayerCount: 2
Fore
SplineSet
305 548 m 0
 469 548 575 439 575 269 c 0
 575 96 470 -12 303 -12 c 0
 141 -12 36 99 36 268 c 0xf0
 36 439 141 548 305 548 c 0
305 458 m 0
 234 458 189 385 189 268 c 0
 189 152 234 78 305 78 c 0
 377 78 422 151 422 269 c 0
 422 385 377 458 305 458 c 0
212 626 m 1
 330 783 l 1
 462 783 l 1
 305 626 l 1
 212 626 l 1
EndSplineSet
EndChar
StartChar: ocircumflex
Encoding: 244 244 98
Width: 611
Flags: MW
HStem: -12 90<269.5 341 269.5 386.5> 458 90<269.5 341>
VStem: 36 153<210 326.5 210 353.5> 422 153<210 327>
LayerCount: 2
Fore
SplineSet
305 548 m 0
 469 548 575 439 575 269 c 0
 575 96 470 -12 303 -12 c 0
 141 -12 36 99 36 268 c 0xf0
 36 439 141 548 305 548 c 0
305 458 m 0
 234 458 189 385 189 268 c 0
 189 152 234 78 305 78 c 0
 377 78 422 151 422 269 c 0
 422 385 377 458 305 458 c 0
121 626 m 1
 239 783 l 1
 372 783 l 1
 490 626 l 1
 402 626 l 1
 306 722 l 1
 305 722 l 1
 208 626 l 1
 121 626 l 1
EndSplineSet
EndChar
StartChar: otilde
Encoding: 245 245 99
Width: 611
Flags: W
HStem: -12 90<269.5 341 269.5 386.5> 458 90<269.5 341> 626 91<369 383.5 368.5 412.5> 693 90<228 242.5 199 244>
VStem: 36 153<210 326.5 210 353.5> 422 153<210 327>
LayerCount: 2
Fore
SplineSet
305 548 m 0
 469 548 575 439 575 269 c 0
 575 96 470 -12 303 -12 c 0
 141 -12 36 99 36 268 c 0xcc
 36 439 141 548 305 548 c 0
305 458 m 0
 234 458 189 385 189 268 c 0
 189 152 234 78 305 78 c 0
 377 78 422 151 422 269 c 0
 422 385 377 458 305 458 c 0
206 626 m 1
 134 626 l 1
 136 736 166 783 232 783 c 0x10
 253 783 273 776 294 762 c 2
 313 750 l 1
 328 739 l 2
 349 724 364 717 373 717 c 0
 394 717 404 738 405 783 c 1
 477 783 l 1
 475 674 445 626 380 626 c 0x20
 358 626 340 632 318 647 c 2
 299 660 l 2
 291 666 286 669 283 671 c 0
 264 686 249 693 239 693 c 0x10
 217 693 207 672 206 626 c 1
EndSplineSet
EndChar
StartChar: odieresis
Encoding: 246 246 95
Width: 611
Flags: MW
HStem: -12 90<269.5 341 269.5 386.5> 458 90<269.5 341> 627 108<149 257 149 257 353 462 149 353>
VStem: 36 108 36 153<210 326.5 210 353.5> 240 109 422 153<210 327>
LayerCount: 2
Fore
SplineSet
305 548 m 0
 469 548 575 439 575 269 c 0
 575 96 470 -12 303 -12 c 0
 141 -12 36 99 36 268 c 0xca
 36 439 141 548 305 548 c 0
305 458 m 0
 234 458 189 385 189 268 c 0
 189 152 234 78 305 78 c 0
 377 78 422 151 422 269 c 0
 422 385 377 458 305 458 c 0
149 627 m 1
 149 735 l 1
 257 735 l 1
 257 627 l 1x34
 149 627 l 1
353 627 m 1
 353 735 l 1
 462 735 l 1
 462 627 l 1
 353 627 l 1
EndSplineSet
EndChar
StartChar: divide
Encoding: 247 247 262
Width: 584
Flags: MW
HStem: 18 121<232 353 232 353> 248 84<51 533 51 533> 440 120<232 353 232 353>
VStem: 232 121<18 139 18 139 440 560>
LayerCount: 2
Fore
SplineSet
232 440 m 1
 232 560 l 1
 353 560 l 1
 353 440 l 1
 232 440 l 1
232 18 m 1
 232 139 l 1
 353 139 l 1
 353 18 l 1
 232 18 l 1
51 248 m 1
 51 332 l 1
 533 332 l 1
 533 248 l 1
 51 248 l 1
EndSplineSet
EndChar
StartChar: oslash
Encoding: 248 248 194
Width: 611
Flags: MW
HStem: -12 91<290 341.5 290 388> 458 90<270 321>
VStem: 36 154<256 327 256 354> 422 153<209.5 280.5>
LayerCount: 2
Fore
SplineSet
36 -12 m 1
 103 71 l 1
 56 129 36 188 36 269 c 0
 36 439 141 548 304 548 c 0
 364 548 409 536 457 509 c 1
 489 548 l 1
 575 548 l 1
 508 466 l 1
 555 406 575 347 575 267 c 0
 575 97 470 -12 306 -12 c 0
 248 -12 202 0 154 28 c 1
 121 -12 l 1
 36 -12 l 1
198 188 m 1
 383 417 l 1
 361 445 337 458 305 458 c 0
 235 458 190 384 190 270 c 0
 190 242 192 218 198 188 c 1
412 348 m 1
 227 120 l 1
 249 92 274 79 306 79 c 0
 377 79 422 152 422 267 c 0
 422 294 419 319 412 348 c 1
EndSplineSet
EndChar
StartChar: uacute
Encoding: 250 250 107
Width: 611
Flags: W
HStem: -12 114<162.5 288> 0 20 516 20<66 211 211 211 394 539 539 539>
VStem: 66 145<159 193 193 536> 394 145<0 89 89 89 186 536 0 536>
LayerCount: 2
Fore
SplineSet
394 0 m 1
 394 89 l 1
 333 18 279 -12 210 -12 c 0
 115 -12 66 45 66 157 c 2
 66 536 l 1
 211 536 l 1
 211 193 l 2
 211 125 225 102 268 102 c 0xb8
 308 102 345 127 394 186 c 1
 394 536 l 1
 539 536 l 1
 539 0 l 1x78
 394 0 l 1
209 626 m 1
 327 783 l 1
 459 783 l 1
 302 626 l 1
 209 626 l 1
EndSplineSet
EndChar
StartChar: ucircumflex
Encoding: 251 251 109
Width: 611
Flags: W
HStem: -12 114<162.5 288> 0 20 516 20<66 211 211 211 394 539 539 539>
VStem: 66 145<159 193 193 536> 394 145<0 89 89 89 186 536 0 536>
LayerCount: 2
Fore
SplineSet
394 0 m 1
 394 89 l 1
 333 18 279 -12 210 -12 c 0
 115 -12 66 45 66 157 c 2
 66 536 l 1
 211 536 l 1
 211 193 l 2
 211 125 225 102 268 102 c 0xb8
 308 102 345 127 394 186 c 1
 394 536 l 1
 539 536 l 1
 539 0 l 1x78
 394 0 l 1
118 626 m 1
 236 783 l 1
 369 783 l 1
 487 626 l 1
 399 626 l 1
 303 722 l 1
 302 722 l 1
 205 626 l 1
 118 626 l 1
EndSplineSet
EndChar
StartChar: udieresis
Encoding: 252 252 106
Width: 611
Flags: W
HStem: -12 114<162.5 288> 0 20 516 20<66 211 211 211 394 539 539 539> 627 108<146 254 146 254 350 459 146 350>
VStem: 66 108 66 145<159 193 193 536> 270 109 394 145<0 89 89 89 186 536 0 536>
LayerCount: 2
Fore
SplineSet
394 0 m 1
 394 89 l 1
 333 18 279 -12 210 -12 c 0
 115 -12 66 45 66 157 c 2
 66 536 l 1
 211 536 l 1
 211 193 l 2
 211 125 225 102 268 102 c 0xa5
 308 102 345 127 394 186 c 1
 394 536 l 1
 539 536 l 1
 539 0 l 1x65
 394 0 l 1
146 627 m 1
 146 735 l 1
 254 735 l 1
 254 627 l 1x1a
 146 627 l 1
350 627 m 1
 350 735 l 1
 459 735 l 1
 459 627 l 1
 350 627 l 1
EndSplineSet
EndChar
StartChar: yacute
Encoding: 253 253 112
Width: 556
Flags: MW
HStem: 0 20 516 20<12 164 164 164 436 543 543 543>
LayerCount: 2
Fore
SplineSet
204 0 m 1
 12 536 l 1
 164 536 l 1
 288 189 l 1
 436 536 l 1
 543 536 l 1
 231 -193 l 1
 83 -193 l 1xc0
 204 0 l 1
195 626 m 1
 313 783 l 1
 445 783 l 1
 288 626 l 1
 195 626 l 1
EndSplineSet
EndChar
StartChar: thorn
Encoding: 254 254 202
Width: 611
Flags: W
HStem: -12 89<308.5 339 290 400.5> 0 20 435 113<355.5 360.5>
VStem: 72 145<-193 0 86 350 447 771> 419 154<202 321>
LayerCount: 2
Fore
SplineSet
217 -193 m 1x58
 72 -193 l 1
 72 771 l 1
 217 771 l 1
 217 447 l 1
 273 518 324 548 387 548 c 0
 499 548 573 442 573 282 c 0
 573 98 479 -12 322 -12 c 0xb8
 295 -12 265 -9 217 0 c 1
 217 -193 l 1x58
217 350 m 1
 217 86 l 1
 256 80 281 77 299 77 c 0
 379 77 419 139 419 265 c 0
 419 377 389 435 332 435 c 0
 292 435 257 409 217 350 c 1
EndSplineSet
EndChar
StartChar: ydieresis
Encoding: 255 255 116
Width: 556
Flags: MW
HStem: 0 20 516 20<12 164 164 164 436 543 543 543> 627 108<132 240 132 240 336 445 132 336>
VStem: 12 108 216 109
LayerCount: 2
Fore
SplineSet
204 0 m 1
 12 536 l 1
 164 536 l 1
 288 189 l 1
 436 536 l 1
 543 536 l 1
 231 -193 l 1
 83 -193 l 1xc0
 204 0 l 1
132 627 m 1
 132 735 l 1
 240 735 l 1
 240 627 l 1x38
 132 627 l 1
336 627 m 1
 336 735 l 1
 445 735 l 1
 445 627 l 1
 336 627 l 1
EndSplineSet
EndChar
StartChar: Amacron
Encoding: 281 256 52
Width: 722
Flags: MW
HStem: 0 20 193 96<227 451 227 488 190 451> 703 20<286 437 437 437> 784 84<178 539 178 539>
LayerCount: 2
Fore
SplineSet
6 0 m 1
 286 723 l 1
 437 723 l 1
 716 0 l 1
 562 0 l 1
 488 193 l 1
 190 193 l 1
 116 0 l 1
 6 0 l 1
227 289 m 1
 451 289 l 1
 339 577 l 1
 227 289 l 1
178 784 m 1
 178 868 l 1
 539 868 l 1
 539 784 l 1
 178 784 l 1
EndSplineSet
EndChar
StartChar: Abreve
Encoding: 256 258 4
Width: 722
Flags: MW
HStem: 0 20 193 96<227 451 227 488 190 451> 703 20<286 437 437 437> 783 87<331 385 331 406.5>
LayerCount: 2
Fore
SplineSet
6 0 m 1
 286 723 l 1
 437 723 l 1
 716 0 l 1
 562 0 l 1
 488 193 l 1
 190 193 l 1
 116 0 l 1
 6 0 l 1
227 289 m 1
 451 289 l 1
 339 577 l 1
 227 289 l 1
186 940 m 1
 258 940 l 1
 274 891 304 870 358 870 c 0
 412 870 442 891 459 940 c 1
 531 940 l 1
 518 841 454 783 359 783 c 0
 263 783 199 841 186 940 c 1
EndSplineSet
EndChar
StartChar: Aogonek
Encoding: 257 260 7
Width: 722
Flags: MW
HStem: -181 46<602 614> 0 20 193 96<227 451 227 488 190 451> 703 20<286 437 437 437>
VStem: 452 96<-104.5 -84>
LayerCount: 2
Fore
SplineSet
6 0 m 1
 286 723 l 1
 437 723 l 1
 716 0 l 1
 562 0 l 1
 488 193 l 1
 190 193 l 1
 116 0 l 1
 6 0 l 1
227 289 m 1
 451 289 l 1
 339 577 l 1
 227 289 l 1
562 0 m 1
 639 0 l 1
 575 -31 548 -57 548 -89 c 0
 548 -120 575 -135 629 -135 c 0
 655 -135 676 -132 694 -127 c 1
 694 -167 l 1
 662 -177 633 -181 595 -181 c 0
 501 -181 452 -155 452 -104 c 0
 452 -64 485 -33 562 0 c 1
EndSplineSet
EndChar
StartChar: aogonek
Encoding: 295 261 73
Width: 556
Flags: MW
HStem: -181 46<421.5 434> -12 98<144.5 261.5> 0 20 459 89<234.5 270.5>
VStem: 34 96 34 139<136.5 186 136.5 205> 327 139<58 143 135 143 143 244 244 244 327 376 376 381>
LayerCount: 2
Fore
SplineSet
526 83 m 1
 529 1 l 1
 494 -8 472 -12 447 -12 c 0
 388 -12 353 10 333 58 c 1
 327 58 l 1
 288 8 248 -12 191 -12 c 0
 98 -12 34 51 34 144 c 0
 34 266 119 327 288 327 c 2
 327 327 l 1
 327 376 l 2
 327 432 299 459 242 459 c 0
 192 459 143 444 81 411 c 1
 81 511 l 1
 144 536 202 548 267 548 c 0
 399 548 466 492 466 381 c 2
 466 143 l 2
 466 102 479 81 506 81 c 0x56
 511 81 520 82 526 83 c 1
327 135 m 1
 327 244 l 1
 293 244 l 2
 213 244 173 215 173 157 c 0
 173 116 203 86 245 86 c 0
 278 86 303 101 327 135 c 1
382 0 m 1
 459 0 l 1
 395 -31 368 -57 368 -89 c 0
 368 -120 395 -135 448 -135 c 0
 475 -135 495 -132 513 -127 c 1
 513 -167 l 1
 482 -177 453 -181 415 -181 c 0
 321 -181 272 -155 272 -104 c 0xa8
 272 -64 305 -33 382 0 c 1
EndSplineSet
EndChar
StartChar: cacute
Encoding: 296 263 74
Width: 556
Flags: MW
HStem: -12 96<311.5 358.5> 451 97<298.5 371.5>
VStem: 36 154<212 330 212 362>
LayerCount: 2
Fore
SplineSet
515 112 m 1
 515 12 l 1
 445 -4 385 -12 332 -12 c 0
 143 -12 36 90 36 270 c 0
 36 454 139 548 343 548 c 0
 400 548 451 542 511 527 c 1
 511 423 l 1
 436 443 391 451 352 451 c 0
 245 451 190 389 190 271 c 0
 190 153 256 84 367 84 c 0xe0
 406 84 456 93 515 112 c 1
242 626 m 1
 360 783 l 1
 492 783 l 1
 335 626 l 1
 242 626 l 1
EndSplineSet
EndChar
StartChar: ccaron
Encoding: 297 269 75
Width: 556
Flags: MW
HStem: -12 96<311.5 358.5> 451 97<298.5 371.5>
VStem: 36 154<212 330 212 362>
LayerCount: 2
Fore
SplineSet
515 112 m 1
 515 12 l 1
 445 -4 385 -12 332 -12 c 0
 143 -12 36 90 36 270 c 0
 36 454 139 548 343 548 c 0
 400 548 451 542 511 527 c 1
 511 423 l 1
 436 443 391 451 352 451 c 0
 245 451 190 389 190 271 c 0
 190 153 256 84 367 84 c 0xe0
 406 84 456 93 515 112 c 1
513 783 m 1
 395 626 l 1
 262 626 l 1
 144 783 l 1
 231 783 l 1
 328 686 l 1
 329 686 l 1
 425 783 l 1
 513 783 l 1
EndSplineSet
EndChar
StartChar: Dcaron
Encoding: 260 270 11
Width: 722
Flags: MW
HStem: 0 20 624 99<234 302 234 234>
VStem: 84 150<103 103 103 624> 522 160<278 447>
LayerCount: 2
Fore
SplineSet
84 0 m 1
 84 723 l 1
 335 723 l 2
 560 723 682 601 682 376 c 0
 682 138 550 0 322 0 c 2
 84 0 l 1
234 103 m 1
 287 103 l 2
 444 103 522 190 522 366 c 0
 522 528 440 624 302 624 c 2
 234 624 l 1
 234 103 l 1
510 964 m 1
 392 807 l 1
 259 807 l 1
 141 964 l 1
 229 964 l 1
 325 867 l 1
 326 867 l 1
 422 964 l 1
 510 964 l 1
EndSplineSet
EndChar
StartChar: dcaron
Encoding: 298 271 77
Width: 719
Flags: W
HStem: -12 113<251.5 256.5> 0 20 459 89<273 303 211 322>
VStem: 39 154<215 334 215 346> 394 145<0 89 89 89 186 450 450 450 536 771 0 771> 593 126<482 659 532 659 626.5 659 659 771 626.5 771>
LayerCount: 2
Fore
SplineSet
394 0 m 1x7c
 394 89 l 1
 338 18 288 -12 225 -12 c 0x9c
 113 -12 39 94 39 254 c 0
 39 438 133 548 289 548 c 0
 317 548 347 545 394 536 c 1
 394 771 l 1
 539 771 l 1
 539 0 l 1
 394 0 l 1x7c
394 186 m 1xbc
 394 450 l 1
 355 456 331 459 313 459 c 0
 233 459 193 397 193 271 c 0
 193 159 223 101 280 101 c 0
 320 101 354 127 394 186 c 1xbc
648 626 m 1
 593 626 l 1
 593 771 l 1
 719 771 l 1
 719 659 l 2
 719 594 704 546 675 517 c 0
 654 495 634 487 593 482 c 1
 593 532 l 1
 632 533 648 558 648 612 c 2
 648 626 l 1
EndSplineSet
EndChar
StartChar: Dcroat
Encoding: 333 272 163
Width: 722
Flags: MW
HStem: 0 20 321 90<0 84 0 84 234 337> 624 99<234 303 234 234>
VStem: 84 150<103 103 103 321 411 624> 523 160<277.5 446.5>
LayerCount: 2
Fore
SplineSet
84 0 m 1
 84 321 l 1
 0 321 l 1
 0 411 l 1
 84 411 l 1
 84 723 l 1
 336 723 l 2
 561 723 683 601 683 376 c 0
 683 138 551 0 322 0 c 2
 84 0 l 1
234 103 m 1
 287 103 l 2
 445 103 523 190 523 365 c 0
 523 528 441 624 303 624 c 2
 234 624 l 1
 234 411 l 1
 337 411 l 1
 337 321 l 1
 234 321 l 1
 234 103 l 1
EndSplineSet
EndChar
StartChar: dcroat
Encoding: 338 273 199
Width: 611
Flags: W
HStem: -12 113<251.5 256.5> 0 20 459 89<273 303.5 211.5 322> 603 84<268 394 268 394 539 611>
VStem: 39 154<215 333.5 215 346> 394 145<0 89 89 89 186 450 450 450 536 603 687 771>
LayerCount: 2
Fore
SplineSet
539 0 m 1x7c
 394 0 l 1x4c
 394 89 l 1
 338 18 288 -12 225 -12 c 0x8c
 113 -12 39 94 39 254 c 0
 39 438 133 548 290 548 c 0
 317 548 347 545 394 536 c 1
 394 603 l 1
 268 603 l 1
 268 687 l 1
 394 687 l 1
 394 771 l 1
 539 771 l 1
 539 687 l 1
 611 687 l 1
 611 603 l 1
 539 603 l 1
 539 0 l 1x7c
394 186 m 1xac
 394 450 l 1
 356 456 331 459 313 459 c 0
 233 459 193 396 193 271 c 0
 193 159 223 101 280 101 c 0
 320 101 354 127 394 186 c 1xac
EndSplineSet
EndChar
StartChar: Emacron
Encoding: 283 274 55
Width: 667
Flags: MW
HStem: 0 103<234 637 234 637> 325 97<234 560 234 560> 624 99<234 614 234 234> 784 84<180 542 180 542>
VStem: 84 150<103 325 422 624>
LayerCount: 2
Fore
SplineSet
84 0 m 1
 84 723 l 1
 614 723 l 1
 614 624 l 1
 234 624 l 1
 234 422 l 1
 560 422 l 1
 560 325 l 1
 234 325 l 1
 234 103 l 1
 637 103 l 1
 637 0 l 1
 84 0 l 1
180 784 m 1
 180 868 l 1
 542 868 l 1
 542 784 l 1
 180 784 l 1
EndSplineSet
EndChar
StartChar: Edotaccent
Encoding: 262 278 17
Width: 667
Flags: MW
HStem: 0 103<234 637 234 637> 325 97<234 560 234 560> 624 99<234 614 234 234> 783 145<283 428 283 428>
VStem: 84 150<103 325 422 624> 283 145<783 928 783 928>
LayerCount: 2
Fore
SplineSet
84 0 m 1
 84 723 l 1
 614 723 l 1
 614 624 l 1
 234 624 l 1
 234 422 l 1
 560 422 l 1
 560 325 l 1
 234 325 l 1
 234 103 l 1
 637 103 l 1
 637 0 l 1
 84 0 l 1
283 783 m 1
 283 928 l 1
 428 928 l 1
 428 783 l 1
 283 783 l 1
EndSplineSet
EndChar
StartChar: Eogonek
Encoding: 263 280 18
Width: 667
Flags: MW
HStem: -181 46<521.5 533.5> 0 103<234 637 234 637 481 559 559 559> 325 97<234 560 234 560> 624 99<234 614 234 234>
VStem: 84 150<103 325 422 624> 372 96<-104.5 -84>
LayerCount: 2
Fore
SplineSet
84 0 m 1
 84 723 l 1
 614 723 l 1
 614 624 l 1
 234 624 l 1
 234 422 l 1
 560 422 l 1
 560 325 l 1
 234 325 l 1
 234 103 l 1
 637 103 l 1
 637 0 l 1
 84 0 l 1
481 0 m 1
 559 0 l 1
 495 -31 468 -57 468 -89 c 0
 468 -120 495 -135 548 -135 c 0
 574 -135 595 -132 613 -127 c 1
 613 -167 l 1
 582 -177 552 -181 515 -181 c 0
 421 -181 372 -155 372 -104 c 0
 372 -64 405 -33 481 0 c 1
EndSplineSet
EndChar
StartChar: eogonek
Encoding: 301 281 84
Width: 556
Flags: MW
HStem: -181 46<350.5 363> -12 98<326.5 354.5> 0 20 239 82<188 361 187 503 188 188> 458 90<255.5 309.5>
VStem: 36 96
LayerCount: 2
Fore
SplineSet
503 120 m 1
 503 18 l 1
 440 -3 384 -12 325 -12 c 0
 145 -12 36 96 36 275 c 0
 36 441 132 548 282 548 c 0
 436 548 501 457 503 239 c 1
 188 239 l 1
 196 176 211 145 243 118 c 0
 269 97 304 86 349 86 c 0x58
 395 86 441 96 503 120 c 1
187 321 m 1
 361 321 l 1
 359 417 336 458 283 458 c 0
 228 458 199 416 187 321 c 1
311 0 m 1
 388 0 l 1
 324 -31 297 -57 297 -89 c 0
 297 -120 324 -135 377 -135 c 0
 404 -135 424 -132 442 -127 c 1
 442 -167 l 1
 411 -177 382 -181 344 -181 c 0
 250 -181 201 -155 201 -104 c 0xa4
 201 -64 234 -33 311 0 c 1
EndSplineSet
EndChar
StartChar: Gbreve
Encoding: 264 286 19
Width: 778
Flags: MW
HStem: -18 102<391.5 472 376 491> 252 99<433 556 433 706> 642 99<387 486> 783 87<399.5 453.5 399.5 474.5>
VStem: 39 160<288.5 433.5> 556 150<90 252 252 252>
LayerCount: 2
Fore
SplineSet
706 351 m 1
 706 17 l 1
 603 -8 532 -18 450 -18 c 0
 333 -18 253 -1 194 36 c 0
 94 99 39 215 39 362 c 0
 39 505 91 618 188 683 c 0
 248 724 326 741 448 741 c 0
 542 741 617 733 705 713 c 1
 705 595 l 1
 599 628 522 642 450 642 c 0
 286 642 199 545 199 362 c 0
 199 184 292 84 460 84 c 0
 484 84 511 86 556 90 c 1
 556 252 l 1
 433 252 l 1
 433 351 l 1
 706 351 l 1
254 940 m 1
 326 940 l 1
 342 891 372 870 427 870 c 0
 480 870 510 891 527 940 c 1
 599 940 l 1
 586 841 522 783 427 783 c 0
 331 783 267 841 254 940 c 1
EndSplineSet
EndChar
StartChar: gbreve
Encoding: 302 287 85
Width: 611
Flags: W
HStem: -205 103<231.5 296.5 217.5 319.5> 0 20 516 20<394 539 539 539> 528 20<211.5 303> 627 87<276 329.5 276 350.5>
LayerCount: 2
Fore
SplineSet
394 199 m 1
 394 450 l 1
 355 457 331 460 313 460 c 0
 233 460 193 399 193 277 c 0
 193 169 223 113 280 113 c 0xa0
 320 113 354 139 394 199 c 1
394 42 m 2
 394 101 l 1
 338 30 288 0 225 0 c 0
 114 0 38 106 38 260 c 0
 38 438 134 548 289 548 c 0x50
 317 548 347 545 394 536 c 1
 539 536 l 1
 539 127 l 2
 539 1 530 -57 502 -100 c 0
 459 -168 375 -205 264 -205 c 0
 199 -205 137 -193 60 -166 c 1
 60 -60 l 1
 136 -89 191 -102 244 -102 c 0
 349 -102 394 -58 394 42 c 2
130 783 m 1
 202 783 l 1
 218 735 249 714 303 714 c 0
 356 714 387 735 403 783 c 1
 475 783 l 1
 462 685 398 627 303 627 c 0x08
 208 627 143 685 130 783 c 1
EndSplineSet
EndChar
StartChar: Gcommaaccent
Encoding: 291 290 63
Width: 778
Flags: MW
HStem: -211 51<354 433.5> -18 102<391.5 472 376 491> 252 99<433 556 433 706> 642 99<387 486>
VStem: 39 160<288.5 433.5> 423 97<-139 -119> 556 150<90 252 252 252>
LayerCount: 2
Fore
SplineSet
706 351 m 1
 706 17 l 1
 603 -8 532 -18 450 -18 c 0
 333 -18 253 -1 194 36 c 0
 94 99 39 215 39 362 c 0
 39 505 91 618 188 683 c 0
 248 724 326 741 448 741 c 0
 542 741 617 733 705 713 c 1
 705 595 l 1
 599 628 522 642 450 642 c 0
 286 642 199 545 199 362 c 0
 199 184 292 84 460 84 c 0
 484 84 511 86 556 90 c 1
 556 252 l 1
 433 252 l 1
 433 351 l 1
 706 351 l 1
342 -96 m 1
 342 -47 l 1
 466 -49 520 -75 520 -131 c 0
 520 -176 468 -211 399 -211 c 0
 376 -211 348 -209 306 -205 c 1
 306 -157 l 1
 327 -159 347 -160 361 -160 c 0
 401 -160 423 -149 423 -129 c 0
 423 -109 400 -99 342 -96 c 1
EndSplineSet
EndChar
StartChar: gcommaaccent
Encoding: 330 291 130
Width: 611
Flags: W
HStem: -205 103<231.5 296.5 217.5 319.5> 0 20 516 20<394 539 539 539> 528 20<211.5 303>
VStem: 249 145<626 738 738 771>
LayerCount: 2
Fore
SplineSet
394 199 m 1xa8
 394 450 l 1
 355 457 331 460 313 460 c 0
 233 460 193 399 193 277 c 0
 193 169 223 113 280 113 c 0
 320 113 354 139 394 199 c 1xa8
394 42 m 2
 394 101 l 1
 338 30 288 0 225 0 c 0
 114 0 38 106 38 260 c 0
 38 438 134 548 289 548 c 0x58
 317 548 347 545 394 536 c 1
 539 536 l 1
 539 127 l 2
 539 1 530 -57 502 -100 c 0
 459 -168 375 -205 264 -205 c 0
 199 -205 137 -193 60 -166 c 1
 60 -60 l 1
 136 -89 191 -102 244 -102 c 0
 349 -102 394 -58 394 42 c 2
338 771 m 1
 394 771 l 1
 394 626 l 1
 249 626 l 1
 249 738 l 2
 249 806 265 854 296 883 c 0
 321 906 345 914 394 916 c 1
 394 865 l 1
 355 864 338 839 338 785 c 2
 338 771 l 1
EndSplineSet
EndChar
StartChar: Imacron
Encoding: 284 298 56
Width: 278
Flags: MW
HStem: 0 20 703 20<64 214 214 214> 784 84<-41 320 -41 320>
VStem: 64 150<0 723 0 723>
LayerCount: 2
Fore
SplineSet
64 0 m 1
 64 723 l 1
 214 723 l 1
 214 0 l 1
 64 0 l 1
-41 784 m 1
 -41 868 l 1
 320 868 l 1
 320 784 l 1
 -41 784 l 1
EndSplineSet
EndChar
StartChar: imacron
Encoding: 320 299 120
Width: 278
Flags: MW
HStem: 0 20 516 20<67 212 212 212> 627 84<-41 320 -41 320>
VStem: 67 145<0 536 0 536>
LayerCount: 2
Fore
SplineSet
67 0 m 1
 67 536 l 1
 212 536 l 1
 212 0 l 1
 67 0 l 1
-41 627 m 1
 -41 711 l 1
 320 711 l 1
 320 627 l 1
 -41 627 l 1
EndSplineSet
EndChar
StartChar: Iogonek
Encoding: 285 302 57
Width: 278
Flags: W
HStem: -181 46<168.5 181> 0 20 703 20<64 214 214 214>
VStem: 19 96<-104.5 -84> 64 150<0 723 0 723>
LayerCount: 2
Fore
SplineSet
64 0 m 1xe8
 64 723 l 1
 214 723 l 1
 214 0 l 1
 64 0 l 1xe8
129 0 m 1xf0
 206 0 l 1
 142 -31 115 -57 115 -89 c 0
 115 -120 142 -135 195 -135 c 0
 222 -135 242 -132 260 -127 c 1
 260 -167 l 1
 229 -177 200 -181 162 -181 c 0
 68 -181 19 -155 19 -104 c 0
 19 -64 52 -33 129 0 c 1xf0
EndSplineSet
EndChar
StartChar: iogonek
Encoding: 331 303 131
Width: 278
Flags: W
HStem: -181 46<168.5 181> 0 20 516 20<67 212 212 212> 626 121<67 212 67 212>
VStem: 19 96<-104.5 -84> 67 145<0 536 0 536 626 747>
LayerCount: 2
Fore
SplineSet
67 0 m 1xf4
 67 536 l 1
 212 536 l 1
 212 0 l 1
 67 0 l 1xf4
67 626 m 1
 67 747 l 1
 212 747 l 1
 212 626 l 1
 67 626 l 1
129 0 m 1xf8
 206 0 l 1
 142 -31 115 -57 115 -89 c 0
 115 -120 142 -135 195 -135 c 0
 222 -135 242 -132 260 -127 c 1
 260 -167 l 1
 229 -177 200 -181 162 -181 c 0
 68 -181 19 -155 19 -104 c 0
 19 -64 52 -33 129 0 c 1xf8
EndSplineSet
EndChar
StartChar: Idotaccent
Encoding: 265 304 24
Width: 278
Flags: W
HStem: 0 20 703 20<63 213 213 213> 783 145<66 211 66 211>
VStem: 63 150<0 723 0 723> 66 145<783 928 783 928>
LayerCount: 2
Fore
SplineSet
63 0 m 1xf0
 63 723 l 1
 213 723 l 1
 213 0 l 1
 63 0 l 1xf0
66 783 m 1xe8
 66 928 l 1
 211 928 l 1
 211 783 l 1
 66 783 l 1xe8
EndSplineSet
EndChar
StartChar: dotlessi
Encoding: 335 305 196
Width: 278
Flags: MW
HStem: 0 20 516 20<67 212 212 212>
VStem: 67 145<0 536 0 536>
LayerCount: 2
Fore
SplineSet
67 0 m 1
 67 536 l 1
 212 536 l 1
 212 0 l 1
 67 0 l 1
EndSplineSet
EndChar
StartChar: Kcommaaccent
Encoding: 286 310 58
Width: 722
Flags: MW
HStem: -211 51<300 379.5> 0 20 703 20<84 229 229 229 530 654 654 654>
VStem: 84 145<0 356 372 723> 369 97<-139 -119>
LayerCount: 2
Fore
SplineSet
84 0 m 1
 84 723 l 1
 229 723 l 1
 229 372 l 1
 530 723 l 1
 654 723 l 1
 380 399 l 1
 715 0 l 1
 527 0 l 1
 229 356 l 1
 229 0 l 1
 84 0 l 1
289 -96 m 1
 289 -47 l 1
 412 -49 466 -75 466 -131 c 0
 466 -176 414 -211 345 -211 c 0
 322 -211 295 -209 252 -205 c 1
 252 -157 l 1
 274 -159 293 -160 307 -160 c 0
 347 -160 369 -149 369 -129 c 0
 369 -109 346 -99 289 -96 c 1
EndSplineSet
EndChar
StartChar: kcommaaccent
Encoding: 321 311 121
Width: 556
Flags: MW
HStem: -211 51<264.5 344> 0 20 516 20<395 514 514 514>
VStem: 72 145<0 268 286 771> 188 97
LayerCount: 2
Fore
SplineSet
72 0 m 1
 72 771 l 1
 217 771 l 1
 217 286 l 1
 226 286 l 1
 395 536 l 1
 514 536 l 1
 358 303 l 1
 552 0 l 1
 398 0 l 1
 226 268 l 1
 217 268 l 1
 217 0 l 1x70
 72 0 l 1
253 -96 m 1
 253 -47 l 1
 376 -49 430 -75 430 -131 c 0
 430 -176 378 -211 310 -211 c 0
 286 -211 260 -209 217 -205 c 1
 217 -157 l 1
 238 -159 258 -160 271 -160 c 0
 311 -160 333 -149 333 -129 c 0x88
 333 -109 310 -99 253 -96 c 1
EndSplineSet
EndChar
StartChar: Lacute
Encoding: 266 313 25
Width: 611
Flags: MW
HStem: 0 103<234 602 234 602> 703 20<84 234 234 234>
VStem: 84 150<103 723 103 723 103 723>
LayerCount: 2
Fore
SplineSet
84 0 m 1
 84 723 l 1
 234 723 l 1
 234 103 l 1
 602 103 l 1
 602 0 l 1
 84 0 l 1
141 789 m 1
 259 946 l 1
 391 946 l 1
 234 789 l 1
 141 789 l 1
EndSplineSet
EndChar
StartChar: lacute
Encoding: 303 314 90
Width: 278
Flags: MW
HStem: 0 20
VStem: 67 145<0 771 0 771>
LayerCount: 2
Fore
SplineSet
67 0 m 1
 67 771 l 1
 212 771 l 1
 212 0 l 1
 67 0 l 1
46 819 m 1
 164 976 l 1
 296 976 l 1
 139 819 l 1
 46 819 l 1
EndSplineSet
EndChar
StartChar: Lcommaaccent
Encoding: 287 315 59
Width: 611
Flags: MW
HStem: -211 51<300 379.5> 0 103<234 602 234 602> 703 20<84 234 234 234>
VStem: 84 150<103 723 103 723 103 723> 369 97<-139 -119>
LayerCount: 2
Fore
SplineSet
84 0 m 1
 84 723 l 1
 234 723 l 1
 234 103 l 1
 602 103 l 1
 602 0 l 1
 84 0 l 1
289 -96 m 1
 289 -47 l 1
 412 -49 466 -75 466 -131 c 0
 466 -176 414 -211 345 -211 c 0
 322 -211 295 -209 252 -205 c 1
 252 -157 l 1
 274 -159 293 -160 307 -160 c 0
 347 -160 369 -149 369 -129 c 0
 369 -109 346 -99 289 -96 c 1
EndSplineSet
EndChar
StartChar: lcommaaccent
Encoding: 322 316 122
Width: 278
Flags: W
HStem: -211 51<84.5 164> 0 20
VStem: 67 145<0 771 0 771> 153 97<-139 -119>
LayerCount: 2
Fore
SplineSet
67 0 m 1xe0
 67 771 l 1
 212 771 l 1
 212 0 l 1
 67 0 l 1xe0
73 -96 m 1xd0
 73 -47 l 1
 196 -49 250 -75 250 -131 c 0
 250 -176 198 -211 130 -211 c 0
 106 -211 80 -209 37 -205 c 1
 37 -157 l 1
 58 -159 78 -160 91 -160 c 0
 131 -160 153 -149 153 -129 c 0
 153 -109 130 -99 73 -96 c 1xd0
EndSplineSet
EndChar
StartChar: Lcaron
Encoding: 267 317 26
Width: 611
Flags: MW
HStem: 0 103<234 602 234 602> 703 20<84 234 234 234 392 518 518 518>
VStem: 84 150<103 723 103 723 103 723> 392 126<434 611 484 611 578 611 611 723 578 723>
LayerCount: 2
Fore
SplineSet
84 0 m 1
 84 723 l 1
 234 723 l 1
 234 103 l 1
 602 103 l 1
 602 0 l 1
 84 0 l 1
447 578 m 1
 392 578 l 1
 392 723 l 1
 518 723 l 1
 518 611 l 2
 518 545 504 499 474 469 c 0
 453 448 433 439 392 434 c 1
 392 484 l 1
 431 485 447 510 447 564 c 2
 447 578 l 1
EndSplineSet
EndChar
StartChar: lcaron
Encoding: 304 318 91
Width: 385
Flags: MW
HStem: 0 20
VStem: 67 145<0 771 0 771> 260 126<482 659 532 659 626 659 659 771 626 771>
LayerCount: 2
Fore
SplineSet
67 0 m 1
 67 771 l 1
 212 771 l 1
 212 0 l 1
 67 0 l 1
315 626 m 1
 260 626 l 1
 260 771 l 1
 386 771 l 1
 386 659 l 2
 386 593 372 547 342 517 c 0
 321 496 301 487 260 482 c 1
 260 532 l 1
 299 533 315 558 315 612 c 2
 315 626 l 1
EndSplineSet
EndChar
StartChar: Lslash
Encoding: 334 321 164
Width: 611
Flags: MW
HStem: 0 103<234 602 234 602> 703 20<84 234 234 234>
VStem: 84 150<103 291 291 291 467 723>
LayerCount: 2
Fore
SplineSet
84 0 m 1
 84 291 l 1
 0 248 l 1
 0 342 l 1
 84 386 l 1
 84 723 l 1
 234 723 l 1
 234 467 l 1
 355 532 l 1
 355 436 l 1
 234 371 l 1
 234 103 l 1
 602 103 l 1
 602 0 l 1
 84 0 l 1
EndSplineSet
EndChar
StartChar: lslash
Encoding: 339 322 200
Width: 278
Flags: MW
HStem: 0 20
VStem: 67 145<0 309 309 309 483 771>
LayerCount: 2
Fore
SplineSet
67 0 m 1
 67 309 l 1
 0 273 l 1
 0 370 l 1
 67 406 l 1
 67 771 l 1
 212 771 l 1
 212 483 l 1
 278 518 l 1
 278 423 l 1
 212 388 l 1
 212 0 l 1
 67 0 l 1
EndSplineSet
EndChar
StartChar: Nacute
Encoding: 268 323 27
Width: 722
Flags: MW
HStem: 0 20 703 20<84 217 217 217 516 637 637 637>
VStem: 84 121<0 494 0 723> 516 121<229 723 0 723>
LayerCount: 2
Fore
SplineSet
84 0 m 1
 84 723 l 1
 217 723 l 1
 516 229 l 1
 516 723 l 1
 637 723 l 1
 637 0 l 1
 502 0 l 1
 205 494 l 1
 205 0 l 1
 84 0 l 1
292 789 m 1
 409 946 l 1
 542 946 l 1
 385 789 l 1
 292 789 l 1
EndSplineSet
EndChar
StartChar: Ncommaaccent
Encoding: 288 325 60
Width: 722
Flags: MW
HStem: -211 51<300 379.5> 0 20 703 20<84 217 217 217 516 637 637 637>
VStem: 84 121<0 494 0 723> 369 97<-139 -119> 516 121<229 723 0 723>
LayerCount: 2
Fore
SplineSet
84 0 m 1
 84 723 l 1
 217 723 l 1
 516 229 l 1
 516 723 l 1
 637 723 l 1
 637 0 l 1
 502 0 l 1
 205 494 l 1
 205 0 l 1
 84 0 l 1
289 -96 m 1
 289 -47 l 1
 412 -49 466 -75 466 -131 c 0
 466 -176 414 -211 345 -211 c 0
 322 -211 295 -209 252 -205 c 1
 252 -157 l 1
 274 -159 293 -160 307 -160 c 0
 347 -160 369 -149 369 -129 c 0
 369 -109 346 -99 289 -96 c 1
EndSplineSet
EndChar
StartChar: ncommaaccent
Encoding: 323 326 123
Width: 611
Flags: W
HStem: -211 51<264.5 344> 0 20 434 114<323 448> 516 20<72 217 217 217>
VStem: 72 145<0 350 447 536> 188 97 400 145<0 343 343 377>
LayerCount: 2
Fore
SplineSet
72 0 m 1
 72 536 l 1
 217 536 l 1x5a
 217 447 l 1
 278 518 332 548 400 548 c 0
 496 548 545 491 545 379 c 2
 545 0 l 1
 400 0 l 1
 400 343 l 2
 400 411 386 434 343 434 c 0
 303 434 265 408 217 350 c 1
 217 0 l 1x6a
 72 0 l 1
253 -96 m 1
 253 -47 l 1
 376 -49 430 -75 430 -131 c 0
 430 -176 378 -211 310 -211 c 0
 286 -211 260 -209 217 -205 c 1
 217 -157 l 1
 238 -159 258 -160 271 -160 c 0
 311 -160 333 -149 333 -129 c 0x84
 333 -109 310 -99 253 -96 c 1
EndSplineSet
EndChar
StartChar: Ncaron
Encoding: 269 327 28
Width: 722
Flags: MW
HStem: 0 20 703 20<84 217 217 217 516 637 637 637>
VStem: 84 121<0 494 0 723> 516 121<229 723 0 723>
LayerCount: 2
Fore
SplineSet
84 0 m 1
 84 723 l 1
 217 723 l 1
 516 229 l 1
 516 723 l 1
 637 723 l 1
 637 0 l 1
 502 0 l 1
 205 494 l 1
 205 0 l 1
 84 0 l 1
545 940 m 1
 427 783 l 1
 294 783 l 1
 176 940 l 1
 264 940 l 1
 360 843 l 1
 361 843 l 1
 458 940 l 1
 545 940 l 1
EndSplineSet
EndChar
StartChar: ncaron
Encoding: 306 328 93
Width: 611
Flags: W
HStem: 0 20 434 114<323 448> 516 20<72 217 217 217>
VStem: 72 145<0 350 447 536> 400 145<0 343 343 377>
LayerCount: 2
Fore
SplineSet
72 0 m 1
 72 536 l 1
 217 536 l 1xb8
 217 447 l 1
 278 518 332 548 400 548 c 0
 496 548 545 491 545 379 c 2
 545 0 l 1
 400 0 l 1
 400 343 l 2
 400 411 386 434 343 434 c 0
 303 434 265 408 217 350 c 1
 217 0 l 1xd8
 72 0 l 1
480 783 m 1
 362 626 l 1
 229 626 l 1
 111 783 l 1
 198 783 l 1
 295 686 l 1
 296 686 l 1
 392 783 l 1
 480 783 l 1
EndSplineSet
EndChar
StartChar: Omacron
Encoding: 289 332 61
Width: 778
Flags: MW
HStem: -18 100<328 448.5 328 496.5> 642 99<329 449> 784 84<208 569 208 569>
VStem: 39 160<274 450.5 274 480.5> 579 160<273.5 451>
LayerCount: 2
Fore
SplineSet
389 741 m 0
 608 741 739 599 739 363 c 0
 739 122 609 -18 384 -18 c 0
 170 -18 39 126 39 362 c 0
 39 599 170 741 389 741 c 0
389 642 m 0
 269 642 199 539 199 362 c 0
 199 186 269 82 387 82 c 0
 510 82 579 184 579 363 c 0
 579 539 509 642 389 642 c 0
208 784 m 1
 208 868 l 1
 569 868 l 1
 569 784 l 1
 208 784 l 1
EndSplineSet
EndChar
StartChar: omacron
Encoding: 324 333 124
Width: 611
Flags: MW
HStem: -12 90<269.5 341 269.5 386.5> 458 90<269.5 341> 627 84<124 485 124 485>
VStem: 36 153<210 326.5 210 353.5> 422 153<210 327>
LayerCount: 2
Fore
SplineSet
305 548 m 0
 469 548 575 439 575 269 c 0
 575 96 470 -12 303 -12 c 0
 141 -12 36 99 36 268 c 0xd8
 36 439 141 548 305 548 c 0
305 458 m 0
 234 458 189 385 189 268 c 0
 189 152 234 78 305 78 c 0
 377 78 422 151 422 269 c 0
 422 385 377 458 305 458 c 0
124 627 m 1
 124 711 l 1
 485 711 l 1
 485 627 l 1x20
 124 627 l 1
EndSplineSet
EndChar
StartChar: ohungarumlaut
Encoding: 307 337 100
Width: 611
Flags: MW
HStem: -12 90<269.5 341 269.5 386.5> 458 90<269.5 341>
VStem: 36 153<210 326.5 210 353.5> 422 153<210 327>
LayerCount: 2
Fore
SplineSet
305 548 m 0
 469 548 575 439 575 269 c 0
 575 96 470 -12 303 -12 c 0
 141 -12 36 99 36 268 c 0xf0
 36 439 141 548 305 548 c 0
305 458 m 0
 234 458 189 385 189 268 c 0
 189 152 234 78 305 78 c 0
 377 78 422 151 422 269 c 0
 422 385 377 458 305 458 c 0
151 626 m 1
 269 783 l 1
 380 783 l 1
 223 626 l 1
 151 626 l 1
335 626 m 1
 452 783 l 1
 564 783 l 1
 407 626 l 1
 335 626 l 1
EndSplineSet
EndChar
StartChar: OE
Encoding: 140 338 160
Width: 1000
Flags: W
HStem: -18 100<327.5 406.5 327.5 412> 0 103<647 970 647 970> 325 97<647 893 647 893> 624 99<647 948 647 647> 642 99<327 406>
VStem: 39 160<273.5 449 273.5 480> 497 150<119 325 422 605 605 605>
LayerCount: 2
Fore
SplineSet
970 0 m 1x76
 522 0 l 1x46
 478 -12 436 -18 388 -18 c 0
 170 -18 39 125 39 361 c 0
 39 599 169 741 388 741 c 0x8e
 436 741 479 735 522 723 c 1
 948 723 l 1
 948 624 l 1
 647 624 l 1
 647 422 l 1
 893 422 l 1
 893 325 l 1
 647 325 l 1
 647 103 l 1
 970 103 l 1
 970 0 l 1x76
497 119 m 1x8e
 497 605 l 1
 460 631 427 642 385 642 c 0
 269 642 199 537 199 361 c 0
 199 186 269 82 386 82 c 0
 427 82 460 93 497 119 c 1x8e
EndSplineSet
EndChar
StartChar: oe
Encoding: 156 339 193
Width: 944
Flags: W
HStem: -12 90<270 341 270 345.5> -12 98<714.5 742.5> 458 90<270 340.5 643.5 697>
VStem: 36 154<210 326.5 210 353.5>
LayerCount: 2
Fore
SplineSet
575 321 m 1x70
 749 321 l 1
 747 417 723 458 671 458 c 0
 616 458 587 416 575 321 c 1x70
891 120 m 1
 891 18 l 1
 828 -2 772 -12 713 -12 c 0x70
 625 -12 562 10 501 63 c 1
 445 10 386 -12 305 -12 c 0x90
 141 -12 36 97 36 268 c 0
 36 439 141 548 306 548 c 0
 386 548 443 527 495 478 c 1
 545 527 597 548 670 548 c 0
 823 548 889 457 891 239 c 1
 576 239 l 1
 584 176 599 145 631 118 c 0
 657 97 692 86 737 86 c 0
 783 86 829 96 891 120 c 1
305 458 m 0
 235 458 190 385 190 268 c 0
 190 152 235 78 305 78 c 0xb0
 377 78 421 151 421 269 c 0
 421 384 376 458 305 458 c 0
EndSplineSet
EndChar
StartChar: racute
Encoding: 308 341 101
Width: 389
Flags: W
HStem: 0 20 427 121<321.5 333.5> 516 20<84 229 229 229>
VStem: 84 145<0 352 447 536>
LayerCount: 2
Fore
SplineSet
84 0 m 1
 84 536 l 1
 229 536 l 1xb0
 229 447 l 1
 259 517 295 548 348 548 c 0
 355 548 364 547 373 545 c 1
 373 416 l 1
 354 424 340 427 327 427 c 0
 288 427 259 404 229 352 c 1
 229 0 l 1xd0
 84 0 l 1
108 626 m 1
 226 783 l 1
 358 783 l 1
 201 626 l 1
 108 626 l 1
EndSplineSet
EndChar
StartChar: Rcommaaccent
Encoding: 290 342 62
Width: 722
Flags: W
HStem: -211 51<309 388.5> 0 20 296 99<226 305 305 344 226 305> 624 99<226 323 226 226>
VStem: 84 142<0 296 395 624> 378 97<-139 -119> 469 151<495.5 558>
LayerCount: 2
Fore
SplineSet
84 0 m 1xfa
 84 723 l 1
 399 723 l 2
 546 723 620 663 620 544 c 0
 620 447 578 386 479 338 c 1
 716 0 l 1
 547 0 l 1
 344 296 l 1
 226 296 l 1
 226 0 l 1
 84 0 l 1xfa
226 395 m 1
 305 395 l 2
 412 395 469 440 469 524 c 0
 469 592 422 624 323 624 c 2
 226 624 l 1
 226 395 l 1
298 -96 m 1xf4
 298 -47 l 1
 421 -49 475 -75 475 -131 c 0
 475 -176 423 -211 354 -211 c 0
 331 -211 304 -209 262 -205 c 1
 262 -157 l 1
 282 -159 302 -160 316 -160 c 0
 356 -160 378 -149 378 -129 c 0
 378 -109 355 -99 298 -96 c 1xf4
EndSplineSet
EndChar
StartChar: rcommaaccent
Encoding: 325 343 125
Width: 389
Flags: W
HStem: -211 51<143.5 223> 0 20 427 121<321.5 333.5> 516 20<84 229 229 229>
VStem: 84 145<0 352 447 536> 200 97
LayerCount: 2
Fore
SplineSet
84 0 m 1
 84 536 l 1
 229 536 l 1x58
 229 447 l 1
 259 517 295 548 348 548 c 0
 355 548 364 547 373 545 c 1
 373 416 l 1
 354 424 340 427 327 427 c 0
 288 427 259 404 229 352 c 1
 229 0 l 1x68
 84 0 l 1
132 -96 m 1
 132 -47 l 1
 255 -49 309 -75 309 -131 c 0
 309 -176 257 -211 189 -211 c 0
 165 -211 139 -209 96 -205 c 1
 96 -157 l 1
 117 -159 137 -160 150 -160 c 0
 190 -160 212 -149 212 -129 c 0x84
 212 -109 189 -99 132 -96 c 1
EndSplineSet
EndChar
StartChar: Rcaron
Encoding: 272 344 37
Width: 722
Flags: MW
HStem: 0 20 296 99<226 305 305 344 226 305> 624 99<226 323 226 226>
VStem: 84 142<0 296 395 624> 469 151<495.5 558>
LayerCount: 2
Fore
SplineSet
84 0 m 1
 84 723 l 1
 399 723 l 2
 546 723 620 663 620 544 c 0
 620 447 578 386 479 338 c 1
 716 0 l 1
 547 0 l 1
 344 296 l 1
 226 296 l 1
 226 0 l 1
 84 0 l 1
226 395 m 1
 305 395 l 2
 412 395 469 440 469 524 c 0
 469 592 422 624 323 624 c 2
 226 624 l 1
 226 395 l 1
519 940 m 1
 401 783 l 1
 268 783 l 1
 150 940 l 1
 238 940 l 1
 334 843 l 1
 335 843 l 1
 432 940 l 1
 519 940 l 1
EndSplineSet
EndChar
StartChar: Sacute
Encoding: 273 346 38
Width: 667
Flags: MW
HStem: -19 100<266 361 266 401> 642 99<294 386 245.5 389>
VStem: 47 149<537 589 537 606> 471 158<146.5 199>
LayerCount: 2
Fore
SplineSet
49 6 m 1
 49 129 l 1
 152 95 226 81 306 81 c 0
 416 81 471 114 471 179 c 0
 471 219 447 252 408 267 c 2
 341 292 l 1
 261 322 l 2
 94 386 47 433 47 538 c 0
 47 674 145 741 346 741 c 0
 426 741 499 733 579 716 c 1
 579 602 l 1
 492 631 427 642 351 642 c 0
 237 642 196 620 196 558 c 0
 196 516 212 500 277 475 c 2
 333 453 l 1
 416 423 l 2
 575 364 629 308 629 200 c 0
 629 51 519 -19 283 -19 c 0
 234 -19 193 -15 126 -5 c 2
 49 6 l 1
242 789 m 1
 360 946 l 1
 492 946 l 1
 336 789 l 1
 242 789 l 1
EndSplineSet
EndChar
StartChar: sacute
Encoding: 309 347 102
Width: 556
Flags: MW
HStem: -12 90<224.5 285.5 224.5 333.5> 458 90<271 313 212 320.5>
VStem: 62 142<393 422 393 439> 357 149<116.5 147.5>
LayerCount: 2
Fore
SplineSet
60 18 m 1
 60 123 l 1
 141 91 197 78 252 78 c 0
 319 78 357 98 357 135 c 0
 357 160 329 184 271 207 c 2
 222 227 l 2
 92 279 62 309 62 385 c 0
 62 493 137 548 287 548 c 0
 339 548 392 542 463 529 c 1
 463 430 l 1
 387 450 339 458 302 458 c 0
 240 458 204 439 204 405 c 0
 204 381 228 362 283 340 c 2
 325 324 l 2
 469 269 506 234 506 155 c 0
 506 52 410 -12 257 -12 c 0xf0
 192 -12 130 -3 60 18 c 1
200 626 m 1
 318 783 l 1
 450 783 l 1
 293 626 l 1
 200 626 l 1
EndSplineSet
EndChar
StartChar: Scedilla
Encoding: 274 350 40
Width: 667
Flags: W
HStem: -211 52<284.5 359.5> -19 100<266 361 266 401> 0 20 642 99<294 386 245.5 389>
VStem: 47 149<537 589 537 606.5> 350 97<-139 -116> 471 158<146.5 199>
LayerCount: 2
Fore
SplineSet
49 6 m 1x5e
 49 129 l 1
 152 95 226 81 306 81 c 0
 416 81 471 114 471 179 c 0
 471 219 447 252 408 267 c 2
 341 292 l 1
 261 322 l 2
 94 386 47 433 47 538 c 0
 47 675 145 741 346 741 c 0
 426 741 499 733 579 716 c 1
 579 602 l 1
 492 631 427 642 351 642 c 0
 237 642 196 620 196 558 c 0
 196 516 212 500 277 475 c 2
 333 453 l 1
 416 423 l 2
 575 364 629 307 629 200 c 0
 629 51 519 -19 283 -19 c 0
 234 -19 192 -15 126 -5 c 2
 49 6 l 1x5e
304 0 m 1xae
 371 0 l 1
 334 -55 l 1
 413 -65 447 -88 447 -131 c 0
 447 -177 394 -211 325 -211 c 0
 299 -211 269 -206 234 -196 c 1
 234 -152 l 1
 257 -157 277 -159 292 -159 c 0
 330 -159 350 -149 350 -129 c 0
 350 -103 318 -89 255 -89 c 2
 245 -89 l 1
 304 0 l 1xae
EndSplineSet
EndChar
StartChar: scedilla
Encoding: 329 351 129
Width: 556
Flags: MW
HStem: -211 52<228.5 304> -12 90<224.5 285.5 224.5 333.5> 0 20 458 90<271 313 212 320.5>
VStem: 62 142<393 422 393 439> 176 97 357 149<116.5 147.5>
LayerCount: 2
Fore
SplineSet
60 18 m 1
 60 123 l 1
 141 91 197 78 252 78 c 0
 319 78 357 98 357 135 c 0
 357 160 329 184 271 207 c 2
 222 227 l 2
 92 279 62 309 62 385 c 0
 62 493 137 548 287 548 c 0
 339 548 392 542 463 529 c 1
 463 430 l 1
 387 450 339 458 302 458 c 0
 240 458 204 439 204 405 c 0
 204 381 228 362 283 340 c 2
 325 324 l 2
 469 269 506 234 506 155 c 0
 506 52 410 -12 257 -12 c 0x5a
 192 -12 130 -3 60 18 c 1
249 0 m 1
 315 0 l 1
 278 -55 l 1
 357 -65 391 -88 391 -131 c 0
 391 -176 338 -211 270 -211 c 0
 243 -211 214 -206 178 -196 c 1
 178 -152 l 1
 201 -157 221 -159 236 -159 c 0
 274 -159 294 -149 294 -129 c 0
 294 -103 262 -89 199 -89 c 2
 190 -89 l 1xa4
 249 0 l 1
EndSplineSet
EndChar
StartChar: Tcommaaccent
Encoding: 282 354 53
Width: 611
Flags: W
HStem: -211 52<255.5 330.5> 0 20 624 99<19 230 19 591 380 380 380 591>
VStem: 230 150<0 624 0 624> 321 97<-139 -116>
LayerCount: 2
Fore
SplineSet
230 0 m 1xf0
 230 624 l 1
 19 624 l 1
 19 723 l 1
 591 723 l 1
 591 624 l 1
 380 624 l 1
 380 0 l 1
 230 0 l 1xf0
275 0 m 1xe8
 342 0 l 1
 305 -55 l 1
 384 -65 418 -88 418 -131 c 0
 418 -177 365 -211 296 -211 c 0
 270 -211 240 -206 205 -196 c 1
 205 -152 l 1
 228 -157 248 -159 263 -159 c 0
 301 -159 321 -149 321 -129 c 0
 321 -103 289 -89 226 -89 c 2
 216 -89 l 1
 275 0 l 1xe8
EndSplineSet
EndChar
StartChar: tcommaaccent
Encoding: 317 355 117
Width: 333
Flags: W
HStem: -211 52<156 231.5> -12 20 0 20 446 90<31 79 31 79 224 320>
VStem: 79 145<164 183 183 446 536 626 626 626> 222 97<-139 -116>
LayerCount: 2
Fore
SplineSet
324 91 m 1x58
 324 0 l 1xa4
 286 -8 257 -12 232 -12 c 0
 130 -12 79 47 79 164 c 2
 79 446 l 1
 31 446 l 1
 31 536 l 1
 79 536 l 1
 79 626 l 1
 224 643 l 1
 224 536 l 1
 320 536 l 1
 320 446 l 1
 224 446 l 1
 224 183 l 2
 224 103 234 84 276 84 c 0
 289 84 306 86 324 91 c 1x58
176 0 m 1
 242 0 l 1
 205 -55 l 1
 285 -65 319 -88 319 -131 c 0
 319 -177 266 -211 197 -211 c 0
 171 -211 141 -206 105 -196 c 1
 105 -152 l 1
 129 -157 148 -159 164 -159 c 0
 202 -159 222 -149 222 -129 c 0
 222 -103 190 -89 127 -89 c 2
 117 -89 l 1
 176 0 l 1
EndSplineSet
EndChar
StartChar: Tcaron
Encoding: 275 356 41
Width: 611
Flags: MW
HStem: 0 20 624 99<19 230 19 591 380 380 380 591>
VStem: 230 150<0 624 0 624>
LayerCount: 2
Fore
SplineSet
230 0 m 1
 230 624 l 1
 19 624 l 1
 19 723 l 1
 591 723 l 1
 591 624 l 1
 380 624 l 1
 380 0 l 1
 230 0 l 1
490 940 m 1
 372 783 l 1
 239 783 l 1
 121 940 l 1
 208 940 l 1
 305 843 l 1
 306 843 l 1
 402 940 l 1
 490 940 l 1
EndSplineSet
EndChar
StartChar: tcaron
Encoding: 311 357 105
Width: 479
Flags: W
HStem: -12 20 0 20 446 90<31 79 31 79 224 320>
VStem: 79 145<164 183 183 446 536 626 626 626> 333 126<554 731 604 731 699 731 731 843 698.5 843>
LayerCount: 2
Fore
SplineSet
324 91 m 1xb8
 324 0 l 1x58
 286 -8 257 -12 232 -12 c 0
 130 -12 79 47 79 164 c 2
 79 446 l 1
 31 446 l 1
 31 536 l 1
 79 536 l 1
 79 626 l 1
 224 643 l 1
 224 536 l 1
 320 536 l 1
 320 446 l 1
 224 446 l 1
 224 183 l 2
 224 103 234 84 276 84 c 0
 289 84 306 86 324 91 c 1xb8
388 699 m 1
 333 699 l 1
 333 843 l 1
 459 843 l 1
 459 731 l 2
 459 666 444 618 415 589 c 0
 394 568 374 559 333 554 c 1
 333 604 l 1
 372 606 388 630 388 684 c 2
 388 699 l 1
EndSplineSet
EndChar
StartChar: Uring
Encoding: 276 366 46
Width: 722
Flags: MW
HStem: -18 100<322 419 322 421> 703 20<78 228 228 228 512 643 643 643> 783 54<353 386.5 353 402> 958 54<354 387.5>
VStem: 78 150<280 723> 256 54<881 914.5 881 929.5> 431 54<881 914.5> 512 131<269 279 279 723>
LayerCount: 2
Fore
SplineSet
78 723 m 1
 228 723 l 1
 228 280 l 2
 228 142 272 82 372 82 c 0
 466 82 512 144 512 269 c 2
 512 723 l 1
 643 723 l 1
 643 279 l 2
 643 177 630 121 597 77 c 0
 549 14 472 -18 370 -18 c 0
 262 -18 178 16 127 81 c 0
 92 126 78 183 78 280 c 2
 78 723 l 1
371 1012 m 0
 434 1012 485 961 485 898 c 0
 485 833 435 783 369 783 c 0
 306 783 256 834 256 897 c 0
 256 962 306 1012 371 1012 c 0
371 958 m 0
 337 958 310 931 310 898 c 0
 310 864 337 837 369 837 c 0
 404 837 431 864 431 898 c 0
 431 931 404 958 371 958 c 0
EndSplineSet
EndChar
StartChar: uring
Encoding: 312 367 110
Width: 611
Flags: W
HStem: -12 114<162.5 288> 0 20 516 20<66 211 211 211 394 539 539 539> 626 54<285 318.5 285 333.5> 802 54<285.5 319>
VStem: 66 54 66 145<159 193 193 536> 241 54 394 145<0 89 89 89 186 536 0 536>
LayerCount: 2
Fore
SplineSet
394 0 m 1
 394 89 l 1
 333 18 279 -12 210 -12 c 0
 115 -12 66 45 66 157 c 2
 66 536 l 1
 211 536 l 1
 211 193 l 2
 211 125 225 102 268 102 c 0xa280
 308 102 345 127 394 186 c 1
 394 536 l 1
 539 536 l 1
 539 0 l 1x6280
 394 0 l 1
302 856 m 0
 366 856 417 805 417 741 c 0
 417 676 366 626 301 626 c 0
 238 626 188 677 188 741 c 0x1d
 188 805 238 856 302 856 c 0
302 802 m 0
 269 802 242 775 242 741 c 0
 242 708 269 680 301 680 c 0
 336 680 363 707 363 741 c 0
 363 775 336 802 302 802 c 0
EndSplineSet
EndChar
StartChar: Uogonek
Encoding: 293 370 65
Width: 722
Flags: W
HStem: -181 46<427.5 439.5> -18 100<322 419 322 421> 0 20 703 20<78 228 228 228 512 643 643 643>
VStem: 78 150<280 723> 278 96<-104.5 -84> 512 131<269 279 279 723>
LayerCount: 2
Fore
SplineSet
78 723 m 1x5e
 228 723 l 1
 228 280 l 2
 228 142 272 82 372 82 c 0
 466 82 512 144 512 269 c 2
 512 723 l 1
 643 723 l 1
 643 279 l 2
 643 177 630 121 597 77 c 0
 549 14 472 -18 370 -18 c 0
 262 -18 178 16 127 81 c 0
 92 126 78 183 78 280 c 2
 78 723 l 1x5e
388 0 m 1xae
 465 0 l 1
 401 -31 374 -57 374 -89 c 0
 374 -120 401 -135 454 -135 c 0
 480 -135 501 -132 519 -127 c 1
 519 -167 l 1
 488 -177 458 -181 421 -181 c 0
 327 -181 278 -155 278 -104 c 0
 278 -64 311 -33 388 0 c 1xae
EndSplineSet
EndChar
StartChar: uogonek
Encoding: 327 371 127
Width: 611
Flags: W
HStem: -181 46<434 446> -12 114<162.5 288> 0 20 516 20<66 211 211 211 394 539 539 539>
VStem: 66 145<159 193 193 536> 284 96<-104.5 -84> 394 145<0 89 0 536 89 89 186 536 0 536>
LayerCount: 2
Fore
SplineSet
394 0 m 1xbe
 394 89 l 1
 333 18 279 -12 210 -12 c 0
 115 -12 66 45 66 157 c 2
 66 536 l 1
 211 536 l 1
 211 193 l 2
 211 125 225 102 268 102 c 0x5e
 308 102 346 127 394 186 c 1
 394 536 l 1
 539 536 l 1
 539 0 l 1
 394 0 l 1
 471 0 l 1
 407 -31 380 -57 380 -89 c 0
 380 -120 407 -135 461 -135 c 0
 487 -135 508 -132 526 -127 c 1
 526 -167 l 1
 495 -177 465 -181 427 -181 c 0
 333 -181 284 -155 284 -104 c 0
 284 -64 317 -33 394 0 c 1xbe
EndSplineSet
EndChar
StartChar: Ydieresis
Encoding: 159 376 54
Width: 667
Flags: W
HStem: 0 20 703 20<14 181 181 181 535 654 654 654> 784 108<201 309 201 309 405 514 201 405>
VStem: 201 108<784 892 784 892> 254 150<0 303 303 303> 405 109<784 892 784 892>
LayerCount: 2
Fore
SplineSet
254 0 m 1xe8
 254 303 l 1
 14 723 l 1
 181 723 l 1
 353 418 l 1
 535 723 l 1
 654 723 l 1
 404 304 l 1
 404 0 l 1
 254 0 l 1xe8
201 784 m 1xf4
 201 892 l 1
 309 892 l 1
 309 784 l 1
 201 784 l 1xf4
405 784 m 1
 405 892 l 1
 514 892 l 1
 514 784 l 1
 405 784 l 1
EndSplineSet
EndChar
StartChar: Zacute
Encoding: 278 377 49
Width: 611
Flags: MW
HStem: 0 103<46 46 221 566> 624 99<67 391 67 566 67 566>
LayerCount: 2
Fore
SplineSet
46 0 m 1
 46 103 l 1
 391 624 l 1
 67 624 l 1
 67 723 l 1
 566 723 l 1
 566 624 l 1
 221 103 l 1
 566 103 l 1
 566 0 l 1
 46 0 l 1
213 783 m 1
 330 940 l 1
 463 940 l 1
 306 783 l 1
 213 783 l 1
EndSplineSet
EndChar
StartChar: zacute
Encoding: 314 378 113
Width: 500
Flags: MW
HStem: 0 96<54 54 216 451> 446 90<68 284 68 446 68 446>
LayerCount: 2
Fore
SplineSet
54 0 m 1
 54 96 l 1
 284 446 l 1
 68 446 l 1
 68 536 l 1
 446 536 l 1
 446 446 l 1
 216 96 l 1
 451 96 l 1
 451 0 l 1xc0
 54 0 l 1
159 626 m 1
 277 783 l 1
 409 783 l 1
 252 626 l 1
 159 626 l 1
EndSplineSet
EndChar
StartChar: Zdotaccent
Encoding: 280 379 51
Width: 611
Flags: MW
HStem: 0 103<46 46 221 566> 624 99<67 391 67 566 67 566> 783 145<244 389 244 389>
VStem: 244 145<783 928 783 928>
LayerCount: 2
Fore
SplineSet
46 0 m 1
 46 103 l 1
 391 624 l 1
 67 624 l 1
 67 723 l 1
 566 723 l 1
 566 624 l 1
 221 103 l 1
 566 103 l 1
 566 0 l 1
 46 0 l 1
244 783 m 1
 244 928 l 1
 389 928 l 1
 389 783 l 1
 244 783 l 1
EndSplineSet
EndChar
StartChar: zdotaccent
Encoding: 316 380 115
Width: 500
Flags: MW
HStem: 0 96<54 54 216 451> 446 90<68 284 68 446 68 446> 626 145<184 329 184 329>
VStem: 54 145
LayerCount: 2
Fore
SplineSet
54 0 m 1
 54 96 l 1
 284 446 l 1
 68 446 l 1
 68 536 l 1
 446 536 l 1
 446 446 l 1
 216 96 l 1
 451 96 l 1
 451 0 l 1xc0
 54 0 l 1
184 626 m 1
 184 771 l 1
 329 771 l 1
 329 626 l 1x30
 184 626 l 1
EndSplineSet
EndChar
StartChar: Zcaron
Encoding: 279 381 50
Width: 611
Flags: MW
HStem: 0 103<46 46 221 566> 624 99<67 391 67 566 67 566>
LayerCount: 2
Fore
SplineSet
46 0 m 1
 46 103 l 1
 391 624 l 1
 67 624 l 1
 67 723 l 1
 566 723 l 1
 566 624 l 1
 221 103 l 1
 566 103 l 1
 566 0 l 1
 46 0 l 1
501 940 m 1
 383 783 l 1
 250 783 l 1
 132 940 l 1
 219 940 l 1
 316 843 l 1
 317 843 l 1
 413 940 l 1
 501 940 l 1
EndSplineSet
EndChar
StartChar: zcaron
Encoding: 315 382 114
Width: 500
Flags: MW
HStem: 0 96<54 54 216 451> 446 90<68 284 68 446 68 446>
LayerCount: 2
Fore
SplineSet
54 0 m 1
 54 96 l 1
 284 446 l 1
 68 446 l 1
 68 536 l 1
 446 536 l 1
 446 446 l 1
 216 96 l 1
 451 96 l 1
 451 0 l 1xc0
 54 0 l 1
442 783 m 1
 324 626 l 1
 191 626 l 1
 73 783 l 1
 160 783 l 1
 257 686 l 1
 258 686 l 1
 354 783 l 1
 442 783 l 1
EndSplineSet
EndChar
StartChar: florin
Encoding: 131 402 216
Width: 556
Flags: MW
HStem: 341 90<48 121 48 138 286 372> 651 90<393 440.5>
LayerCount: 2
Fore
SplineSet
24 -145 m 1
 121 341 l 1
 48 341 l 1
 48 431 l 1
 138 431 l 1
 148 475 l 2
 188 656 279 741 431 741 c 0
 465 741 500 738 531 732 c 1
 531 633 l 1
 491 645 455 651 426 651 c 0
 360 651 319 607 302 517 c 2
 286 431 l 1
 372 431 l 1
 372 341 l 1
 268 341 l 1
 171 -145 l 1
 24 -145 l 1
EndSplineSet
EndChar
StartChar: Scommaaccent
Encoding: 332 536 132
Width: 667
Flags: MW
HStem: -211 51<294 373.5> -19 100<266 361 266 401> 642 99<294 386 245.5 389>
VStem: 47 149<537 589 537 606.5> 363 97<-139 -119> 471 158<146.5 199>
LayerCount: 2
Fore
SplineSet
49 6 m 1
 49 129 l 1
 152 95 226 81 306 81 c 0
 416 81 471 114 471 179 c 0
 471 219 447 252 408 267 c 2
 341 292 l 1
 261 322 l 2
 94 386 47 433 47 538 c 0
 47 675 145 741 346 741 c 0
 426 741 499 733 579 716 c 1
 579 602 l 1
 492 631 427 642 351 642 c 0
 237 642 196 620 196 558 c 0
 196 516 212 500 277 475 c 2
 333 453 l 1
 416 423 l 2
 575 364 629 307 629 200 c 0
 629 51 519 -19 283 -19 c 0
 234 -19 192 -15 126 -5 c 2
 49 6 l 1
282 -96 m 1
 282 -47 l 1
 406 -49 460 -75 460 -131 c 0
 460 -176 408 -211 339 -211 c 0
 316 -211 289 -209 246 -205 c 1
 246 -157 l 1
 267 -159 287 -160 301 -160 c 0
 341 -160 363 -149 363 -129 c 0
 363 -109 340 -99 282 -96 c 1
EndSplineSet
EndChar
StartChar: scommaaccent
Encoding: 310 537 104
Width: 556
Flags: MW
HStem: -211 51<233.5 313> -12 90<224.5 285.5 224.5 333.5> 458 90<271 313 212 320.5>
VStem: 62 142<393 422 393 439> 176 97 357 149<116.5 147.5>
LayerCount: 2
Fore
SplineSet
60 18 m 1
 60 123 l 1
 141 91 197 78 252 78 c 0
 319 78 357 98 357 135 c 0
 357 160 329 184 271 207 c 2
 222 227 l 2
 92 279 62 309 62 385 c 0
 62 493 137 548 287 548 c 0
 339 548 392 542 463 529 c 1
 463 430 l 1
 387 450 339 458 302 458 c 0
 240 458 204 439 204 405 c 0
 204 381 228 362 283 340 c 2
 325 324 l 2
 469 269 506 234 506 155 c 0
 506 52 410 -12 257 -12 c 0x74
 192 -12 130 -3 60 18 c 1
222 -96 m 1
 222 -47 l 1
 345 -49 399 -75 399 -131 c 0
 399 -176 347 -211 279 -211 c 0
 255 -211 229 -209 186 -205 c 1
 186 -157 l 1
 207 -159 227 -160 240 -160 c 0
 280 -160 302 -149 302 -129 c 0x88
 302 -109 279 -99 222 -96 c 1
EndSplineSet
EndChar
StartChar: circumflex
Encoding: 136 710 286
Width: 333
Flags: W
LayerCount: 2
Fore
SplineSet
-18 626 m 1
 100 783 l 1
 233 783 l 1
 351 626 l 1
 263 626 l 1
 167 722 l 1
 166 722 l 1
 69 626 l 1
 -18 626 l 1
EndSplineSet
EndChar
StartChar: caron
Encoding: 345 711 287
Width: 333
Flags: W
LayerCount: 2
Fore
SplineSet
351 783 m 1
 233 626 l 1
 100 626 l 1
 -18 783 l 1
 69 783 l 1
 166 686 l 1
 167 686 l 1
 263 783 l 1
 351 783 l 1
EndSplineSet
EndChar
StartChar: breve
Encoding: 346 728 288
Width: 333
Flags: MW
HStem: 627 87<140 193.5 140 214.5>
LayerCount: 2
Fore
SplineSet
-6 783 m 1
 66 783 l 1
 82 735 113 714 167 714 c 0
 220 714 251 735 267 783 c 1
 339 783 l 1
 326 685 262 627 167 627 c 0x80
 72 627 7 685 -6 783 c 1
EndSplineSet
EndChar
StartChar: dotaccent
Encoding: 343 729 282
Width: 333
Flags: MW
HStem: 626 145<94 239 94 239>
VStem: 94 145<626 771 626 771>
LayerCount: 2
Fore
SplineSet
94 626 m 1
 94 771 l 1
 239 771 l 1
 239 626 l 1xc0
 94 626 l 1
EndSplineSet
EndChar
StartChar: ring
Encoding: 344 730 283
Width: 333
Flags: MW
HStem: 626 54<149 182.5 149 197.5> 802 54<149.5 183>
VStem: 52 54<724.5 758 724.5 773> 227 54<724 758>
LayerCount: 2
Fore
SplineSet
166 856 m 0
 230 856 281 805 281 741 c 0
 281 676 230 626 165 626 c 0
 102 626 52 677 52 741 c 0xf0
 52 805 102 856 166 856 c 0
166 802 m 0
 133 802 106 775 106 741 c 0
 106 708 133 680 165 680 c 0
 200 680 227 707 227 741 c 0
 227 775 200 802 166 802 c 0
EndSplineSet
EndChar
StartChar: ogonek
Encoding: 348 731 292
Width: 333
Flags: MW
HStem: -181 46<195.5 208> 0 20
VStem: 46 96<-104.5 -84>
LayerCount: 2
Fore
SplineSet
156 0 m 1
 233 0 l 1
 169 -31 142 -57 142 -89 c 0
 142 -120 169 -135 222 -135 c 0
 249 -135 269 -132 287 -127 c 1
 287 -167 l 1
 256 -177 227 -181 189 -181 c 0
 95 -181 46 -155 46 -104 c 0xe0
 46 -64 79 -33 156 0 c 1
EndSplineSet
EndChar
StartChar: tilde
Encoding: 152 732 289
Width: 333
Flags: W
HStem: 626 91<230 244.5 229.5 273.5> 693 90<89 103.5 60 105>
LayerCount: 2
Fore
SplineSet
67 626 m 1
 -5 626 l 1
 -3 736 27 783 93 783 c 0x40
 114 783 134 776 155 762 c 2
 174 750 l 1
 189 739 l 2
 210 724 225 717 234 717 c 0
 255 717 265 738 266 783 c 1
 338 783 l 1
 336 674 306 626 241 626 c 0x80
 219 626 201 632 179 647 c 2
 160 660 l 2
 152 666 147 669 144 671 c 0
 125 686 110 693 100 693 c 0x40
 78 693 68 672 67 626 c 1
EndSplineSet
EndChar
StartChar: hungarumlaut
Encoding: 347 733 290
Width: 333
Flags: W
LayerCount: 2
Fore
SplineSet
-40 626 m 1
 78 783 l 1
 189 783 l 1
 32 626 l 1
 -40 626 l 1
144 626 m 1
 261 783 l 1
 373 783 l 1
 216 626 l 1
 144 626 l 1
EndSplineSet
EndChar
StartChar: endash
Encoding: 150 8211 243
Width: 556
Flags: MW
HStem: 262 78<43 513 43 513>
LayerCount: 2
Fore
SplineSet
43 262 m 1
 43 340 l 1
 513 340 l 1
 513 262 l 1
 43 262 l 1
EndSplineSet
EndChar
StartChar: emdash
Encoding: 151 8212 244
Width: 1000
Flags: MW
HStem: 262 60<39 961 39 961>
LayerCount: 2
Fore
SplineSet
39 262 m 1
 39 322 l 1
 961 322 l 1
 961 262 l 1
 39 262 l 1
EndSplineSet
EndChar
StartChar: quoteleft
Encoding: 145 8216 228
Width: 278
Flags: MW
VStem: 61 157<458 579 579 614 458 615.5>
LayerCount: 2
Fore
SplineSet
157 614 m 1
 218 614 l 1
 218 458 l 1
 61 458 l 1
 61 579 l 2
 61 652 78 704 112 736 c 0
 139 760 165 769 218 771 c 1
 218 717 l 1
 176 715 157 688 157 630 c 2
 157 614 l 1
EndSplineSet
EndChar
StartChar: quoteright
Encoding: 146 8217 268
Width: 278
Flags: MW
VStem: 61 157<458 650 512 650 614 650 650 771 613.5 771>
LayerCount: 2
Fore
SplineSet
121 614 m 1
 61 614 l 1
 61 771 l 1
 218 771 l 1
 218 650 l 2
 218 577 201 525 167 493 c 0
 140 469 114 460 61 458 c 1
 61 512 l 1
 103 514 121 541 121 599 c 2
 121 614 l 1
EndSplineSet
EndChar
StartChar: quotesinglbase
Encoding: 130 8218 267
Width: 278
Flags: MW
HStem: 0 20
VStem: 61 157<-156 35 -102 35 0 35 35 157 -1.5 157>
LayerCount: 2
Fore
SplineSet
121 0 m 1
 61 0 l 1
 61 157 l 1
 218 157 l 1
 218 35 l 2
 218 -38 201 -90 167 -121 c 0
 140 -146 114 -154 61 -156 c 1
 61 -102 l 1
 103 -100 121 -74 121 -15 c 2
 121 0 l 1
EndSplineSet
EndChar
StartChar: quotedblleft
Encoding: 147 8220 230
Width: 500
Flags: MW
VStem: 63 145<470 579 579 613.5> 292 145<470 579 579 613.5>
LayerCount: 2
Fore
SplineSet
154 615 m 1
 208 615 l 1
 208 470 l 1
 63 470 l 1
 63 579 l 2
 63 648 79 698 111 731 c 0
 136 755 159 765 208 771 c 1
 208 717 l 1
 170 705 154 679 154 630 c 2
 154 615 l 1
383 615 m 1
 437 615 l 1
 437 470 l 1
 292 470 l 1
 292 579 l 2
 292 648 308 698 340 731 c 0
 365 755 388 765 437 771 c 1
 437 717 l 1
 399 705 383 679 383 630 c 2
 383 615 l 1
EndSplineSet
EndChar
StartChar: quotedblright
Encoding: 148 8221 229
Width: 500
Flags: MW
VStem: 63 145<470 662 524 662 627.5 662 662 771 627.5 771> 292 145<470 662 524 662 627.5 662 662 771 627.5 771>
LayerCount: 2
Fore
SplineSet
117 626 m 1
 63 626 l 1
 63 771 l 1
 208 771 l 1
 208 662 l 2
 208 593 192 543 160 511 c 0
 135 486 112 476 63 470 c 1
 63 524 l 1
 101 536 117 563 117 611 c 2
 117 626 l 1
346 626 m 1
 292 626 l 1
 292 771 l 1
 437 771 l 1
 437 662 l 2
 437 593 421 543 389 511 c 0
 364 486 341 476 292 470 c 1
 292 524 l 1
 330 536 346 563 346 611 c 2
 346 626 l 1
EndSplineSet
EndChar
StartChar: quotedblbase
Encoding: 132 8222 231
Width: 500
Flags: MW
HStem: 0 20
VStem: 63 145<-156 36 -102 36 1.5 36 36 145 1.5 145> 292 145<-156 36 -102 36 1.5 36 36 145 1.5 145>
LayerCount: 2
Fore
SplineSet
117 0 m 1
 63 0 l 1
 63 145 l 1
 208 145 l 1
 208 36 l 2
 208 -33 192 -83 160 -115 c 0
 135 -140 112 -150 63 -156 c 1
 63 -102 l 1
 101 -90 117 -63 117 -15 c 2
 117 0 l 1
346 0 m 1
 292 0 l 1
 292 145 l 1
 437 145 l 1
 437 36 l 2
 437 -33 421 -83 389 -115 c 0
 364 -140 341 -150 292 -156 c 1
 292 -102 l 1
 330 -90 346 -63 346 -15 c 2
 346 0 l 1
EndSplineSet
EndChar
StartChar: dagger
Encoding: 134 8224 251
Width: 556
Flags: MW
HStem: 703 20<206 350 350 350>
LayerCount: 2
Fore
SplineSet
206 -145 m 1
 218 392 l 1
 46 379 l 1
 46 488 l 1
 218 476 l 1
 206 723 l 1
 350 723 l 1
 338 476 l 1
 510 488 l 1
 510 379 l 1
 338 392 l 1
 350 -145 l 1
 206 -145 l 1
EndSplineSet
EndChar
StartChar: daggerdbl
Encoding: 135 8225 252
Width: 556
Flags: MW
HStem: 703 20<206 350 350 350>
VStem: 218 120<102 102 186 392>
LayerCount: 2
Fore
SplineSet
206 -145 m 1
 218 102 l 1
 46 90 l 1
 46 199 l 1
 218 186 l 1
 218 392 l 1
 46 379 l 1
 46 488 l 1
 218 476 l 1
 206 723 l 1
 350 723 l 1
 338 476 l 1
 510 488 l 1
 510 379 l 1
 338 392 l 1
 338 186 l 1
 510 199 l 1
 510 90 l 1
 338 102 l 1
 350 -145 l 1
 206 -145 l 1
EndSplineSet
EndChar
StartChar: bullet
Encoding: 149 8226 299
Width: 350
Flags: MW
HStem: 528 20<138 213.5>
LayerCount: 2
Fore
SplineSet
176 548 m 0
 251 548 311 488 311 412 c 0
 311 336 251 277 173 277 c 0
 100 277 40 338 40 413 c 0
 40 488 100 548 176 548 c 0
EndSplineSet
EndChar
StartChar: ellipsis
Encoding: 133 8230 225
Width: 1000
Flags: MW
HStem: 0 157<88 245 88 245 421 577 754 911>
VStem: 88 157<0 157 0 157> 421 156<0 157 0 157> 754 157<0 157 0 157>
LayerCount: 2
Fore
SplineSet
88 0 m 1
 88 157 l 1
 245 157 l 1
 245 0 l 1
 88 0 l 1
421 0 m 1
 421 157 l 1
 577 157 l 1
 577 0 l 1
 421 0 l 1
754 0 m 1
 754 157 l 1
 911 157 l 1
 911 0 l 1
 754 0 l 1
EndSplineSet
EndChar
StartChar: perthousand
Encoding: 137 8240 279
Width: 1000
Flags: W
HStem: -18 20 0 72<464.5 501.5 464.5 529.5 817.5 855> 289 72<464.5 501.5 817.5 855> 362 72<144.5 181.5 144.5 210> 651 72<145 182.5> 721 20<557 631 631 631>
VStem: 11 96<506.5 578.5 506.5 599> 220 96<507 578> 330 97<144 216 144 237> 539 97<145 216.5> 683 97<144.5 217 144.5 237> 893 96<145 216.5>
LayerCount: 2
Fore
SplineSet
164 723 m 0x7bf0
 259 723 316 655 316 541 c 0
 316 429 258 362 162 362 c 0
 69 362 11 431 11 543 c 0
 11 655 69 723 164 723 c 0x7bf0
164 651 m 0
 126 651 107 614 107 543 c 0
 107 470 126 434 163 434 c 0
 200 434 220 472 220 542 c 0
 220 614 201 651 164 651 c 0
483 361 m 0
 578 361 636 293 636 181 c 0
 636 68 578 0 481 0 c 0
 388 0 330 69 330 181 c 0
 330 293 388 361 483 361 c 0
483 289 m 0
 446 289 427 252 427 180 c 0
 427 108 446 72 483 72 c 0
 520 72 539 109 539 181 c 0
 539 252 520 289 483 289 c 0
836 361 m 0
 931 361 989 293 989 181 c 0
 989 67 932 0 834 0 c 0
 741 0 683 69 683 181 c 0
 683 293 741 361 836 361 c 0
836 289 m 0
 799 289 780 253 780 181 c 0
 780 108 799 72 836 72 c 0
 874 72 893 109 893 181 c 0
 893 252 874 289 836 289 c 0
16 -18 m 1x87f0
 557 741 l 1
 631 741 l 1
 90 -18 l 1
 16 -18 l 1x87f0
EndSplineSet
EndChar
StartChar: guilsinglleft
Encoding: 139 8249 239
Width: 333
Flags: W
LayerCount: 2
Fore
SplineSet
301 434 m 1
 173 268 l 1
 301 103 l 1
 233 51 l 1
 30 268 l 1
 233 485 l 1
 301 434 l 1
EndSplineSet
EndChar
StartChar: guilsinglright
Encoding: 155 8250 238
Width: 333
Flags: W
LayerCount: 2
Fore
SplineSet
32 103 m 1
 160 268 l 1
 32 434 l 1
 100 485 l 1
 303 268 l 1
 100 51 l 1
 32 103 l 1
EndSplineSet
EndChar
StartChar: fraction
Encoding: 342 8260 277
Width: 167
Flags: MW
HStem: -18 20 721 20<317 391 391 391>
LayerCount: 2
Fore
SplineSet
-224 -18 m 1
 317 741 l 1
 391 741 l 1
 -150 -18 l 1
 -224 -18 l 1
EndSplineSet
EndChar
StartChar: Euro
Encoding: 128 8364 217
Width: 556
Flags: MW
HStem: -18 96<354 402.5> 235 84<0 63 31 63 31 76 223 223 223 380> 416 84<31 64 0 79 223 446> 646 96<351.5 408.5 339 415.5>
VStem: 61 145<365.5 370.5>
LayerCount: 2
Fore
SplineSet
0 235 m 1
 31 319 l 1
 63 319 l 1
 62 334 61 352 61 363 c 0
 61 378 62 399 64 416 c 1
 0 416 l 1
 31 500 l 1
 79 500 l 1
 104 582 126 622 168 663 c 0
 221 716 293 742 385 742 c 0
 432 742 475 736 519 723 c 1
 519 618 l 1
 478 637 437 646 394 646 c 0
 309 646 258 602 223 500 c 1
 476 500 l 1
 446 416 l 1
 207 416 l 1
 207 412 l 2
 206 402 206 387 206 375 c 0
 206 356 207 338 208 319 c 1
 411 319 l 1
 380 235 l 1
 223 235 l 1
 259 117 304 78 404 78 c 0
 442 78 477 86 519 104 c 1
 519 4 l 1
 476 -11 430 -18 375 -18 c 0
 294 -18 231 3 180 47 c 0
 129 90 103 138 76 235 c 1
 0 235 l 1
EndSplineSet
EndChar
StartChar: trademark
Encoding: 153 8482 264
Width: 1000
Flags: MW
HStem: 663 60<96 227 96 455 324 324 324 455>
VStem: 227 97<361 663 361 663> 518 72<361 621 361 723> 816 87<361 615 615 615>
LayerCount: 2
Fore
SplineSet
227 361 m 1
 227 663 l 1
 96 663 l 1
 96 723 l 1
 455 723 l 1
 455 663 l 1
 324 663 l 1
 324 361 l 1
 227 361 l 1
518 361 m 1
 518 723 l 1
 642 723 l 1
 718 492 l 1
 796 723 l 1
 903 723 l 1
 903 361 l 1
 816 361 l 1
 816 615 l 1
 738 386 l 1
 667 386 l 1
 590 621 l 1
 590 361 l 1
 518 361 l 1
EndSplineSet
EndChar
StartChar: minus
Encoding: 341 8722 260
Width: 584
Flags: MW
HStem: 248 84<51 533 51 533>
LayerCount: 2
Fore
SplineSet
51 248 m 1
 51 332 l 1
 533 332 l 1
 533 248 l 1
 51 248 l 1
EndSplineSet
EndChar
StartChar: fi
Encoding: 336 64257 197
Width: 611
Flags: W
HStem: 0 20 446 90<25 81 25 81 226 399> 626 121<424 544 424 544> 691 92<270.5 284.5 206.5 302.5>
VStem: 81 145<0 446 0 446 536 569 0 573 0 640.5> 399 145<0 446 446 446> 424 120<626 747>
LayerCount: 2
Fore
SplineSet
81 0 m 1xdc
 81 446 l 1
 25 446 l 1
 25 536 l 1
 81 536 l 1
 81 573 l 2
 81 708 147 783 266 783 c 0
 303 783 339 777 382 763 c 1
 382 664 l 1
 340 683 312 691 293 691 c 0
 248 691 226 650 226 569 c 2
 226 536 l 1
 544 536 l 1
 544 0 l 1
 399 0 l 1
 399 446 l 1
 226 446 l 1
 226 0 l 1
 81 0 l 1xdc
424 626 m 1x22
 424 747 l 1
 544 747 l 1
 544 626 l 1
 424 626 l 1x22
EndSplineSet
EndChar
StartChar: fl
Encoding: 337 64258 198
Width: 611
Flags: MW
HStem: 0 20 446 90<25 81 25 81 226 330> 694 89<212 334.5>
VStem: 81 145<0 446 0 446 536 570 570 581 0 640.5> 399 145<0 677 677 677>
LayerCount: 2
Fore
SplineSet
81 0 m 1
 81 446 l 1
 25 446 l 1
 25 536 l 1
 81 536 l 1
 81 570 l 2
 81 711 147 783 277 783 c 0
 296 783 339 779 358 776 c 0
 378 773 391 771 395 771 c 2
 544 771 l 1
 544 0 l 1
 399 0 l 1
 399 677 l 1
 370 689 346 694 323 694 c 0
 259 694 226 656 226 581 c 2
 226 536 l 1
 330 536 l 1
 330 446 l 1
 226 446 l 1
 226 0 l 1
 81 0 l 1
EndSplineSet
EndChar
StartChar: commaaccent
Encoding: 350 -1 294
Width: 333
Flags: MW
HStem: -211 51<107.5 187>
VStem: 176 97<-139 -119>
LayerCount: 2
Fore
SplineSet
96 -96 m 1
 96 -47 l 1
 219 -49 273 -75 273 -131 c 0
 273 -176 221 -211 153 -211 c 0
 129 -211 103 -209 60 -205 c 1
 60 -157 l 1
 81 -159 101 -160 114 -160 c 0
 154 -160 176 -149 176 -129 c 0xc0
 176 -109 153 -99 96 -96 c 1
EndSplineSet
EndChar
